<?xml version="1.0" encoding="us-ascii" standalone="no"?><svg xmlns="http://www.w3.org/2000/svg" xmlns:xlink="http://www.w3.org/1999/xlink" contentStyleType="text/css" height="651px" preserveAspectRatio="none" style="width:4076px;height:651px;background:#FFFFFF;" version="1.1" viewBox="0 0 4076 651" width="4076px" zoomAndPan="magnify"><defs/><g><!--cluster healthcare--><g id="cluster_healthcare"><path d="M8.5,6 L83.5,6 A3.75,3.75 0 0 1 86,8.5 L93,28.4883 L4066.5,28.4883 A2.5,2.5 0 0 1 4069,30.9883 L4069,641.8 A2.5,2.5 0 0 1 4066.5,644.3 L8.5,644.3 A2.5,2.5 0 0 1 6,641.8 L6,8.5 A2.5,2.5 0 0 1 8.5,6 " fill="none" style="stroke:#000000;stroke-width:1.5;"/><line style="stroke:#000000;stroke-width:1.5;" x1="6" x2="93" y1="28.4883" y2="28.4883"/><text fill="#000000" font-family="sans-serif" font-size="14" font-weight="bold" lengthAdjust="spacing" textLength="74" x="10" y="21.5352">healthcare</text></g><!--cluster users--><g id="cluster_users"><path d="M32.5,49 L72.5,49 A3.75,3.75 0 0 1 75,51.5 L82,71.4883 L4042.5,71.4883 A2.5,2.5 0 0 1 4045,73.9883 L4045,617.8 A2.5,2.5 0 0 1 4042.5,620.3 L32.5,620.3 A2.5,2.5 0 0 1 30,617.8 L30,51.5 A2.5,2.5 0 0 1 32.5,49 " fill="none" style="stroke:#000000;stroke-width:1.5;"/><line style="stroke:#000000;stroke-width:1.5;" x1="30" x2="82" y1="71.4883" y2="71.4883"/><text fill="#000000" font-family="sans-serif" font-size="14" font-weight="bold" lengthAdjust="spacing" textLength="39" x="34" y="64.5352">users</text></g><!--cluster controllers--><g id="cluster_controllers"><path d="M56.5,92 L135.5,92 A3.75,3.75 0 0 1 138,94.5 L145,114.4883 L4018.5,114.4883 A2.5,2.5 0 0 1 4021,116.9883 L4021,593.8 A2.5,2.5 0 0 1 4018.5,596.3 L56.5,596.3 A2.5,2.5 0 0 1 54,593.8 L54,94.5 A2.5,2.5 0 0 1 56.5,92 " fill="none" style="stroke:#000000;stroke-width:1.5;"/><line style="stroke:#000000;stroke-width:1.5;" x1="54" x2="145" y1="114.4883" y2="114.4883"/><text fill="#000000" font-family="sans-serif" font-size="14" font-weight="bold" lengthAdjust="spacing" textLength="78" x="58" y="107.5352">controllers</text></g><!--class AdministratorController--><g id="elem_AdministratorController"><rect codeLine="8" fill="#D1E9FF" height="245.8594" id="AdministratorController" rx="2.5" ry="2.5" style="stroke:#5B9BD5;stroke-width:0.5;" width="554" x="223" y="168.22"/><ellipse cx="413.25" cy="184.22" fill="#ADD1B2" rx="11" ry="11" style="stroke:#181818;stroke-width:1.0;"/><path d="M415.7231,190.3631 Q415.1421,190.6619 414.5029,190.8113 Q413.8638,190.9607 413.1582,190.9607 Q410.6514,190.9607 409.3315,189.3089 Q408.0117,187.657 408.0117,184.5359 Q408.0117,181.4065 409.3315,179.7547 Q410.6514,178.1028 413.1582,178.1028 Q413.8638,178.1028 414.5112,178.2522 Q415.1587,178.4016 415.7231,178.7005 L415.7231,181.4231 Q415.0923,180.8421 414.4988,180.5723 Q413.9053,180.3025 413.2744,180.3025 Q411.9297,180.3025 411.2449,181.3692 Q410.5601,182.4358 410.5601,184.5359 Q410.5601,186.6277 411.2449,187.6944 Q411.9297,188.761 413.2744,188.761 Q413.9053,188.761 414.4988,188.4912 Q415.0923,188.2215 415.7231,187.6404 Z " fill="#000000"/><text fill="#1F4E79" font-family="sans-serif" font-size="14" lengthAdjust="spacing" textLength="165" x="433.75" y="189.511">AdministratorController</text><line style="stroke:#5B9BD5;stroke-width:0.5;" x1="224" x2="776" y1="200.22" y2="200.22"/><rect fill="none" height="6" style="stroke:#C82930;stroke-width:1.0;" width="6" x="231" y="210.9641"/><text fill="#000000" font-family="sans-serif" font-size="14" lengthAdjust="spacing" textLength="184" x="243" y="217.7552">AdministratorModel model</text><rect fill="none" height="6" style="stroke:#C82930;stroke-width:1.0;" width="6" x="231" y="227.4524"/><text fill="#000000" font-family="sans-serif" font-size="14" lengthAdjust="spacing" textLength="161" x="243" y="234.2434">AdministratorView view</text><line style="stroke:#5B9BD5;stroke-width:0.5;" x1="224" x2="776" y1="241.1966" y2="241.1966"/><ellipse cx="234" cy="254.9407" fill="#84BE84" rx="3" ry="3" style="stroke:#038048;stroke-width:1.0;"/><text fill="#000000" font-family="sans-serif" font-size="14" lengthAdjust="spacing" textLength="528" x="243" y="258.7317">AdministratorController(AdministratorModel model, AdministratorView view)</text><ellipse cx="234" cy="271.429" fill="#84BE84" rx="3" ry="3" style="stroke:#038048;stroke-width:1.0;"/><text fill="#000000" font-family="sans-serif" font-size="14" lengthAdjust="spacing" textLength="174" x="243" y="275.22">void administratorMenu()</text><ellipse cx="234" cy="287.9173" fill="#84BE84" rx="3" ry="3" style="stroke:#038048;stroke-width:1.0;"/><text fill="#000000" font-family="sans-serif" font-size="14" lengthAdjust="spacing" textLength="129" x="243" y="291.7083">void manageStaff()</text><ellipse cx="234" cy="304.4055" fill="#84BE84" rx="3" ry="3" style="stroke:#038048;stroke-width:1.0;"/><text fill="#000000" font-family="sans-serif" font-size="14" lengthAdjust="spacing" textLength="104" x="243" y="308.1966">void viewStaff()</text><ellipse cx="234" cy="320.8938" fill="#84BE84" rx="3" ry="3" style="stroke:#038048;stroke-width:1.0;"/><text fill="#000000" font-family="sans-serif" font-size="14" lengthAdjust="spacing" textLength="100" x="243" y="324.6848">void addStaff()</text><ellipse cx="234" cy="337.3821" fill="#84BE84" rx="3" ry="3" style="stroke:#038048;stroke-width:1.0;"/><text fill="#000000" font-family="sans-serif" font-size="14" lengthAdjust="spacing" textLength="122" x="243" y="341.1731">void updateStaff()</text><ellipse cx="234" cy="353.8704" fill="#84BE84" rx="3" ry="3" style="stroke:#038048;stroke-width:1.0;"/><text fill="#000000" font-family="sans-serif" font-size="14" lengthAdjust="spacing" textLength="125" x="243" y="357.6614">void removeStaff()</text><ellipse cx="234" cy="370.3587" fill="#84BE84" rx="3" ry="3" style="stroke:#038048;stroke-width:1.0;"/><text fill="#000000" font-family="sans-serif" font-size="14" lengthAdjust="spacing" textLength="170" x="243" y="374.1497">void viewAppointments()</text><ellipse cx="234" cy="386.847" fill="#84BE84" rx="3" ry="3" style="stroke:#038048;stroke-width:1.0;"/><text fill="#000000" font-family="sans-serif" font-size="14" lengthAdjust="spacing" textLength="162" x="243" y="390.638">void manageInventory()</text><ellipse cx="234" cy="403.3352" fill="#84BE84" rx="3" ry="3" style="stroke:#038048;stroke-width:1.0;"/><text fill="#000000" font-family="sans-serif" font-size="14" lengthAdjust="spacing" textLength="262" x="243" y="407.1262">void manageReplenishmentRequests()</text></g><!--class DoctorController--><g id="elem_DoctorController"><rect codeLine="25" fill="#D1E9FF" height="278.8359" id="DoctorController" rx="2.5" ry="2.5" style="stroke:#5B9BD5;stroke-width:0.5;" width="407" x="1037.5" y="151.73"/><ellipse cx="1178.75" cy="167.73" fill="#ADD1B2" rx="11" ry="11" style="stroke:#181818;stroke-width:1.0;"/><path d="M1181.2231,173.8731 Q1180.6421,174.1719 1180.0029,174.3213 Q1179.3638,174.4707 1178.6582,174.4707 Q1176.1514,174.4707 1174.8315,172.8189 Q1173.5117,171.167 1173.5117,168.0459 Q1173.5117,164.9165 1174.8315,163.2647 Q1176.1514,161.6128 1178.6582,161.6128 Q1179.3638,161.6128 1180.0112,161.7622 Q1180.6587,161.9116 1181.2231,162.2105 L1181.2231,164.9331 Q1180.5923,164.3521 1179.9988,164.0823 Q1179.4053,163.8125 1178.7744,163.8125 Q1177.4297,163.8125 1176.7449,164.8792 Q1176.0601,165.9458 1176.0601,168.0459 Q1176.0601,170.1377 1176.7449,171.2044 Q1177.4297,172.271 1178.7744,172.271 Q1179.4053,172.271 1179.9988,172.0012 Q1180.5923,171.7315 1181.2231,171.1504 Z " fill="#000000"/><text fill="#1F4E79" font-family="sans-serif" font-size="14" lengthAdjust="spacing" textLength="116" x="1199.25" y="173.021">DoctorController</text><line style="stroke:#5B9BD5;stroke-width:0.5;" x1="1038.5" x2="1443.5" y1="183.73" y2="183.73"/><rect fill="none" height="6" style="stroke:#C82930;stroke-width:1.0;" width="6" x="1045.5" y="194.4741"/><text fill="#000000" font-family="sans-serif" font-size="14" lengthAdjust="spacing" textLength="135" x="1057.5" y="201.2652">DoctorModel model</text><rect fill="none" height="6" style="stroke:#C82930;stroke-width:1.0;" width="6" x="1045.5" y="210.9624"/><text fill="#000000" font-family="sans-serif" font-size="14" lengthAdjust="spacing" textLength="112" x="1057.5" y="217.7534">DoctorView view</text><line style="stroke:#5B9BD5;stroke-width:0.5;" x1="1038.5" x2="1443.5" y1="224.7066" y2="224.7066"/><ellipse cx="1048.5" cy="238.4507" fill="#84BE84" rx="3" ry="3" style="stroke:#038048;stroke-width:1.0;"/><text fill="#000000" font-family="sans-serif" font-size="14" lengthAdjust="spacing" textLength="381" x="1057.5" y="242.2417">DoctorController(DoctorModel model, DoctorView view)</text><ellipse cx="1048.5" cy="254.939" fill="#84BE84" rx="3" ry="3" style="stroke:#038048;stroke-width:1.0;"/><text fill="#000000" font-family="sans-serif" font-size="14" lengthAdjust="spacing" textLength="117" x="1057.5" y="258.73">void showMenu()</text><ellipse cx="1048.5" cy="271.4273" fill="#84BE84" rx="3" ry="3" style="stroke:#038048;stroke-width:1.0;"/><text fill="#000000" font-family="sans-serif" font-size="14" lengthAdjust="spacing" textLength="227" x="1057.5" y="275.2183">void viewPatientMedicalRecords()</text><ellipse cx="1048.5" cy="287.9155" fill="#84BE84" rx="3" ry="3" style="stroke:#038048;stroke-width:1.0;"/><text fill="#000000" font-family="sans-serif" font-size="14" lengthAdjust="spacing" textLength="216" x="1057.5" y="291.7066">void addPatientMedicalRecord()</text><ellipse cx="1048.5" cy="304.4038" fill="#84BE84" rx="3" ry="3" style="stroke:#038048;stroke-width:1.0;"/><text fill="#000000" font-family="sans-serif" font-size="14" lengthAdjust="spacing" textLength="135" x="1057.5" y="308.1948">void viewSchedule()</text><ellipse cx="1048.5" cy="320.8921" fill="#84BE84" rx="3" ry="3" style="stroke:#038048;stroke-width:1.0;"/><text fill="#000000" font-family="sans-serif" font-size="14" lengthAdjust="spacing" textLength="221" x="1057.5" y="324.6831">void viewBookedAppointments()</text><ellipse cx="1048.5" cy="337.3804" fill="#84BE84" rx="3" ry="3" style="stroke:#038048;stroke-width:1.0;"/><text fill="#000000" font-family="sans-serif" font-size="14" lengthAdjust="spacing" textLength="232" x="1057.5" y="341.1714">void viewAvailableAppointments()</text><ellipse cx="1048.5" cy="353.8687" fill="#84BE84" rx="3" ry="3" style="stroke:#038048;stroke-width:1.0;"/><text fill="#000000" font-family="sans-serif" font-size="14" lengthAdjust="spacing" textLength="240" x="1057.5" y="357.6597">void viewUpcomingAppointments()</text><ellipse cx="1048.5" cy="370.357" fill="#84BE84" rx="3" ry="3" style="stroke:#038048;stroke-width:1.0;"/><text fill="#000000" font-family="sans-serif" font-size="14" lengthAdjust="spacing" textLength="170" x="1057.5" y="374.148">void selectAvailableSlot()</text><ellipse cx="1048.5" cy="386.8452" fill="#84BE84" rx="3" ry="3" style="stroke:#038048;stroke-width:1.0;"/><text fill="#000000" font-family="sans-serif" font-size="14" lengthAdjust="spacing" textLength="226" x="1057.5" y="390.6362">void viewPendingAppointments()</text><ellipse cx="1048.5" cy="403.3335" fill="#84BE84" rx="3" ry="3" style="stroke:#038048;stroke-width:1.0;"/><text fill="#000000" font-family="sans-serif" font-size="14" lengthAdjust="spacing" textLength="223" x="1057.5" y="407.1245">void updateAppointmentStatus()</text><ellipse cx="1048.5" cy="419.8218" fill="#84BE84" rx="3" ry="3" style="stroke:#038048;stroke-width:1.0;"/><text fill="#000000" font-family="sans-serif" font-size="14" lengthAdjust="spacing" textLength="240" x="1057.5" y="423.6128">void recordAppointmentOutcome()</text></g><!--class PatientController--><g id="elem_PatientController"><rect codeLine="44" fill="#D1E9FF" height="295.3242" id="PatientController" rx="2.5" ry="2.5" style="stroke:#5B9BD5;stroke-width:0.5;" width="507" x="1803.5" y="143.49"/><ellipse cx="1994.25" cy="159.49" fill="#ADD1B2" rx="11" ry="11" style="stroke:#181818;stroke-width:1.0;"/><path d="M1996.7231,165.6331 Q1996.1421,165.9319 1995.5029,166.0813 Q1994.8638,166.2307 1994.1582,166.2307 Q1991.6514,166.2307 1990.3315,164.5789 Q1989.0117,162.927 1989.0117,159.8059 Q1989.0117,156.6765 1990.3315,155.0247 Q1991.6514,153.3728 1994.1582,153.3728 Q1994.8638,153.3728 1995.5112,153.5222 Q1996.1587,153.6716 1996.7231,153.9705 L1996.7231,156.6931 Q1996.0923,156.1121 1995.4988,155.8423 Q1994.9053,155.5725 1994.2744,155.5725 Q1992.9297,155.5725 1992.2449,156.6392 Q1991.5601,157.7058 1991.5601,159.8059 Q1991.5601,161.8977 1992.2449,162.9644 Q1992.9297,164.031 1994.2744,164.031 Q1994.9053,164.031 1995.4988,163.7612 Q1996.0923,163.4915 1996.7231,162.9104 Z " fill="#000000"/><text fill="#1F4E79" font-family="sans-serif" font-size="14" lengthAdjust="spacing" textLength="117" x="2014.75" y="164.781">PatientController</text><line style="stroke:#5B9BD5;stroke-width:0.5;" x1="1804.5" x2="2309.5" y1="175.49" y2="175.49"/><rect fill="none" height="6" style="stroke:#C82930;stroke-width:1.0;" width="6" x="1811.5" y="186.2341"/><text fill="#000000" font-family="sans-serif" font-size="14" lengthAdjust="spacing" textLength="183" x="1823.5" y="193.0252">PatientModel patientModel</text><rect fill="none" height="6" style="stroke:#C82930;stroke-width:1.0;" width="6" x="1811.5" y="202.7224"/><text fill="#000000" font-family="sans-serif" font-size="14" lengthAdjust="spacing" textLength="163" x="1823.5" y="209.5134">PatientView patientView</text><line style="stroke:#5B9BD5;stroke-width:0.5;" x1="1804.5" x2="2309.5" y1="216.4666" y2="216.4666"/><ellipse cx="1814.5" cy="230.2107" fill="#84BE84" rx="3" ry="3" style="stroke:#038048;stroke-width:1.0;"/><text fill="#000000" font-family="sans-serif" font-size="14" lengthAdjust="spacing" textLength="481" x="1823.5" y="234.0017">PatientController(PatientModel patientModel, PatientView patientView)</text><ellipse cx="1814.5" cy="246.699" fill="#84BE84" rx="3" ry="3" style="stroke:#038048;stroke-width:1.0;"/><text fill="#000000" font-family="sans-serif" font-size="14" lengthAdjust="spacing" textLength="164" x="1823.5" y="250.49">void showPatientMenu()</text><ellipse cx="1814.5" cy="263.1873" fill="#84BE84" rx="3" ry="3" style="stroke:#038048;stroke-width:1.0;"/><text fill="#000000" font-family="sans-serif" font-size="14" lengthAdjust="spacing" textLength="180" x="1823.5" y="266.9783">void viewMedicalRecords()</text><ellipse cx="1814.5" cy="279.6755" fill="#84BE84" rx="3" ry="3" style="stroke:#038048;stroke-width:1.0;"/><text fill="#000000" font-family="sans-serif" font-size="14" lengthAdjust="spacing" textLength="290" x="1823.5" y="283.4666">void updatePersonalInfo(Scanner scanner)</text><ellipse cx="1814.5" cy="296.1638" fill="#84BE84" rx="3" ry="3" style="stroke:#038048;stroke-width:1.0;"/><text fill="#000000" font-family="sans-serif" font-size="14" lengthAdjust="spacing" textLength="345" x="1823.5" y="299.9548">void viewAvailableAppointments(Scanner scanner)</text><ellipse cx="1814.5" cy="312.6521" fill="#84BE84" rx="3" ry="3" style="stroke:#038048;stroke-width:1.0;"/><text fill="#000000" font-family="sans-serif" font-size="14" lengthAdjust="spacing" textLength="307" x="1823.5" y="316.4431">void scheduleAppointment(Scanner scanner)</text><ellipse cx="1814.5" cy="329.1404" fill="#84BE84" rx="3" ry="3" style="stroke:#038048;stroke-width:1.0;"/><text fill="#000000" font-family="sans-serif" font-size="14" lengthAdjust="spacing" textLength="321" x="1823.5" y="332.9314">void rescheduleAppointment(Scanner scanner)</text><ellipse cx="1814.5" cy="345.6287" fill="#84BE84" rx="3" ry="3" style="stroke:#038048;stroke-width:1.0;"/><text fill="#000000" font-family="sans-serif" font-size="14" lengthAdjust="spacing" textLength="289" x="1823.5" y="349.4197">void cancelAppointment(Scanner scanner)</text><ellipse cx="1814.5" cy="362.117" fill="#84BE84" rx="3" ry="3" style="stroke:#038048;stroke-width:1.0;"/><text fill="#000000" font-family="sans-serif" font-size="14" lengthAdjust="spacing" textLength="241" x="1823.5" y="365.908">void viewScheduledAppointments()</text><ellipse cx="1814.5" cy="378.6052" fill="#84BE84" rx="3" ry="3" style="stroke:#038048;stroke-width:1.0;"/><text fill="#000000" font-family="sans-serif" font-size="14" lengthAdjust="spacing" textLength="245" x="1823.5" y="382.3963">void viewCompletedAppointments()</text><ellipse cx="1814.5" cy="395.0935" fill="#84BE84" rx="3" ry="3" style="stroke:#038048;stroke-width:1.0;"/><text fill="#000000" font-family="sans-serif" font-size="14" lengthAdjust="spacing" textLength="105" x="1823.5" y="398.8845">void feedback()</text><rect fill="#F24D5C" height="6" style="stroke:#C82930;stroke-width:1.0;" width="6" x="1811.5" y="408.5818"/><text fill="#000000" font-family="sans-serif" font-size="14" lengthAdjust="spacing" textLength="362" x="1823.5" y="415.3728">void handleMenuChoice(int choice, Scanner scanner)</text><rect fill="#F24D5C" height="6" style="stroke:#C82930;stroke-width:1.0;" width="6" x="1811.5" y="425.0701"/><text fill="#000000" font-family="sans-serif" font-size="14" lengthAdjust="spacing" textLength="461" x="1823.5" y="431.8611">void updatePatientFile(String newEmail, String newContactNumber)</text></g><!--class PharmacistController--><g id="elem_PharmacistController"><rect codeLine="64" fill="#D1E9FF" height="179.9063" id="PharmacistController" rx="2.5" ry="2.5" style="stroke:#5B9BD5;stroke-width:0.5;" width="647" x="2410.5" y="201.2"/><ellipse cx="2657.25" cy="217.2" fill="#ADD1B2" rx="11" ry="11" style="stroke:#181818;stroke-width:1.0;"/><path d="M2659.7231,223.3431 Q2659.1421,223.6419 2658.5029,223.7913 Q2657.8638,223.9407 2657.1582,223.9407 Q2654.6514,223.9407 2653.3315,222.2889 Q2652.0117,220.637 2652.0117,217.5159 Q2652.0117,214.3865 2653.3315,212.7347 Q2654.6514,211.0828 2657.1582,211.0828 Q2657.8638,211.0828 2658.5112,211.2322 Q2659.1587,211.3816 2659.7231,211.6805 L2659.7231,214.4031 Q2659.0923,213.8221 2658.4988,213.5523 Q2657.9053,213.2825 2657.2744,213.2825 Q2655.9297,213.2825 2655.2449,214.3492 Q2654.5601,215.4158 2654.5601,217.5159 Q2654.5601,219.6077 2655.2449,220.6744 Q2655.9297,221.741 2657.2744,221.741 Q2657.9053,221.741 2658.4988,221.4712 Q2659.0923,221.2015 2659.7231,220.6204 Z " fill="#000000"/><text fill="#1F4E79" font-family="sans-serif" font-size="14" lengthAdjust="spacing" textLength="145" x="2677.75" y="222.491">PharmacistController</text><line style="stroke:#5B9BD5;stroke-width:0.5;" x1="2411.5" x2="3056.5" y1="233.2" y2="233.2"/><rect fill="none" height="6" style="stroke:#C82930;stroke-width:1.0;" width="6" x="2418.5" y="243.9441"/><text fill="#000000" font-family="sans-serif" font-size="14" lengthAdjust="spacing" textLength="239" x="2430.5" y="250.7352">PharmacistModel pharmacistModel</text><rect fill="none" height="6" style="stroke:#C82930;stroke-width:1.0;" width="6" x="2418.5" y="260.4324"/><text fill="#000000" font-family="sans-serif" font-size="14" lengthAdjust="spacing" textLength="219" x="2430.5" y="267.2234">PharmacistView pharmacistView</text><line style="stroke:#5B9BD5;stroke-width:0.5;" x1="2411.5" x2="3056.5" y1="274.1766" y2="274.1766"/><ellipse cx="2421.5" cy="287.9207" fill="#84BE84" rx="3" ry="3" style="stroke:#038048;stroke-width:1.0;"/><text fill="#000000" font-family="sans-serif" font-size="14" lengthAdjust="spacing" textLength="621" x="2430.5" y="291.7117">PharmacistController(PharmacistModel pharmacistModel, PharmacistView pharmacistView)</text><ellipse cx="2421.5" cy="304.409" fill="#84BE84" rx="3" ry="3" style="stroke:#038048;stroke-width:1.0;"/><text fill="#000000" font-family="sans-serif" font-size="14" lengthAdjust="spacing" textLength="117" x="2430.5" y="308.2">void showMenu()</text><ellipse cx="2421.5" cy="320.8973" fill="#84BE84" rx="3" ry="3" style="stroke:#038048;stroke-width:1.0;"/><text fill="#000000" font-family="sans-serif" font-size="14" lengthAdjust="spacing" textLength="273" x="2430.5" y="324.6883">void viewAppointmentOutcomeRecord()</text><ellipse cx="2421.5" cy="337.3855" fill="#84BE84" rx="3" ry="3" style="stroke:#038048;stroke-width:1.0;"/><text fill="#000000" font-family="sans-serif" font-size="14" lengthAdjust="spacing" textLength="321" x="2430.5" y="341.1766">void updateMedicationStatus(Scanner scanner)</text><ellipse cx="2421.5" cy="353.8738" fill="#84BE84" rx="3" ry="3" style="stroke:#038048;stroke-width:1.0;"/><text fill="#000000" font-family="sans-serif" font-size="14" lengthAdjust="spacing" textLength="212" x="2430.5" y="357.6648">void viewMedicationInventory()</text><ellipse cx="2421.5" cy="370.3621" fill="#84BE84" rx="3" ry="3" style="stroke:#038048;stroke-width:1.0;"/><text fill="#000000" font-family="sans-serif" font-size="14" lengthAdjust="spacing" textLength="360" x="2430.5" y="374.1531">void submitReplenishmentRequest(Scanner scanner)</text></g><!--class UserController--><g id="elem_UserController"><rect codeLine="77" fill="#D1E9FF" height="328.3008" id="UserController" rx="2.5" ry="2.5" style="stroke:#5B9BD5;stroke-width:0.5;" width="912" x="3093" y="127"/><ellipse cx="3494.25" cy="143" fill="#ADD1B2" rx="11" ry="11" style="stroke:#181818;stroke-width:1.0;"/><path d="M3496.7231,149.1431 Q3496.1421,149.4419 3495.5029,149.5913 Q3494.8638,149.7407 3494.1582,149.7407 Q3491.6514,149.7407 3490.3315,148.0889 Q3489.0117,146.437 3489.0117,143.3159 Q3489.0117,140.1865 3490.3315,138.5347 Q3491.6514,136.8828 3494.1582,136.8828 Q3494.8638,136.8828 3495.5112,137.0322 Q3496.1587,137.1816 3496.7231,137.4805 L3496.7231,140.2031 Q3496.0923,139.6221 3495.4988,139.3523 Q3494.9053,139.0825 3494.2744,139.0825 Q3492.9297,139.0825 3492.2449,140.1492 Q3491.5601,141.2158 3491.5601,143.3159 Q3491.5601,145.4077 3492.2449,146.4744 Q3492.9297,147.541 3494.2744,147.541 Q3494.9053,147.541 3495.4988,147.2712 Q3496.0923,147.0015 3496.7231,146.4204 Z " fill="#000000"/><text fill="#1F4E79" font-family="sans-serif" font-size="14" lengthAdjust="spacing" textLength="101" x="3514.75" y="148.291">UserController</text><line style="stroke:#5B9BD5;stroke-width:0.5;" x1="3094" x2="4004" y1="159" y2="159"/><rect fill="none" height="6" style="stroke:#C82930;stroke-width:1.0;" width="6" x="3101" y="169.7441"/><text fill="#000000" font-family="sans-serif" font-size="14" lengthAdjust="spacing" textLength="78" x="3113" y="176.5352">User model</text><rect fill="none" height="6" style="stroke:#C82930;stroke-width:1.0;" width="6" x="3101" y="186.2324"/><text fill="#000000" font-family="sans-serif" font-size="14" lengthAdjust="spacing" textLength="97" x="3113" y="193.0234">UserView view</text><text fill="#000000" font-family="sans-serif" font-size="14" lengthAdjust="spacing" textLength="4" x="3113" y="209.5117">&#160;</text><rect fill="none" height="6" style="stroke:#C82930;stroke-width:1.0;" width="6" x="3101" y="219.209"/><text fill="#000000" font-family="sans-serif" font-size="14" lengthAdjust="spacing" textLength="304" x="3113" y="226">static final String DOCTOR_PASSWORDS_FILE</text><rect fill="none" height="6" style="stroke:#C82930;stroke-width:1.0;" width="6" x="3101" y="235.6973"/><text fill="#000000" font-family="sans-serif" font-size="14" lengthAdjust="spacing" textLength="302" x="3113" y="242.4883">static final String PATIENT_PASSWORDS_FILE</text><rect fill="none" height="6" style="stroke:#C82930;stroke-width:1.0;" width="6" x="3101" y="252.1855"/><text fill="#000000" font-family="sans-serif" font-size="14" lengthAdjust="spacing" textLength="287" x="3113" y="258.9766">static final String STAFF_PASSWORDS_FILE</text><rect fill="none" height="6" style="stroke:#C82930;stroke-width:1.0;" width="6" x="3101" y="268.6738"/><text fill="#000000" font-family="sans-serif" font-size="14" lengthAdjust="spacing" textLength="248" x="3113" y="275.4648">static final String DOCTOR_LIST_FILE</text><rect fill="none" height="6" style="stroke:#C82930;stroke-width:1.0;" width="6" x="3101" y="285.1621"/><text fill="#000000" font-family="sans-serif" font-size="14" lengthAdjust="spacing" textLength="246" x="3113" y="291.9531">static final String PATIENT_LIST_FILE</text><rect fill="none" height="6" style="stroke:#C82930;stroke-width:1.0;" width="6" x="3101" y="301.6504"/><text fill="#000000" font-family="sans-serif" font-size="14" lengthAdjust="spacing" textLength="231" x="3113" y="308.4414">static final String STAFF_LIST_FILE</text><line style="stroke:#5B9BD5;stroke-width:0.5;" x1="3094" x2="4004" y1="315.3945" y2="315.3945"/><ellipse cx="3104" cy="329.1387" fill="#84BE84" rx="3" ry="3" style="stroke:#038048;stroke-width:1.0;"/><text fill="#000000" font-family="sans-serif" font-size="14" lengthAdjust="spacing" textLength="294" x="3113" y="332.9297">UserController(User model, UserView view)</text><ellipse cx="3104" cy="345.627" fill="#84BE84" rx="3" ry="3" style="stroke:#038048;stroke-width:1.0;"/><text fill="#000000" font-family="sans-serif" font-size="14" lengthAdjust="spacing" textLength="586" x="3113" y="349.418">void changeUserPassword(String hospitalId, String newPassword) throws IOException</text><ellipse cx="3104" cy="362.1152" fill="#84BE84" rx="3" ry="3" style="stroke:#038048;stroke-width:1.0;"/><text fill="#000000" font-family="sans-serif" font-size="14" lengthAdjust="spacing" textLength="179" x="3113" y="365.9063">static void initializeUsers()</text><rect fill="#F24D5C" height="6" style="stroke:#C82930;stroke-width:1.0;" width="6" x="3101" y="375.6035"/><text fill="#000000" font-family="sans-serif" font-size="14" lengthAdjust="spacing" textLength="250" x="3113" y="382.3945">static void loadPasswordsAndRoles()</text><rect fill="#F24D5C" height="6" style="stroke:#C82930;stroke-width:1.0;" width="6" x="3101" y="392.0918"/><text fill="#000000" font-family="sans-serif" font-size="14" lengthAdjust="spacing" textLength="886" x="3113" y="398.8828">static void loadPasswordFile(String filePath, Map&lt;String, String&gt; passwordMap, Map&lt;String, String&gt; roleMap, String defaultRole)</text><rect fill="#F24D5C" height="6" style="stroke:#C82930;stroke-width:1.0;" width="6" x="3101" y="408.5801"/><text fill="#000000" font-family="sans-serif" font-size="14" lengthAdjust="spacing" textLength="159" x="3113" y="415.3711">static void loadNames()</text><rect fill="#F24D5C" height="6" style="stroke:#C82930;stroke-width:1.0;" width="6" x="3101" y="425.0684"/><text fill="#000000" font-family="sans-serif" font-size="14" lengthAdjust="spacing" textLength="492" x="3113" y="431.8594">static void loadNameFile(String filePath, Map&lt;String, String&gt; nameMap)</text><rect fill="#F24D5C" height="6" style="stroke:#C82930;stroke-width:1.0;" width="6" x="3101" y="441.5566"/><text fill="#000000" font-family="sans-serif" font-size="14" lengthAdjust="spacing" textLength="694" x="3113" y="448.3477">void updatePasswordInFile(String filePath, String hospitalId, String newPassword) throws IOException</text></g><!--class AdministratorModel--><g id="elem_AdministratorModel"><rect fill="#D1E9FF" height="48" id="AdministratorModel" rx="2.5" ry="2.5" style="stroke:#5B9BD5;stroke-width:0.5;" width="169" x="69.5" y="532.3"/><ellipse cx="84.5" cy="548.3" fill="#ADD1B2" rx="11" ry="11" style="stroke:#181818;stroke-width:1.0;"/><path d="M86.9731,554.4431 Q86.3921,554.7419 85.7529,554.8913 Q85.1138,555.0407 84.4082,555.0407 Q81.9014,555.0407 80.5815,553.3889 Q79.2617,551.737 79.2617,548.6159 Q79.2617,545.4865 80.5815,543.8347 Q81.9014,542.1828 84.4082,542.1828 Q85.1138,542.1828 85.7612,542.3322 Q86.4087,542.4816 86.9731,542.7805 L86.9731,545.5031 Q86.3423,544.9221 85.7488,544.6523 Q85.1553,544.3825 84.5244,544.3825 Q83.1797,544.3825 82.4949,545.4492 Q81.8101,546.5158 81.8101,548.6159 Q81.8101,550.7077 82.4949,551.7744 Q83.1797,552.841 84.5244,552.841 Q85.1553,552.841 85.7488,552.5712 Q86.3423,552.3015 86.9731,551.7204 Z " fill="#000000"/><text fill="#1F4E79" font-family="sans-serif" font-size="14" lengthAdjust="spacing" textLength="137" x="98.5" y="553.591">AdministratorModel</text><line style="stroke:#5B9BD5;stroke-width:0.5;" x1="70.5" x2="237.5" y1="564.3" y2="564.3"/><line style="stroke:#5B9BD5;stroke-width:0.5;" x1="70.5" x2="237.5" y1="572.3" y2="572.3"/></g><!--class AdministratorView--><g id="elem_AdministratorView"><rect fill="#D1E9FF" height="48" id="AdministratorView" rx="2.5" ry="2.5" style="stroke:#5B9BD5;stroke-width:0.5;" width="159" x="273.5" y="532.3"/><ellipse cx="288.5" cy="548.3" fill="#ADD1B2" rx="11" ry="11" style="stroke:#181818;stroke-width:1.0;"/><path d="M290.9731,554.4431 Q290.3921,554.7419 289.7529,554.8913 Q289.1138,555.0407 288.4082,555.0407 Q285.9014,555.0407 284.5815,553.3889 Q283.2617,551.737 283.2617,548.6159 Q283.2617,545.4865 284.5815,543.8347 Q285.9014,542.1828 288.4082,542.1828 Q289.1138,542.1828 289.7612,542.3322 Q290.4087,542.4816 290.9731,542.7805 L290.9731,545.5031 Q290.3423,544.9221 289.7488,544.6523 Q289.1553,544.3825 288.5244,544.3825 Q287.1797,544.3825 286.4949,545.4492 Q285.8101,546.5158 285.8101,548.6159 Q285.8101,550.7077 286.4949,551.7744 Q287.1797,552.841 288.5244,552.841 Q289.1553,552.841 289.7488,552.5712 Q290.3423,552.3015 290.9731,551.7204 Z " fill="#000000"/><text fill="#1F4E79" font-family="sans-serif" font-size="14" lengthAdjust="spacing" textLength="127" x="302.5" y="553.591">AdministratorView</text><line style="stroke:#5B9BD5;stroke-width:0.5;" x1="274.5" x2="431.5" y1="564.3" y2="564.3"/><line style="stroke:#5B9BD5;stroke-width:0.5;" x1="274.5" x2="431.5" y1="572.3" y2="572.3"/></g><!--class Scanner--><g id="elem_Scanner"><rect fill="#D1E9FF" height="48" id="Scanner" rx="2.5" ry="2.5" style="stroke:#5B9BD5;stroke-width:0.5;" width="87" x="1626.5" y="532.3"/><ellipse cx="1641.5" cy="548.3" fill="#ADD1B2" rx="11" ry="11" style="stroke:#181818;stroke-width:1.0;"/><path d="M1643.9731,554.4431 Q1643.3921,554.7419 1642.7529,554.8913 Q1642.1138,555.0407 1641.4082,555.0407 Q1638.9014,555.0407 1637.5815,553.3889 Q1636.2617,551.737 1636.2617,548.6159 Q1636.2617,545.4865 1637.5815,543.8347 Q1638.9014,542.1828 1641.4082,542.1828 Q1642.1138,542.1828 1642.7612,542.3322 Q1643.4087,542.4816 1643.9731,542.7805 L1643.9731,545.5031 Q1643.3423,544.9221 1642.7488,544.6523 Q1642.1553,544.3825 1641.5244,544.3825 Q1640.1797,544.3825 1639.4949,545.4492 Q1638.8101,546.5158 1638.8101,548.6159 Q1638.8101,550.7077 1639.4949,551.7744 Q1640.1797,552.841 1641.5244,552.841 Q1642.1553,552.841 1642.7488,552.5712 Q1643.3423,552.3015 1643.9731,551.7204 Z " fill="#000000"/><text fill="#1F4E79" font-family="sans-serif" font-size="14" lengthAdjust="spacing" textLength="55" x="1655.5" y="553.591">Scanner</text><line style="stroke:#5B9BD5;stroke-width:0.5;" x1="1627.5" x2="1712.5" y1="564.3" y2="564.3"/><line style="stroke:#5B9BD5;stroke-width:0.5;" x1="1627.5" x2="1712.5" y1="572.3" y2="572.3"/></g><!--class Main--><g id="elem_Main"><rect fill="#D1E9FF" height="48" id="Main" rx="2.5" ry="2.5" style="stroke:#5B9BD5;stroke-width:0.5;" width="65" x="467.5" y="532.3"/><ellipse cx="482.5" cy="548.3" fill="#ADD1B2" rx="11" ry="11" style="stroke:#181818;stroke-width:1.0;"/><path d="M484.9731,554.4431 Q484.3921,554.7419 483.7529,554.8913 Q483.1138,555.0407 482.4082,555.0407 Q479.9014,555.0407 478.5815,553.3889 Q477.2617,551.737 477.2617,548.6159 Q477.2617,545.4865 478.5815,543.8347 Q479.9014,542.1828 482.4082,542.1828 Q483.1138,542.1828 483.7612,542.3322 Q484.4087,542.4816 484.9731,542.7805 L484.9731,545.5031 Q484.3423,544.9221 483.7488,544.6523 Q483.1553,544.3825 482.5244,544.3825 Q481.1797,544.3825 480.4949,545.4492 Q479.8101,546.5158 479.8101,548.6159 Q479.8101,550.7077 480.4949,551.7744 Q481.1797,552.841 482.5244,552.841 Q483.1553,552.841 483.7488,552.5712 Q484.3423,552.3015 484.9731,551.7204 Z " fill="#000000"/><text fill="#1F4E79" font-family="sans-serif" font-size="14" lengthAdjust="spacing" textLength="33" x="496.5" y="553.591">Main</text><line style="stroke:#5B9BD5;stroke-width:0.5;" x1="468.5" x2="531.5" y1="564.3" y2="564.3"/><line style="stroke:#5B9BD5;stroke-width:0.5;" x1="468.5" x2="531.5" y1="572.3" y2="572.3"/></g><!--class List--><g id="elem_List"><rect fill="#D1E9FF" height="48" id="List" rx="2.5" ry="2.5" style="stroke:#5B9BD5;stroke-width:0.5;" width="55" x="2306.5" y="532.3"/><ellipse cx="2321.5" cy="548.3" fill="#ADD1B2" rx="11" ry="11" style="stroke:#181818;stroke-width:1.0;"/><path d="M2323.9731,554.4431 Q2323.3921,554.7419 2322.7529,554.8913 Q2322.1138,555.0407 2321.4082,555.0407 Q2318.9014,555.0407 2317.5815,553.3889 Q2316.2617,551.737 2316.2617,548.6159 Q2316.2617,545.4865 2317.5815,543.8347 Q2318.9014,542.1828 2321.4082,542.1828 Q2322.1138,542.1828 2322.7612,542.3322 Q2323.4087,542.4816 2323.9731,542.7805 L2323.9731,545.5031 Q2323.3423,544.9221 2322.7488,544.6523 Q2322.1553,544.3825 2321.5244,544.3825 Q2320.1797,544.3825 2319.4949,545.4492 Q2318.8101,546.5158 2318.8101,548.6159 Q2318.8101,550.7077 2319.4949,551.7744 Q2320.1797,552.841 2321.5244,552.841 Q2322.1553,552.841 2322.7488,552.5712 Q2323.3423,552.3015 2323.9731,551.7204 Z " fill="#000000"/><text fill="#1F4E79" font-family="sans-serif" font-size="14" lengthAdjust="spacing" textLength="23" x="2335.5" y="553.591">List</text><line style="stroke:#5B9BD5;stroke-width:0.5;" x1="2307.5" x2="2360.5" y1="564.3" y2="564.3"/><line style="stroke:#5B9BD5;stroke-width:0.5;" x1="2307.5" x2="2360.5" y1="572.3" y2="572.3"/></g><!--class DoctorModel--><g id="elem_DoctorModel"><rect fill="#D1E9FF" height="48" id="DoctorModel" rx="2.5" ry="2.5" style="stroke:#5B9BD5;stroke-width:0.5;" width="120" x="1038" y="532.3"/><ellipse cx="1053" cy="548.3" fill="#ADD1B2" rx="11" ry="11" style="stroke:#181818;stroke-width:1.0;"/><path d="M1055.4731,554.4431 Q1054.8921,554.7419 1054.2529,554.8913 Q1053.6138,555.0407 1052.9082,555.0407 Q1050.4014,555.0407 1049.0815,553.3889 Q1047.7617,551.737 1047.7617,548.6159 Q1047.7617,545.4865 1049.0815,543.8347 Q1050.4014,542.1828 1052.9082,542.1828 Q1053.6138,542.1828 1054.2612,542.3322 Q1054.9087,542.4816 1055.4731,542.7805 L1055.4731,545.5031 Q1054.8423,544.9221 1054.2488,544.6523 Q1053.6553,544.3825 1053.0244,544.3825 Q1051.6797,544.3825 1050.9949,545.4492 Q1050.3101,546.5158 1050.3101,548.6159 Q1050.3101,550.7077 1050.9949,551.7744 Q1051.6797,552.841 1053.0244,552.841 Q1053.6553,552.841 1054.2488,552.5712 Q1054.8423,552.3015 1055.4731,551.7204 Z " fill="#000000"/><text fill="#1F4E79" font-family="sans-serif" font-size="14" lengthAdjust="spacing" textLength="88" x="1067" y="553.591">DoctorModel</text><line style="stroke:#5B9BD5;stroke-width:0.5;" x1="1039" x2="1157" y1="564.3" y2="564.3"/><line style="stroke:#5B9BD5;stroke-width:0.5;" x1="1039" x2="1157" y1="572.3" y2="572.3"/></g><!--class DoctorView--><g id="elem_DoctorView"><rect fill="#D1E9FF" height="48" id="DoctorView" rx="2.5" ry="2.5" style="stroke:#5B9BD5;stroke-width:0.5;" width="110" x="1193" y="532.3"/><ellipse cx="1208" cy="548.3" fill="#ADD1B2" rx="11" ry="11" style="stroke:#181818;stroke-width:1.0;"/><path d="M1210.4731,554.4431 Q1209.8921,554.7419 1209.2529,554.8913 Q1208.6138,555.0407 1207.9082,555.0407 Q1205.4014,555.0407 1204.0815,553.3889 Q1202.7617,551.737 1202.7617,548.6159 Q1202.7617,545.4865 1204.0815,543.8347 Q1205.4014,542.1828 1207.9082,542.1828 Q1208.6138,542.1828 1209.2612,542.3322 Q1209.9087,542.4816 1210.4731,542.7805 L1210.4731,545.5031 Q1209.8423,544.9221 1209.2488,544.6523 Q1208.6553,544.3825 1208.0244,544.3825 Q1206.6797,544.3825 1205.9949,545.4492 Q1205.3101,546.5158 1205.3101,548.6159 Q1205.3101,550.7077 1205.9949,551.7744 Q1206.6797,552.841 1208.0244,552.841 Q1208.6553,552.841 1209.2488,552.5712 Q1209.8423,552.3015 1210.4731,551.7204 Z " fill="#000000"/><text fill="#1F4E79" font-family="sans-serif" font-size="14" lengthAdjust="spacing" textLength="78" x="1222" y="553.591">DoctorView</text><line style="stroke:#5B9BD5;stroke-width:0.5;" x1="1194" x2="1302" y1="564.3" y2="564.3"/><line style="stroke:#5B9BD5;stroke-width:0.5;" x1="1194" x2="1302" y1="572.3" y2="572.3"/></g><!--class IOException--><g id="elem_IOException"><rect fill="#D1E9FF" height="48" id="IOException" rx="2.5" ry="2.5" style="stroke:#5B9BD5;stroke-width:0.5;" width="115" x="2396.5" y="532.3"/><ellipse cx="2411.5" cy="548.3" fill="#ADD1B2" rx="11" ry="11" style="stroke:#181818;stroke-width:1.0;"/><path d="M2413.9731,554.4431 Q2413.3921,554.7419 2412.7529,554.8913 Q2412.1138,555.0407 2411.4082,555.0407 Q2408.9014,555.0407 2407.5815,553.3889 Q2406.2617,551.737 2406.2617,548.6159 Q2406.2617,545.4865 2407.5815,543.8347 Q2408.9014,542.1828 2411.4082,542.1828 Q2412.1138,542.1828 2412.7612,542.3322 Q2413.4087,542.4816 2413.9731,542.7805 L2413.9731,545.5031 Q2413.3423,544.9221 2412.7488,544.6523 Q2412.1553,544.3825 2411.5244,544.3825 Q2410.1797,544.3825 2409.4949,545.4492 Q2408.8101,546.5158 2408.8101,548.6159 Q2408.8101,550.7077 2409.4949,551.7744 Q2410.1797,552.841 2411.5244,552.841 Q2412.1553,552.841 2412.7488,552.5712 Q2413.3423,552.3015 2413.9731,551.7204 Z " fill="#000000"/><text fill="#1F4E79" font-family="sans-serif" font-size="14" lengthAdjust="spacing" textLength="83" x="2425.5" y="553.591">IOException</text><line style="stroke:#5B9BD5;stroke-width:0.5;" x1="2397.5" x2="2510.5" y1="564.3" y2="564.3"/><line style="stroke:#5B9BD5;stroke-width:0.5;" x1="2397.5" x2="2510.5" y1="572.3" y2="572.3"/></g><!--class HashSet--><g id="elem_HashSet"><rect fill="#D1E9FF" height="48" id="HashSet" rx="2.5" ry="2.5" style="stroke:#5B9BD5;stroke-width:0.5;" width="87" x="1504.5" y="532.3"/><ellipse cx="1519.5" cy="548.3" fill="#ADD1B2" rx="11" ry="11" style="stroke:#181818;stroke-width:1.0;"/><path d="M1521.9731,554.4431 Q1521.3921,554.7419 1520.7529,554.8913 Q1520.1138,555.0407 1519.4082,555.0407 Q1516.9014,555.0407 1515.5815,553.3889 Q1514.2617,551.737 1514.2617,548.6159 Q1514.2617,545.4865 1515.5815,543.8347 Q1516.9014,542.1828 1519.4082,542.1828 Q1520.1138,542.1828 1520.7612,542.3322 Q1521.4087,542.4816 1521.9731,542.7805 L1521.9731,545.5031 Q1521.3423,544.9221 1520.7488,544.6523 Q1520.1553,544.3825 1519.5244,544.3825 Q1518.1797,544.3825 1517.4949,545.4492 Q1516.8101,546.5158 1516.8101,548.6159 Q1516.8101,550.7077 1517.4949,551.7744 Q1518.1797,552.841 1519.5244,552.841 Q1520.1553,552.841 1520.7488,552.5712 Q1521.3423,552.3015 1521.9731,551.7204 Z " fill="#000000"/><text fill="#1F4E79" font-family="sans-serif" font-size="14" lengthAdjust="spacing" textLength="55" x="1533.5" y="553.591">HashSet</text><line style="stroke:#5B9BD5;stroke-width:0.5;" x1="1505.5" x2="1590.5" y1="564.3" y2="564.3"/><line style="stroke:#5B9BD5;stroke-width:0.5;" x1="1505.5" x2="1590.5" y1="572.3" y2="572.3"/></g><!--class LocalDate--><g id="elem_LocalDate"><rect fill="#D1E9FF" height="48" id="LocalDate" rx="2.5" ry="2.5" style="stroke:#5B9BD5;stroke-width:0.5;" width="98" x="568" y="532.3"/><ellipse cx="583" cy="548.3" fill="#ADD1B2" rx="11" ry="11" style="stroke:#181818;stroke-width:1.0;"/><path d="M585.4731,554.4431 Q584.8921,554.7419 584.2529,554.8913 Q583.6138,555.0407 582.9082,555.0407 Q580.4014,555.0407 579.0815,553.3889 Q577.7617,551.737 577.7617,548.6159 Q577.7617,545.4865 579.0815,543.8347 Q580.4014,542.1828 582.9082,542.1828 Q583.6138,542.1828 584.2612,542.3322 Q584.9087,542.4816 585.4731,542.7805 L585.4731,545.5031 Q584.8423,544.9221 584.2488,544.6523 Q583.6553,544.3825 583.0244,544.3825 Q581.6797,544.3825 580.9949,545.4492 Q580.3101,546.5158 580.3101,548.6159 Q580.3101,550.7077 580.9949,551.7744 Q581.6797,552.841 583.0244,552.841 Q583.6553,552.841 584.2488,552.5712 Q584.8423,552.3015 585.4731,551.7204 Z " fill="#000000"/><text fill="#1F4E79" font-family="sans-serif" font-size="14" lengthAdjust="spacing" textLength="66" x="597" y="553.591">LocalDate</text><line style="stroke:#5B9BD5;stroke-width:0.5;" x1="569" x2="665" y1="564.3" y2="564.3"/><line style="stroke:#5B9BD5;stroke-width:0.5;" x1="569" x2="665" y1="572.3" y2="572.3"/></g><!--class LocalDateTime--><g id="elem_LocalDateTime"><rect fill="#D1E9FF" height="48" id="LocalDateTime" rx="2.5" ry="2.5" style="stroke:#5B9BD5;stroke-width:0.5;" width="132" x="1338" y="532.3"/><ellipse cx="1353" cy="548.3" fill="#ADD1B2" rx="11" ry="11" style="stroke:#181818;stroke-width:1.0;"/><path d="M1355.4731,554.4431 Q1354.8921,554.7419 1354.2529,554.8913 Q1353.6138,555.0407 1352.9082,555.0407 Q1350.4014,555.0407 1349.0815,553.3889 Q1347.7617,551.737 1347.7617,548.6159 Q1347.7617,545.4865 1349.0815,543.8347 Q1350.4014,542.1828 1352.9082,542.1828 Q1353.6138,542.1828 1354.2612,542.3322 Q1354.9087,542.4816 1355.4731,542.7805 L1355.4731,545.5031 Q1354.8423,544.9221 1354.2488,544.6523 Q1353.6553,544.3825 1353.0244,544.3825 Q1351.6797,544.3825 1350.9949,545.4492 Q1350.3101,546.5158 1350.3101,548.6159 Q1350.3101,550.7077 1350.9949,551.7744 Q1351.6797,552.841 1353.0244,552.841 Q1353.6553,552.841 1354.2488,552.5712 Q1354.8423,552.3015 1355.4731,551.7204 Z " fill="#000000"/><text fill="#1F4E79" font-family="sans-serif" font-size="14" lengthAdjust="spacing" textLength="100" x="1367" y="553.591">LocalDateTime</text><line style="stroke:#5B9BD5;stroke-width:0.5;" x1="1339" x2="1469" y1="564.3" y2="564.3"/><line style="stroke:#5B9BD5;stroke-width:0.5;" x1="1339" x2="1469" y1="572.3" y2="572.3"/></g><!--class LocalTime--><g id="elem_LocalTime"><rect fill="#D1E9FF" height="48" id="LocalTime" rx="2.5" ry="2.5" style="stroke:#5B9BD5;stroke-width:0.5;" width="101" x="701.5" y="532.3"/><ellipse cx="716.5" cy="548.3" fill="#ADD1B2" rx="11" ry="11" style="stroke:#181818;stroke-width:1.0;"/><path d="M718.9731,554.4431 Q718.3921,554.7419 717.7529,554.8913 Q717.1138,555.0407 716.4082,555.0407 Q713.9014,555.0407 712.5815,553.3889 Q711.2617,551.737 711.2617,548.6159 Q711.2617,545.4865 712.5815,543.8347 Q713.9014,542.1828 716.4082,542.1828 Q717.1138,542.1828 717.7612,542.3322 Q718.4087,542.4816 718.9731,542.7805 L718.9731,545.5031 Q718.3423,544.9221 717.7488,544.6523 Q717.1553,544.3825 716.5244,544.3825 Q715.1797,544.3825 714.4949,545.4492 Q713.8101,546.5158 713.8101,548.6159 Q713.8101,550.7077 714.4949,551.7744 Q715.1797,552.841 716.5244,552.841 Q717.1553,552.841 717.7488,552.5712 Q718.3423,552.3015 718.9731,551.7204 Z " fill="#000000"/><text fill="#1F4E79" font-family="sans-serif" font-size="14" lengthAdjust="spacing" textLength="69" x="730.5" y="553.591">LocalTime</text><line style="stroke:#5B9BD5;stroke-width:0.5;" x1="702.5" x2="801.5" y1="564.3" y2="564.3"/><line style="stroke:#5B9BD5;stroke-width:0.5;" x1="702.5" x2="801.5" y1="572.3" y2="572.3"/></g><!--class DateTimeFormatter--><g id="elem_DateTimeFormatter"><rect fill="#D1E9FF" height="48" id="DateTimeFormatter" rx="2.5" ry="2.5" style="stroke:#5B9BD5;stroke-width:0.5;" width="165" x="837.5" y="532.3"/><ellipse cx="852.5" cy="548.3" fill="#ADD1B2" rx="11" ry="11" style="stroke:#181818;stroke-width:1.0;"/><path d="M854.9731,554.4431 Q854.3921,554.7419 853.7529,554.8913 Q853.1138,555.0407 852.4082,555.0407 Q849.9014,555.0407 848.5815,553.3889 Q847.2617,551.737 847.2617,548.6159 Q847.2617,545.4865 848.5815,543.8347 Q849.9014,542.1828 852.4082,542.1828 Q853.1138,542.1828 853.7612,542.3322 Q854.4087,542.4816 854.9731,542.7805 L854.9731,545.5031 Q854.3423,544.9221 853.7488,544.6523 Q853.1553,544.3825 852.5244,544.3825 Q851.1797,544.3825 850.4949,545.4492 Q849.8101,546.5158 849.8101,548.6159 Q849.8101,550.7077 850.4949,551.7744 Q851.1797,552.841 852.5244,552.841 Q853.1553,552.841 853.7488,552.5712 Q854.3423,552.3015 854.9731,551.7204 Z " fill="#000000"/><text fill="#1F4E79" font-family="sans-serif" font-size="14" lengthAdjust="spacing" textLength="133" x="866.5" y="553.591">DateTimeFormatter</text><line style="stroke:#5B9BD5;stroke-width:0.5;" x1="838.5" x2="1001.5" y1="564.3" y2="564.3"/><line style="stroke:#5B9BD5;stroke-width:0.5;" x1="838.5" x2="1001.5" y1="572.3" y2="572.3"/></g><!--class PatientModel--><g id="elem_PatientModel"><rect fill="#D1E9FF" height="48" id="PatientModel" rx="2.5" ry="2.5" style="stroke:#5B9BD5;stroke-width:0.5;" width="121" x="2026.5" y="532.3"/><ellipse cx="2041.5" cy="548.3" fill="#ADD1B2" rx="11" ry="11" style="stroke:#181818;stroke-width:1.0;"/><path d="M2043.9731,554.4431 Q2043.3921,554.7419 2042.7529,554.8913 Q2042.1138,555.0407 2041.4082,555.0407 Q2038.9014,555.0407 2037.5815,553.3889 Q2036.2617,551.737 2036.2617,548.6159 Q2036.2617,545.4865 2037.5815,543.8347 Q2038.9014,542.1828 2041.4082,542.1828 Q2042.1138,542.1828 2042.7612,542.3322 Q2043.4087,542.4816 2043.9731,542.7805 L2043.9731,545.5031 Q2043.3423,544.9221 2042.7488,544.6523 Q2042.1553,544.3825 2041.5244,544.3825 Q2040.1797,544.3825 2039.4949,545.4492 Q2038.8101,546.5158 2038.8101,548.6159 Q2038.8101,550.7077 2039.4949,551.7744 Q2040.1797,552.841 2041.5244,552.841 Q2042.1553,552.841 2042.7488,552.5712 Q2043.3423,552.3015 2043.9731,551.7204 Z " fill="#000000"/><text fill="#1F4E79" font-family="sans-serif" font-size="14" lengthAdjust="spacing" textLength="89" x="2055.5" y="553.591">PatientModel</text><line style="stroke:#5B9BD5;stroke-width:0.5;" x1="2027.5" x2="2146.5" y1="564.3" y2="564.3"/><line style="stroke:#5B9BD5;stroke-width:0.5;" x1="2027.5" x2="2146.5" y1="572.3" y2="572.3"/></g><!--class PatientView--><g id="elem_PatientView"><rect fill="#D1E9FF" height="48" id="PatientView" rx="2.5" ry="2.5" style="stroke:#5B9BD5;stroke-width:0.5;" width="111" x="1748.5" y="532.3"/><ellipse cx="1763.5" cy="548.3" fill="#ADD1B2" rx="11" ry="11" style="stroke:#181818;stroke-width:1.0;"/><path d="M1765.9731,554.4431 Q1765.3921,554.7419 1764.7529,554.8913 Q1764.1138,555.0407 1763.4082,555.0407 Q1760.9014,555.0407 1759.5815,553.3889 Q1758.2617,551.737 1758.2617,548.6159 Q1758.2617,545.4865 1759.5815,543.8347 Q1760.9014,542.1828 1763.4082,542.1828 Q1764.1138,542.1828 1764.7612,542.3322 Q1765.4087,542.4816 1765.9731,542.7805 L1765.9731,545.5031 Q1765.3423,544.9221 1764.7488,544.6523 Q1764.1553,544.3825 1763.5244,544.3825 Q1762.1797,544.3825 1761.4949,545.4492 Q1760.8101,546.5158 1760.8101,548.6159 Q1760.8101,550.7077 1761.4949,551.7744 Q1762.1797,552.841 1763.5244,552.841 Q1764.1553,552.841 1764.7488,552.5712 Q1765.3423,552.3015 1765.9731,551.7204 Z " fill="#000000"/><text fill="#1F4E79" font-family="sans-serif" font-size="14" lengthAdjust="spacing" textLength="79" x="1777.5" y="553.591">PatientView</text><line style="stroke:#5B9BD5;stroke-width:0.5;" x1="1749.5" x2="1858.5" y1="564.3" y2="564.3"/><line style="stroke:#5B9BD5;stroke-width:0.5;" x1="1749.5" x2="1858.5" y1="572.3" y2="572.3"/></g><!--class Feedback--><g id="elem_Feedback"><rect fill="#D1E9FF" height="48" id="Feedback" rx="2.5" ry="2.5" style="stroke:#5B9BD5;stroke-width:0.5;" width="97" x="1894.5" y="532.3"/><ellipse cx="1909.5" cy="548.3" fill="#ADD1B2" rx="11" ry="11" style="stroke:#181818;stroke-width:1.0;"/><path d="M1911.9731,554.4431 Q1911.3921,554.7419 1910.7529,554.8913 Q1910.1138,555.0407 1909.4082,555.0407 Q1906.9014,555.0407 1905.5815,553.3889 Q1904.2617,551.737 1904.2617,548.6159 Q1904.2617,545.4865 1905.5815,543.8347 Q1906.9014,542.1828 1909.4082,542.1828 Q1910.1138,542.1828 1910.7612,542.3322 Q1911.4087,542.4816 1911.9731,542.7805 L1911.9731,545.5031 Q1911.3423,544.9221 1910.7488,544.6523 Q1910.1553,544.3825 1909.5244,544.3825 Q1908.1797,544.3825 1907.4949,545.4492 Q1906.8101,546.5158 1906.8101,548.6159 Q1906.8101,550.7077 1907.4949,551.7744 Q1908.1797,552.841 1909.5244,552.841 Q1910.1553,552.841 1910.7488,552.5712 Q1911.3423,552.3015 1911.9731,551.7204 Z " fill="#000000"/><text fill="#1F4E79" font-family="sans-serif" font-size="14" lengthAdjust="spacing" textLength="65" x="1923.5" y="553.591">Feedback</text><line style="stroke:#5B9BD5;stroke-width:0.5;" x1="1895.5" x2="1990.5" y1="564.3" y2="564.3"/><line style="stroke:#5B9BD5;stroke-width:0.5;" x1="1895.5" x2="1990.5" y1="572.3" y2="572.3"/></g><!--class BufferedReader--><g id="elem_BufferedReader"><rect fill="#D1E9FF" height="48" id="BufferedReader" rx="2.5" ry="2.5" style="stroke:#5B9BD5;stroke-width:0.5;" width="138" x="2845" y="532.3"/><ellipse cx="2860" cy="548.3" fill="#ADD1B2" rx="11" ry="11" style="stroke:#181818;stroke-width:1.0;"/><path d="M2862.4731,554.4431 Q2861.8921,554.7419 2861.2529,554.8913 Q2860.6138,555.0407 2859.9082,555.0407 Q2857.4014,555.0407 2856.0815,553.3889 Q2854.7617,551.737 2854.7617,548.6159 Q2854.7617,545.4865 2856.0815,543.8347 Q2857.4014,542.1828 2859.9082,542.1828 Q2860.6138,542.1828 2861.2612,542.3322 Q2861.9087,542.4816 2862.4731,542.7805 L2862.4731,545.5031 Q2861.8423,544.9221 2861.2488,544.6523 Q2860.6553,544.3825 2860.0244,544.3825 Q2858.6797,544.3825 2857.9949,545.4492 Q2857.3101,546.5158 2857.3101,548.6159 Q2857.3101,550.7077 2857.9949,551.7744 Q2858.6797,552.841 2860.0244,552.841 Q2860.6553,552.841 2861.2488,552.5712 Q2861.8423,552.3015 2862.4731,551.7204 Z " fill="#000000"/><text fill="#1F4E79" font-family="sans-serif" font-size="14" lengthAdjust="spacing" textLength="106" x="2874" y="553.591">BufferedReader</text><line style="stroke:#5B9BD5;stroke-width:0.5;" x1="2846" x2="2982" y1="564.3" y2="564.3"/><line style="stroke:#5B9BD5;stroke-width:0.5;" x1="2846" x2="2982" y1="572.3" y2="572.3"/></g><!--class BufferedWriter--><g id="elem_BufferedWriter"><rect fill="#D1E9FF" height="48" id="BufferedWriter" rx="2.5" ry="2.5" style="stroke:#5B9BD5;stroke-width:0.5;" width="131" x="2546.5" y="532.3"/><ellipse cx="2561.5" cy="548.3" fill="#ADD1B2" rx="11" ry="11" style="stroke:#181818;stroke-width:1.0;"/><path d="M2563.9731,554.4431 Q2563.3921,554.7419 2562.7529,554.8913 Q2562.1138,555.0407 2561.4082,555.0407 Q2558.9014,555.0407 2557.5815,553.3889 Q2556.2617,551.737 2556.2617,548.6159 Q2556.2617,545.4865 2557.5815,543.8347 Q2558.9014,542.1828 2561.4082,542.1828 Q2562.1138,542.1828 2562.7612,542.3322 Q2563.4087,542.4816 2563.9731,542.7805 L2563.9731,545.5031 Q2563.3423,544.9221 2562.7488,544.6523 Q2562.1553,544.3825 2561.5244,544.3825 Q2560.1797,544.3825 2559.4949,545.4492 Q2558.8101,546.5158 2558.8101,548.6159 Q2558.8101,550.7077 2559.4949,551.7744 Q2560.1797,552.841 2561.5244,552.841 Q2562.1553,552.841 2562.7488,552.5712 Q2563.3423,552.3015 2563.9731,551.7204 Z " fill="#000000"/><text fill="#1F4E79" font-family="sans-serif" font-size="14" lengthAdjust="spacing" textLength="99" x="2575.5" y="553.591">BufferedWriter</text><line style="stroke:#5B9BD5;stroke-width:0.5;" x1="2547.5" x2="2676.5" y1="564.3" y2="564.3"/><line style="stroke:#5B9BD5;stroke-width:0.5;" x1="2547.5" x2="2676.5" y1="572.3" y2="572.3"/></g><!--class FileReader--><g id="elem_FileReader"><rect fill="#D1E9FF" height="48" id="FileReader" rx="2.5" ry="2.5" style="stroke:#5B9BD5;stroke-width:0.5;" width="104" x="3018" y="532.3"/><ellipse cx="3033" cy="548.3" fill="#ADD1B2" rx="11" ry="11" style="stroke:#181818;stroke-width:1.0;"/><path d="M3035.4731,554.4431 Q3034.8921,554.7419 3034.2529,554.8913 Q3033.6138,555.0407 3032.9082,555.0407 Q3030.4014,555.0407 3029.0815,553.3889 Q3027.7617,551.737 3027.7617,548.6159 Q3027.7617,545.4865 3029.0815,543.8347 Q3030.4014,542.1828 3032.9082,542.1828 Q3033.6138,542.1828 3034.2612,542.3322 Q3034.9087,542.4816 3035.4731,542.7805 L3035.4731,545.5031 Q3034.8423,544.9221 3034.2488,544.6523 Q3033.6553,544.3825 3033.0244,544.3825 Q3031.6797,544.3825 3030.9949,545.4492 Q3030.3101,546.5158 3030.3101,548.6159 Q3030.3101,550.7077 3030.9949,551.7744 Q3031.6797,552.841 3033.0244,552.841 Q3033.6553,552.841 3034.2488,552.5712 Q3034.8423,552.3015 3035.4731,551.7204 Z " fill="#000000"/><text fill="#1F4E79" font-family="sans-serif" font-size="14" lengthAdjust="spacing" textLength="72" x="3047" y="553.591">FileReader</text><line style="stroke:#5B9BD5;stroke-width:0.5;" x1="3019" x2="3121" y1="564.3" y2="564.3"/><line style="stroke:#5B9BD5;stroke-width:0.5;" x1="3019" x2="3121" y1="572.3" y2="572.3"/></g><!--class FileWriter--><g id="elem_FileWriter"><rect fill="#D1E9FF" height="48" id="FileWriter" rx="2.5" ry="2.5" style="stroke:#5B9BD5;stroke-width:0.5;" width="97" x="2712.5" y="532.3"/><ellipse cx="2727.5" cy="548.3" fill="#ADD1B2" rx="11" ry="11" style="stroke:#181818;stroke-width:1.0;"/><path d="M2729.9731,554.4431 Q2729.3921,554.7419 2728.7529,554.8913 Q2728.1138,555.0407 2727.4082,555.0407 Q2724.9014,555.0407 2723.5815,553.3889 Q2722.2617,551.737 2722.2617,548.6159 Q2722.2617,545.4865 2723.5815,543.8347 Q2724.9014,542.1828 2727.4082,542.1828 Q2728.1138,542.1828 2728.7612,542.3322 Q2729.4087,542.4816 2729.9731,542.7805 L2729.9731,545.5031 Q2729.3423,544.9221 2728.7488,544.6523 Q2728.1553,544.3825 2727.5244,544.3825 Q2726.1797,544.3825 2725.4949,545.4492 Q2724.8101,546.5158 2724.8101,548.6159 Q2724.8101,550.7077 2725.4949,551.7744 Q2726.1797,552.841 2727.5244,552.841 Q2728.1553,552.841 2728.7488,552.5712 Q2729.3423,552.3015 2729.9731,551.7204 Z " fill="#000000"/><text fill="#1F4E79" font-family="sans-serif" font-size="14" lengthAdjust="spacing" textLength="65" x="2741.5" y="553.591">FileWriter</text><line style="stroke:#5B9BD5;stroke-width:0.5;" x1="2713.5" x2="2808.5" y1="564.3" y2="564.3"/><line style="stroke:#5B9BD5;stroke-width:0.5;" x1="2713.5" x2="2808.5" y1="572.3" y2="572.3"/></g><!--class Map--><g id="elem_Map"><rect fill="#D1E9FF" height="48" id="Map" rx="2.5" ry="2.5" style="stroke:#5B9BD5;stroke-width:0.5;" width="61" x="3514.5" y="532.3"/><ellipse cx="3529.5" cy="548.3" fill="#ADD1B2" rx="11" ry="11" style="stroke:#181818;stroke-width:1.0;"/><path d="M3531.9731,554.4431 Q3531.3921,554.7419 3530.7529,554.8913 Q3530.1138,555.0407 3529.4082,555.0407 Q3526.9014,555.0407 3525.5815,553.3889 Q3524.2617,551.737 3524.2617,548.6159 Q3524.2617,545.4865 3525.5815,543.8347 Q3526.9014,542.1828 3529.4082,542.1828 Q3530.1138,542.1828 3530.7612,542.3322 Q3531.4087,542.4816 3531.9731,542.7805 L3531.9731,545.5031 Q3531.3423,544.9221 3530.7488,544.6523 Q3530.1553,544.3825 3529.5244,544.3825 Q3528.1797,544.3825 3527.4949,545.4492 Q3526.8101,546.5158 3526.8101,548.6159 Q3526.8101,550.7077 3527.4949,551.7744 Q3528.1797,552.841 3529.5244,552.841 Q3530.1553,552.841 3530.7488,552.5712 Q3531.3423,552.3015 3531.9731,551.7204 Z " fill="#000000"/><text fill="#1F4E79" font-family="sans-serif" font-size="14" lengthAdjust="spacing" textLength="29" x="3543.5" y="553.591">Map</text><line style="stroke:#5B9BD5;stroke-width:0.5;" x1="3515.5" x2="3574.5" y1="564.3" y2="564.3"/><line style="stroke:#5B9BD5;stroke-width:0.5;" x1="3515.5" x2="3574.5" y1="572.3" y2="572.3"/></g><!--class Random--><g id="elem_Random"><rect fill="#D1E9FF" height="48" id="Random" rx="2.5" ry="2.5" style="stroke:#5B9BD5;stroke-width:0.5;" width="89" x="2182.5" y="532.3"/><ellipse cx="2197.5" cy="548.3" fill="#ADD1B2" rx="11" ry="11" style="stroke:#181818;stroke-width:1.0;"/><path d="M2199.9731,554.4431 Q2199.3921,554.7419 2198.7529,554.8913 Q2198.1138,555.0407 2197.4082,555.0407 Q2194.9014,555.0407 2193.5815,553.3889 Q2192.2617,551.737 2192.2617,548.6159 Q2192.2617,545.4865 2193.5815,543.8347 Q2194.9014,542.1828 2197.4082,542.1828 Q2198.1138,542.1828 2198.7612,542.3322 Q2199.4087,542.4816 2199.9731,542.7805 L2199.9731,545.5031 Q2199.3423,544.9221 2198.7488,544.6523 Q2198.1553,544.3825 2197.5244,544.3825 Q2196.1797,544.3825 2195.4949,545.4492 Q2194.8101,546.5158 2194.8101,548.6159 Q2194.8101,550.7077 2195.4949,551.7744 Q2196.1797,552.841 2197.5244,552.841 Q2198.1553,552.841 2198.7488,552.5712 Q2199.3423,552.3015 2199.9731,551.7204 Z " fill="#000000"/><text fill="#1F4E79" font-family="sans-serif" font-size="14" lengthAdjust="spacing" textLength="57" x="2211.5" y="553.591">Random</text><line style="stroke:#5B9BD5;stroke-width:0.5;" x1="2183.5" x2="2270.5" y1="564.3" y2="564.3"/><line style="stroke:#5B9BD5;stroke-width:0.5;" x1="2183.5" x2="2270.5" y1="572.3" y2="572.3"/></g><!--class PharmacistModel--><g id="elem_PharmacistModel"><rect fill="#D1E9FF" height="48" id="PharmacistModel" rx="2.5" ry="2.5" style="stroke:#5B9BD5;stroke-width:0.5;" width="149" x="3156.5" y="532.3"/><ellipse cx="3171.5" cy="548.3" fill="#ADD1B2" rx="11" ry="11" style="stroke:#181818;stroke-width:1.0;"/><path d="M3173.9731,554.4431 Q3173.3921,554.7419 3172.7529,554.8913 Q3172.1138,555.0407 3171.4082,555.0407 Q3168.9014,555.0407 3167.5815,553.3889 Q3166.2617,551.737 3166.2617,548.6159 Q3166.2617,545.4865 3167.5815,543.8347 Q3168.9014,542.1828 3171.4082,542.1828 Q3172.1138,542.1828 3172.7612,542.3322 Q3173.4087,542.4816 3173.9731,542.7805 L3173.9731,545.5031 Q3173.3423,544.9221 3172.7488,544.6523 Q3172.1553,544.3825 3171.5244,544.3825 Q3170.1797,544.3825 3169.4949,545.4492 Q3168.8101,546.5158 3168.8101,548.6159 Q3168.8101,550.7077 3169.4949,551.7744 Q3170.1797,552.841 3171.5244,552.841 Q3172.1553,552.841 3172.7488,552.5712 Q3173.3423,552.3015 3173.9731,551.7204 Z " fill="#000000"/><text fill="#1F4E79" font-family="sans-serif" font-size="14" lengthAdjust="spacing" textLength="117" x="3185.5" y="553.591">PharmacistModel</text><line style="stroke:#5B9BD5;stroke-width:0.5;" x1="3157.5" x2="3304.5" y1="564.3" y2="564.3"/><line style="stroke:#5B9BD5;stroke-width:0.5;" x1="3157.5" x2="3304.5" y1="572.3" y2="572.3"/></g><!--class PharmacistView--><g id="elem_PharmacistView"><rect fill="#D1E9FF" height="48" id="PharmacistView" rx="2.5" ry="2.5" style="stroke:#5B9BD5;stroke-width:0.5;" width="139" x="3340.5" y="532.3"/><ellipse cx="3355.5" cy="548.3" fill="#ADD1B2" rx="11" ry="11" style="stroke:#181818;stroke-width:1.0;"/><path d="M3357.9731,554.4431 Q3357.3921,554.7419 3356.7529,554.8913 Q3356.1138,555.0407 3355.4082,555.0407 Q3352.9014,555.0407 3351.5815,553.3889 Q3350.2617,551.737 3350.2617,548.6159 Q3350.2617,545.4865 3351.5815,543.8347 Q3352.9014,542.1828 3355.4082,542.1828 Q3356.1138,542.1828 3356.7612,542.3322 Q3357.4087,542.4816 3357.9731,542.7805 L3357.9731,545.5031 Q3357.3423,544.9221 3356.7488,544.6523 Q3356.1553,544.3825 3355.5244,544.3825 Q3354.1797,544.3825 3353.4949,545.4492 Q3352.8101,546.5158 3352.8101,548.6159 Q3352.8101,550.7077 3353.4949,551.7744 Q3354.1797,552.841 3355.5244,552.841 Q3356.1553,552.841 3356.7488,552.5712 Q3357.3423,552.3015 3357.9731,551.7204 Z " fill="#000000"/><text fill="#1F4E79" font-family="sans-serif" font-size="14" lengthAdjust="spacing" textLength="107" x="3369.5" y="553.591">PharmacistView</text><line style="stroke:#5B9BD5;stroke-width:0.5;" x1="3341.5" x2="3478.5" y1="564.3" y2="564.3"/><line style="stroke:#5B9BD5;stroke-width:0.5;" x1="3341.5" x2="3478.5" y1="572.3" y2="572.3"/></g><!--class Files--><g id="elem_Files"><rect fill="#D1E9FF" height="48" id="Files" rx="2.5" ry="2.5" style="stroke:#5B9BD5;stroke-width:0.5;" width="63" x="3610.5" y="532.3"/><ellipse cx="3625.5" cy="548.3" fill="#ADD1B2" rx="11" ry="11" style="stroke:#181818;stroke-width:1.0;"/><path d="M3627.9731,554.4431 Q3627.3921,554.7419 3626.7529,554.8913 Q3626.1138,555.0407 3625.4082,555.0407 Q3622.9014,555.0407 3621.5815,553.3889 Q3620.2617,551.737 3620.2617,548.6159 Q3620.2617,545.4865 3621.5815,543.8347 Q3622.9014,542.1828 3625.4082,542.1828 Q3626.1138,542.1828 3626.7612,542.3322 Q3627.4087,542.4816 3627.9731,542.7805 L3627.9731,545.5031 Q3627.3423,544.9221 3626.7488,544.6523 Q3626.1553,544.3825 3625.5244,544.3825 Q3624.1797,544.3825 3623.4949,545.4492 Q3622.8101,546.5158 3622.8101,548.6159 Q3622.8101,550.7077 3623.4949,551.7744 Q3624.1797,552.841 3625.5244,552.841 Q3626.1553,552.841 3626.7488,552.5712 Q3627.3423,552.3015 3627.9731,551.7204 Z " fill="#000000"/><text fill="#1F4E79" font-family="sans-serif" font-size="14" lengthAdjust="spacing" textLength="31" x="3639.5" y="553.591">Files</text><line style="stroke:#5B9BD5;stroke-width:0.5;" x1="3611.5" x2="3672.5" y1="564.3" y2="564.3"/><line style="stroke:#5B9BD5;stroke-width:0.5;" x1="3611.5" x2="3672.5" y1="572.3" y2="572.3"/></g><!--class Paths--><g id="elem_Paths"><rect fill="#D1E9FF" height="48" id="Paths" rx="2.5" ry="2.5" style="stroke:#5B9BD5;stroke-width:0.5;" width="69" x="3708.5" y="532.3"/><ellipse cx="3723.5" cy="548.3" fill="#ADD1B2" rx="11" ry="11" style="stroke:#181818;stroke-width:1.0;"/><path d="M3725.9731,554.4431 Q3725.3921,554.7419 3724.7529,554.8913 Q3724.1138,555.0407 3723.4082,555.0407 Q3720.9014,555.0407 3719.5815,553.3889 Q3718.2617,551.737 3718.2617,548.6159 Q3718.2617,545.4865 3719.5815,543.8347 Q3720.9014,542.1828 3723.4082,542.1828 Q3724.1138,542.1828 3724.7612,542.3322 Q3725.4087,542.4816 3725.9731,542.7805 L3725.9731,545.5031 Q3725.3423,544.9221 3724.7488,544.6523 Q3724.1553,544.3825 3723.5244,544.3825 Q3722.1797,544.3825 3721.4949,545.4492 Q3720.8101,546.5158 3720.8101,548.6159 Q3720.8101,550.7077 3721.4949,551.7744 Q3722.1797,552.841 3723.5244,552.841 Q3724.1553,552.841 3724.7488,552.5712 Q3725.3423,552.3015 3725.9731,551.7204 Z " fill="#000000"/><text fill="#1F4E79" font-family="sans-serif" font-size="14" lengthAdjust="spacing" textLength="37" x="3737.5" y="553.591">Paths</text><line style="stroke:#5B9BD5;stroke-width:0.5;" x1="3709.5" x2="3776.5" y1="564.3" y2="564.3"/><line style="stroke:#5B9BD5;stroke-width:0.5;" x1="3709.5" x2="3776.5" y1="572.3" y2="572.3"/></g><!--class User--><g id="elem_User"><rect fill="#D1E9FF" height="48" id="User" rx="2.5" ry="2.5" style="stroke:#5B9BD5;stroke-width:0.5;" width="63" x="3812.5" y="532.3"/><ellipse cx="3827.5" cy="548.3" fill="#ADD1B2" rx="11" ry="11" style="stroke:#181818;stroke-width:1.0;"/><path d="M3829.9731,554.4431 Q3829.3921,554.7419 3828.7529,554.8913 Q3828.1138,555.0407 3827.4082,555.0407 Q3824.9014,555.0407 3823.5815,553.3889 Q3822.2617,551.737 3822.2617,548.6159 Q3822.2617,545.4865 3823.5815,543.8347 Q3824.9014,542.1828 3827.4082,542.1828 Q3828.1138,542.1828 3828.7612,542.3322 Q3829.4087,542.4816 3829.9731,542.7805 L3829.9731,545.5031 Q3829.3423,544.9221 3828.7488,544.6523 Q3828.1553,544.3825 3827.5244,544.3825 Q3826.1797,544.3825 3825.4949,545.4492 Q3824.8101,546.5158 3824.8101,548.6159 Q3824.8101,550.7077 3825.4949,551.7744 Q3826.1797,552.841 3827.5244,552.841 Q3828.1553,552.841 3828.7488,552.5712 Q3829.3423,552.3015 3829.9731,551.7204 Z " fill="#000000"/><text fill="#1F4E79" font-family="sans-serif" font-size="14" lengthAdjust="spacing" textLength="31" x="3841.5" y="553.591">User</text><line style="stroke:#5B9BD5;stroke-width:0.5;" x1="3813.5" x2="3874.5" y1="564.3" y2="564.3"/><line style="stroke:#5B9BD5;stroke-width:0.5;" x1="3813.5" x2="3874.5" y1="572.3" y2="572.3"/></g><!--class UserView--><g id="elem_UserView"><rect fill="#D1E9FF" height="48" id="UserView" rx="2.5" ry="2.5" style="stroke:#5B9BD5;stroke-width:0.5;" width="95" x="3910.5" y="532.3"/><ellipse cx="3925.5" cy="548.3" fill="#ADD1B2" rx="11" ry="11" style="stroke:#181818;stroke-width:1.0;"/><path d="M3927.9731,554.4431 Q3927.3921,554.7419 3926.7529,554.8913 Q3926.1138,555.0407 3925.4082,555.0407 Q3922.9014,555.0407 3921.5815,553.3889 Q3920.2617,551.737 3920.2617,548.6159 Q3920.2617,545.4865 3921.5815,543.8347 Q3922.9014,542.1828 3925.4082,542.1828 Q3926.1138,542.1828 3926.7612,542.3322 Q3927.4087,542.4816 3927.9731,542.7805 L3927.9731,545.5031 Q3927.3423,544.9221 3926.7488,544.6523 Q3926.1553,544.3825 3925.5244,544.3825 Q3924.1797,544.3825 3923.4949,545.4492 Q3922.8101,546.5158 3922.8101,548.6159 Q3922.8101,550.7077 3923.4949,551.7744 Q3924.1797,552.841 3925.5244,552.841 Q3926.1553,552.841 3926.7488,552.5712 Q3927.3423,552.3015 3927.9731,551.7204 Z " fill="#000000"/><text fill="#1F4E79" font-family="sans-serif" font-size="14" lengthAdjust="spacing" textLength="63" x="3939.5" y="553.591">UserView</text><line style="stroke:#5B9BD5;stroke-width:0.5;" x1="3911.5" x2="4004.5" y1="564.3" y2="564.3"/><line style="stroke:#5B9BD5;stroke-width:0.5;" x1="3911.5" x2="4004.5" y1="572.3" y2="572.3"/></g><!--link AdministratorController to AdministratorModel--><g id="link_AdministratorController_AdministratorModel"><path codeLine="99" d="M339.16,414.48 C280.57,459.04 224.8854,501.3874 189.6154,528.2174 " fill="none" id="AdministratorController-to-AdministratorModel" style="stroke:#1F4E79;stroke-width:1.0;"/><polygon fill="#1F4E79" points="184.84,531.85,194.4248,529.5846,188.8195,528.8228,189.5813,523.2175,184.84,531.85" style="stroke:#1F4E79;stroke-width:1.0;"/><text fill="#000000" font-family="sans-serif" font-size="13" lengthAdjust="spacing" textLength="29" x="238.62" y="498.8684">uses</text></g><!--link AdministratorController to AdministratorView--><g id="link_AdministratorController_AdministratorView"><path codeLine="100" d="M431.66,414.48 C406.77,459.04 384.0164,499.7821 369.0264,526.6121 " fill="none" id="AdministratorController-to-AdministratorView" style="stroke:#1F4E79;stroke-width:1.0;"/><polygon fill="#1F4E79" points="366.1,531.85,373.9816,525.9441,368.5387,527.4851,366.9977,522.0421,366.1,531.85" style="stroke:#1F4E79;stroke-width:1.0;"/><text fill="#000000" font-family="sans-serif" font-size="13" lengthAdjust="spacing" textLength="29" x="389.52" y="498.8684">uses</text></g><!--link AdministratorController to Scanner--><g id="link_AdministratorController_Scanner"><path codeLine="101" d="M777.28,390.42 C854.99,414.87 940.08,438.77 1020,455.3 C1146.03,481.36 1182.21,458.12 1308,485.3 C1331.35,490.35 1335.69,497.07 1359,502.3 C1468.2,526.79 1500.3,505.7 1609,532.3 C1614.61,533.67 1614.7099,533.5066 1620.3899,535.4066 " fill="none" id="AdministratorController-to-Scanner" style="stroke:#1F4E79;stroke-width:1.0;"/><polygon fill="#1F4E79" points="1626.08,537.31,1618.8138,530.6615,1621.3383,535.7239,1616.2759,538.2483,1626.08,537.31" style="stroke:#1F4E79;stroke-width:1.0;"/><text fill="#000000" font-family="sans-serif" font-size="13" lengthAdjust="spacing" textLength="29" x="1360" y="498.8684">uses</text></g><!--link AdministratorController to Main--><g id="link_AdministratorController_Main"><path codeLine="102" d="M500,414.48 C500,459.04 500,499.02 500,525.85 " fill="none" id="AdministratorController-to-Main" style="stroke:#1F4E79;stroke-width:1.0;"/><polygon fill="#1F4E79" points="500,531.85,504,522.85,500,526.85,496,522.85,500,531.85" style="stroke:#1F4E79;stroke-width:1.0;"/><text fill="#000000" font-family="sans-serif" font-size="13" lengthAdjust="spacing" textLength="29" x="501" y="498.8684">uses</text></g><!--link AdministratorController to List--><g id="link_AdministratorController_List"><path codeLine="103" d="M777.27,394.27 C854.79,418.65 939.8,441.57 1020,455.3 C1207.61,487.41 1692.14,436.06 1876,485.3 C1891.56,489.47 1892.54,497.8 1908,502.3 C2071.08,549.8 2125.55,486.09 2289,532.3 C2294.74,533.92 2295.1896,533.7373 2300.7096,536.3573 " fill="none" id="AdministratorController-to-List" style="stroke:#1F4E79;stroke-width:1.0;"/><polygon fill="#1F4E79" points="2306.13,538.93,2299.7145,531.4573,2301.613,536.7861,2296.2842,538.6845,2306.13,538.93" style="stroke:#1F4E79;stroke-width:1.0;"/><text fill="#000000" font-family="sans-serif" font-size="13" lengthAdjust="spacing" textLength="29" x="1909" y="498.8684">uses</text></g><!--link DoctorController to DoctorModel--><g id="link_DoctorController_DoctorModel"><path codeLine="105" d="M1165.52,431.05 C1144.17,470.34 1126.1541,503.4777 1113.4041,526.9477 " fill="none" id="DoctorController-to-DoctorModel" style="stroke:#1F4E79;stroke-width:1.0;"/><polygon fill="#1F4E79" points="1110.54,532.22,1118.351,526.221,1112.9268,527.8265,1111.3214,522.4022,1110.54,532.22" style="stroke:#1F4E79;stroke-width:1.0;"/><text fill="#000000" font-family="sans-serif" font-size="13" lengthAdjust="spacing" textLength="29" x="1133.56" y="498.8684">uses</text></g><!--link DoctorController to DoctorView--><g id="link_DoctorController_DoctorView"><path codeLine="106" d="M1194.17,430.8 C1191.92,455.04 1193.56,479.7 1202,502.3 C1206.09,513.26 1209.5214,519.031 1217.2914,527.491 " fill="none" id="DoctorController-to-DoctorView" style="stroke:#1F4E79;stroke-width:1.0;"/><polygon fill="#1F4E79" points="1221.35,531.91,1218.2081,522.5757,1217.9678,528.2275,1212.3161,527.9872,1221.35,531.91" style="stroke:#1F4E79;stroke-width:1.0;"/><text fill="#000000" font-family="sans-serif" font-size="13" lengthAdjust="spacing" textLength="29" x="1203" y="498.8684">uses</text></g><!--link DoctorController to Scanner--><g id="link_DoctorController_Scanner"><path codeLine="107" d="M1444.82,417.17 C1516.16,460.94 1583.9654,502.5329 1626.7954,528.8029 " fill="none" id="DoctorController-to-Scanner" style="stroke:#1F4E79;stroke-width:1.0;"/><polygon fill="#1F4E79" points="1631.91,531.94,1626.3295,523.8247,1627.6479,529.3258,1622.1468,530.6441,1631.91,531.94" style="stroke:#1F4E79;stroke-width:1.0;"/><text fill="#000000" font-family="sans-serif" font-size="13" lengthAdjust="spacing" textLength="29" x="1578.34" y="498.8684">uses</text></g><!--link DoctorController to List--><g id="link_DoctorController_List"><path codeLine="108" d="M1444.69,358.75 C1546.5,390.6 1672.01,427.7 1786,455.3 C1856.74,472.43 1876.21,468.38 1947,485.3 C1973.13,491.55 1978.65,497.09 2005,502.3 C2129.51,526.92 2167.33,496.14 2289,532.3 C2294.72,534 2295.1572,533.8313 2300.6772,536.4713 " fill="none" id="DoctorController-to-List" style="stroke:#1F4E79;stroke-width:1.0;"/><polygon fill="#1F4E79" points="2306.09,539.06,2299.6966,531.5684,2301.5793,536.9027,2296.245,538.7854,2306.09,539.06" style="stroke:#1F4E79;stroke-width:1.0;"/><text fill="#000000" font-family="sans-serif" font-size="13" lengthAdjust="spacing" textLength="29" x="2006" y="498.8684">uses</text></g><!--link DoctorController to IOException--><g id="link_DoctorController_IOException"><path codeLine="109" d="M1444.75,364.96 C1546.04,398.1 1671.08,434.5 1786,455.3 C1981.06,490.61 2039.15,435.44 2231,485.3 C2248.13,489.75 2250.39,496.21 2267,502.3 C2315.38,520.04 2329.47,518.08 2379,532.3 C2384.63,533.92 2384.7317,533.9204 2390.5817,535.6704 " fill="none" id="DoctorController-to-IOException" style="stroke:#1F4E79;stroke-width:1.0;"/><polygon fill="#1F4E79" points="2396.33,537.39,2388.8539,530.9784,2391.5397,535.957,2386.5612,538.6428,2396.33,537.39" style="stroke:#1F4E79;stroke-width:1.0;"/><text fill="#000000" font-family="sans-serif" font-size="13" lengthAdjust="spacing" textLength="29" x="2268" y="498.8684">uses</text></g><!--link DoctorController to HashSet--><g id="link_DoctorController_HashSet"><path codeLine="110" d="M1338.96,430.95 C1361.78,457 1387.52,482.3 1415,502.3 C1418.89,505.13 1461.2347,521.8037 1498.4547,536.2137 " fill="none" id="DoctorController-to-HashSet" style="stroke:#1F4E79;stroke-width:1.0;"/><polygon fill="#1F4E79" points="1504.05,538.38,1497.1012,531.4004,1499.3873,536.5748,1494.2129,538.8608,1504.05,538.38" style="stroke:#1F4E79;stroke-width:1.0;"/><text fill="#000000" font-family="sans-serif" font-size="13" lengthAdjust="spacing" textLength="29" x="1416" y="498.8684">uses</text></g><!--link DoctorController to LocalDate--><g id="link_DoctorController_LocalDate"><path codeLine="111" d="M1037.11,378.13 C905.91,433.46 751.1383,498.7281 671.8383,532.1781 " fill="none" id="DoctorController-to-LocalDate" style="stroke:#1F4E79;stroke-width:1.0;"/><polygon fill="#1F4E79" points="666.31,534.51,676.1571,534.6976,670.9169,532.5667,673.0478,527.3266,666.31,534.51" style="stroke:#1F4E79;stroke-width:1.0;"/><text fill="#000000" font-family="sans-serif" font-size="13" lengthAdjust="spacing" textLength="29" x="768.8" y="498.8684">uses</text></g><!--link DoctorController to LocalDateTime--><g id="link_DoctorController_LocalDateTime"><path codeLine="112" d="M1241.59,430.84 C1247.13,456.6 1256.81,481.81 1273,502.3 C1281.86,513.51 1304.1268,523.5179 1331.9268,533.2479 " fill="none" id="DoctorController-to-LocalDateTime" style="stroke:#1F4E79;stroke-width:1.0;"/><polygon fill="#1F4E79" points="1337.59,535.23,1330.4167,528.4814,1332.8707,533.5782,1327.7739,536.0323,1337.59,535.23" style="stroke:#1F4E79;stroke-width:1.0;"/><text fill="#000000" font-family="sans-serif" font-size="13" lengthAdjust="spacing" textLength="29" x="1274" y="498.8684">uses</text></g><!--link DoctorController to LocalTime--><g id="link_DoctorController_LocalTime"><path codeLine="113" d="M1037.16,401.84 C947.27,450.22 855.1235,499.8067 800.6035,529.1467 " fill="none" id="DoctorController-to-LocalTime" style="stroke:#1F4E79;stroke-width:1.0;"/><polygon fill="#1F4E79" points="795.32,531.99,805.1408,531.2473,799.7229,529.6206,801.3497,524.2027,795.32,531.99" style="stroke:#1F4E79;stroke-width:1.0;"/><text fill="#000000" font-family="sans-serif" font-size="13" lengthAdjust="spacing" textLength="29" x="871.17" y="498.8684">uses</text></g><!--link DoctorController to DateTimeFormatter--><g id="link_DoctorController_DateTimeFormatter"><path codeLine="114" d="M1071.57,431.05 C1023.79,470.21 981.7205,504.7066 953.0605,528.1966 " fill="none" id="DoctorController-to-DateTimeFormatter" style="stroke:#1F4E79;stroke-width:1.0;"/><polygon fill="#1F4E79" points="948.42,532,957.9163,529.3886,952.2871,528.8305,952.8451,523.2012,948.42,532" style="stroke:#1F4E79;stroke-width:1.0;"/><text fill="#000000" font-family="sans-serif" font-size="13" lengthAdjust="spacing" textLength="29" x="998.57" y="498.8684">uses</text></g><!--link PatientController to PatientModel--><g id="link_PatientController_PatientModel"><path codeLine="116" d="M1803.13,391.42 C1757.11,423.34 1733.74,461.2 1770,502.3 C1805.41,542.44 1956.6,521.36 2009,532.3 C2014.67,533.48 2014.7092,533.385 2020.5392,534.885 " fill="none" id="PatientController-to-PatientModel" style="stroke:#1F4E79;stroke-width:1.0;"/><polygon fill="#1F4E79" points="2026.35,536.38,2018.6306,530.2636,2021.5077,535.1341,2016.6372,538.0113,2026.35,536.38" style="stroke:#1F4E79;stroke-width:1.0;"/><text fill="#000000" font-family="sans-serif" font-size="13" lengthAdjust="spacing" textLength="29" x="1771" y="498.8684">uses</text></g><!--link PatientController to PatientView--><g id="link_PatientController_PatientView"><path codeLine="117" d="M1803.21,369.24 C1750.78,397.26 1702.11,434.94 1671,485.3 C1667.03,491.73 1666.76,496.05 1671,502.3 C1675.81,509.4 1708.4266,522.2301 1742.6866,534.4101 " fill="none" id="PatientController-to-PatientView" style="stroke:#1F4E79;stroke-width:1.0;"/><polygon fill="#1F4E79" points="1748.34,536.42,1741.1999,529.6363,1743.6289,534.7451,1738.5201,537.1741,1748.34,536.42" style="stroke:#1F4E79;stroke-width:1.0;"/><text fill="#000000" font-family="sans-serif" font-size="13" lengthAdjust="spacing" textLength="29" x="1672" y="498.8684">uses</text></g><!--link PatientController to Feedback--><g id="link_PatientController_Feedback"><path codeLine="118" d="M1803.27,396.99 C1770.42,421.18 1741.22,450.36 1721,485.3 C1673.42,567.54 1647.76,470.66 1877,532.3 C1882.62,533.81 1882.7465,533.7381 1888.5165,535.5881 " fill="none" id="PatientController-to-Feedback" style="stroke:#1F4E79;stroke-width:1.0;"/><polygon fill="#1F4E79" points="1894.23,537.42,1886.881,530.8632,1889.4687,535.8934,1884.4385,538.4812,1894.23,537.42" style="stroke:#1F4E79;stroke-width:1.0;"/><text fill="#000000" font-family="sans-serif" font-size="13" lengthAdjust="spacing" textLength="29" x="1722" y="498.8684">uses</text></g><!--link PatientController to BufferedReader--><g id="link_PatientController_BufferedReader"><path codeLine="119" d="M2310.89,427.62 C2338.08,438.42 2365.76,447.97 2393,455.3 C2567.72,502.32 2626.7,430.06 2799,485.3 C2807.54,488.04 2842.1245,509.4443 2872.4945,528.7243 " fill="none" id="PatientController-to-BufferedReader" style="stroke:#1F4E79;stroke-width:1.0;"/><polygon fill="#1F4E79" points="2877.56,531.94,2872.1056,523.7394,2873.3388,529.2602,2867.818,530.4934,2877.56,531.94" style="stroke:#1F4E79;stroke-width:1.0;"/><text fill="#000000" font-family="sans-serif" font-size="13" lengthAdjust="spacing" textLength="29" x="2828.2" y="498.8684">uses</text></g><!--link PatientController to BufferedWriter--><g id="link_PatientController_BufferedWriter"><path codeLine="120" d="M2306.16,439.2 C2349.37,461.9 2394.42,483.88 2438,502.3 C2457.78,510.66 2499.8854,523.4259 2540.4154,535.1259 " fill="none" id="PatientController-to-BufferedWriter" style="stroke:#1F4E79;stroke-width:1.0;"/><polygon fill="#1F4E79" points="2546.18,536.79,2538.6425,530.4508,2541.3762,535.4032,2536.4237,538.1369,2546.18,536.79" style="stroke:#1F4E79;stroke-width:1.0;"/><text fill="#000000" font-family="sans-serif" font-size="13" lengthAdjust="spacing" textLength="29" x="2439" y="498.8684">uses</text></g><!--link PatientController to FileReader--><g id="link_PatientController_FileReader"><path codeLine="121" d="M2310.7,428.33 C2337.93,438.99 2365.67,448.31 2393,455.3 C2526.43,489.4 2888.82,423.71 3012,485.3 C3032.04,495.32 3044.5603,510.647 3054.5203,526.867 " fill="none" id="PatientController-to-FileReader" style="stroke:#1F4E79;stroke-width:1.0;"/><polygon fill="#1F4E79" points="3057.66,531.98,3056.3592,522.2174,3055.0436,527.7192,3049.5419,526.4036,3057.66,531.98" style="stroke:#1F4E79;stroke-width:1.0;"/><text fill="#000000" font-family="sans-serif" font-size="13" lengthAdjust="spacing" textLength="29" x="3034.7" y="498.8684">uses</text></g><!--link PatientController to FileWriter--><g id="link_PatientController_FileWriter"><path codeLine="122" d="M2310.61,424.98 C2337.97,436.37 2365.77,446.78 2393,455.3 C2475.85,481.21 2502.28,462.37 2586,485.3 C2629.87,497.32 2672.2103,514.476 2706.7603,529.886 " fill="none" id="PatientController-to-FileWriter" style="stroke:#1F4E79;stroke-width:1.0;"/><polygon fill="#1F4E79" points="2712.24,532.33,2705.6499,525.0108,2707.6736,530.2933,2702.3912,532.317,2712.24,532.33" style="stroke:#1F4E79;stroke-width:1.0;"/><text fill="#000000" font-family="sans-serif" font-size="13" lengthAdjust="spacing" textLength="29" x="2636.22" y="498.8684">uses</text></g><!--link PatientController to List--><g id="link_PatientController_List"><path codeLine="123" d="M2028.34,439.08 C2030.86,462.36 2038.39,484.57 2054,502.3 C2088.79,541.81 2238.7,516.76 2289,532.3 C2294.7,534.06 2295.1429,533.9095 2300.6529,536.5595 " fill="none" id="PatientController-to-List" style="stroke:#1F4E79;stroke-width:1.0;"/><polygon fill="#1F4E79" points="2306.06,539.16,2299.683,531.6544,2301.554,536.9929,2296.2156,538.864,2306.06,539.16" style="stroke:#1F4E79;stroke-width:1.0;"/><text fill="#000000" font-family="sans-serif" font-size="13" lengthAdjust="spacing" textLength="29" x="2055" y="498.8684">uses</text></g><!--link PatientController to Map--><g id="link_PatientController_Map"><path codeLine="124" d="M2310.6,428.74 C2337.84,439.32 2365.62,448.51 2393,455.3 C2582.92,502.39 3080.05,452.79 3273,485.3 C3298.23,489.55 3303.13,496.27 3328,502.3 C3402.14,520.26 3424.38,508.94 3497,532.3 C3502.63,534.11 3502.9677,533.9894 3508.5277,536.4894 " fill="none" id="PatientController-to-Map" style="stroke:#1F4E79;stroke-width:1.0;"/><polygon fill="#1F4E79" points="3514,538.95,3507.432,531.611,3509.4398,536.8995,3504.1512,538.9074,3514,538.95" style="stroke:#1F4E79;stroke-width:1.0;"/><text fill="#000000" font-family="sans-serif" font-size="13" lengthAdjust="spacing" textLength="29" x="3329" y="498.8684">uses</text></g><!--link PatientController to Scanner--><g id="link_PatientController_Scanner"><path codeLine="125" d="M1803.23,351.65 C1735.14,380.45 1669.3,422.9 1629,485.3 C1619.14,500.56 1625.5382,513.8317 1638.3682,527.5917 " fill="none" id="PatientController-to-Scanner" style="stroke:#1F4E79;stroke-width:1.0;"/><polygon fill="#1F4E79" points="1642.46,531.98,1639.2479,522.6696,1639.0502,528.323,1633.3968,528.1253,1642.46,531.98" style="stroke:#1F4E79;stroke-width:1.0;"/><text fill="#000000" font-family="sans-serif" font-size="13" lengthAdjust="spacing" textLength="29" x="1630" y="498.8684">uses</text></g><!--link PatientController to Random--><g id="link_PatientController_Random"><path codeLine="126" d="M1830.22,439.2 C1820.57,460 1821.97,481.42 1841,502.3 C1889.72,555.73 2094.49,516.25 2165,532.3 C2170.6,533.57 2170.66,533.3871 2176.33,535.2171 " fill="none" id="PatientController-to-Random" style="stroke:#1F4E79;stroke-width:1.0;"/><polygon fill="#1F4E79" points="2182.04,537.06,2174.7036,530.489,2177.2817,535.5243,2172.2465,538.1023,2182.04,537.06" style="stroke:#1F4E79;stroke-width:1.0;"/><text fill="#000000" font-family="sans-serif" font-size="13" lengthAdjust="spacing" textLength="29" x="1842" y="498.8684">uses</text></g><!--link PharmacistController to PharmacistModel--><g id="link_PharmacistController_PharmacistModel"><path codeLine="128" d="M2899.66,381.6 C2954.3,408.32 3016.17,435.68 3075,455.3 C3139.5,476.8 3179.69,434.61 3225,485.3 C3236.14,497.76 3237.6737,510.9604 3236.1437,526.0904 " fill="none" id="PharmacistController-to-PharmacistModel" style="stroke:#1F4E79;stroke-width:1.0;"/><polygon fill="#1F4E79" points="3235.54,532.06,3240.4252,523.5081,3236.0431,527.0854,3232.4658,522.7032,3235.54,532.06" style="stroke:#1F4E79;stroke-width:1.0;"/><text fill="#000000" font-family="sans-serif" font-size="13" lengthAdjust="spacing" textLength="29" x="3234.62" y="498.8684">uses</text></g><!--link PharmacistController to PharmacistView--><g id="link_PharmacistController_PharmacistView"><path codeLine="129" d="M2890.28,381.55 C2946.77,409.87 3012.14,438.23 3075,455.3 C3151.62,476.11 3377.27,426.85 3431,485.3 C3442.68,498 3439.0617,511.7981 3430.2517,526.7781 " fill="none" id="PharmacistController-to-PharmacistView" style="stroke:#1F4E79;stroke-width:1.0;"/><polygon fill="#1F4E79" points="3427.21,531.95,3435.2204,526.22,3429.7447,527.6401,3428.3246,522.1644,3427.21,531.95" style="stroke:#1F4E79;stroke-width:1.0;"/><text fill="#000000" font-family="sans-serif" font-size="13" lengthAdjust="spacing" textLength="29" x="3438.26" y="498.8684">uses</text></g><!--link PharmacistController to Scanner--><g id="link_PharmacistController_Scanner"><path codeLine="130" d="M2536.72,381.58 C2471.35,408.46 2397.52,435.92 2328,455.3 C2248.19,477.55 2224.66,466.35 2144,485.3 C2119.09,491.15 2114.12,497.43 2089,502.3 C1932.26,532.72 1886.75,497.13 1731,532.3 C1725.37,533.57 1725.2601,533.3767 1719.5701,535.2467 " fill="none" id="PharmacistController-to-Scanner" style="stroke:#1F4E79;stroke-width:1.0;"/><polygon fill="#1F4E79" points="1713.87,537.12,1723.669,538.1101,1718.6201,535.5589,1721.1712,530.51,1713.87,537.12" style="stroke:#1F4E79;stroke-width:1.0;"/><text fill="#000000" font-family="sans-serif" font-size="13" lengthAdjust="spacing" textLength="29" x="2145" y="498.8684">uses</text></g><!--link PharmacistController to BufferedReader--><g id="link_PharmacistController_BufferedReader"><path codeLine="131" d="M2798.3,381.39 C2821.29,413.85 2847.16,450.99 2870,485.3 C2880.26,500.71 2888.1955,513.2662 2896.6755,526.9862 " fill="none" id="PharmacistController-to-BufferedReader" style="stroke:#1F4E79;stroke-width:1.0;"/><polygon fill="#1F4E79" points="2899.83,532.09,2898.5007,522.3313,2897.2012,527.8368,2891.6956,526.5373,2899.83,532.09" style="stroke:#1F4E79;stroke-width:1.0;"/><text fill="#000000" font-family="sans-serif" font-size="13" lengthAdjust="spacing" textLength="29" x="2880.92" y="498.8684">uses</text></g><!--link PharmacistController to BufferedWriter--><g id="link_PharmacistController_BufferedWriter"><path codeLine="132" d="M2570.44,381.37 C2534.1,409.53 2500.37,444.23 2480,485.3 C2476.64,492.07 2475.77,496.04 2480,502.3 C2488.23,514.47 2511.6435,524.866 2540.4335,534.556 " fill="none" id="PharmacistController-to-BufferedWriter" style="stroke:#1F4E79;stroke-width:1.0;"/><polygon fill="#1F4E79" points="2546.12,536.47,2538.8661,529.808,2541.3812,534.875,2536.3142,537.3901,2546.12,536.47" style="stroke:#1F4E79;stroke-width:1.0;"/><text fill="#000000" font-family="sans-serif" font-size="13" lengthAdjust="spacing" textLength="29" x="2481" y="498.8684">uses</text></g><!--link PharmacistController to FileReader--><g id="link_PharmacistController_FileReader"><path codeLine="133" d="M2976.47,381.49 C3019,408.28 3057.68,442.35 3083,485.3 C3091.29,499.36 3089.7375,511.9352 3084.1975,526.2352 " fill="none" id="PharmacistController-to-FileReader" style="stroke:#1F4E79;stroke-width:1.0;"/><polygon fill="#1F4E79" points="3082.03,531.83,3089.0111,524.8828,3083.8363,527.1677,3081.5514,521.9928,3082.03,531.83" style="stroke:#1F4E79;stroke-width:1.0;"/><text fill="#000000" font-family="sans-serif" font-size="13" lengthAdjust="spacing" textLength="29" x="3088.72" y="498.8684">uses</text></g><!--link PharmacistController to FileWriter--><g id="link_PharmacistController_FileWriter"><path codeLine="134" d="M2692.25,381.57 C2680.27,420.19 2674.77,464.97 2693,502.3 C2698.72,514 2703.6458,520.2097 2713.9458,528.1397 " fill="none" id="PharmacistController-to-FileWriter" style="stroke:#1F4E79;stroke-width:1.0;"/><polygon fill="#1F4E79" points="2718.7,531.8,2714.0089,523.1401,2714.7382,528.7498,2709.1285,529.4791,2718.7,531.8" style="stroke:#1F4E79;stroke-width:1.0;"/><text fill="#000000" font-family="sans-serif" font-size="13" lengthAdjust="spacing" textLength="29" x="2694" y="498.8684">uses</text></g><!--link PharmacistController to Files--><g id="link_PharmacistController_Files"><path codeLine="135" d="M2889.33,381.45 C2946.01,409.95 3011.74,438.44 3075,455.3 C3247.69,501.33 3301.92,444.85 3476,485.3 C3524.74,496.63 3572.0645,518.3954 3604.7045,535.1854 " fill="none" id="PharmacistController-to-Files" style="stroke:#1F4E79;stroke-width:1.0;"/><polygon fill="#1F4E79" points="3610.04,537.93,3603.8665,530.2562,3605.5938,535.6429,3600.2071,537.3701,3610.04,537.93" style="stroke:#1F4E79;stroke-width:1.0;"/><text fill="#000000" font-family="sans-serif" font-size="13" lengthAdjust="spacing" textLength="29" x="3528.88" y="498.8684">uses</text></g><!--link PharmacistController to Paths--><g id="link_PharmacistController_Paths"><path codeLine="136" d="M2887.87,381.51 C2944.82,410.3 3011.1,438.95 3075,455.3 C3311.31,515.76 3389.36,415.23 3623,485.3 C3655.81,495.14 3684.229,512.153 3707.409,528.423 " fill="none" id="PharmacistController-to-Paths" style="stroke:#1F4E79;stroke-width:1.0;"/><polygon fill="#1F4E79" points="3712.32,531.87,3707.2515,523.4255,3708.2275,528.9975,3702.6555,529.9735,3712.32,531.87" style="stroke:#1F4E79;stroke-width:1.0;"/><text fill="#000000" font-family="sans-serif" font-size="13" lengthAdjust="spacing" textLength="29" x="3662.62" y="498.8684">uses</text></g><!--link PharmacistController to List--><g id="link_PharmacistController_List"><path codeLine="137" d="M2529.75,381.57 C2465.9,407.53 2394.71,434.46 2328,455.3 C2270.57,473.24 2233.53,438.28 2196,485.3 C2155.09,536.55 2185.03,489.29 2289,532.3 C2294.68,534.65 2295.2415,534.7505 2300.8715,537.5605 " fill="none" id="PharmacistController-to-List" style="stroke:#1F4E79;stroke-width:1.0;"/><polygon fill="#1F4E79" points="2306.24,540.24,2299.9736,532.6418,2301.7663,538.0071,2296.401,539.7998,2306.24,540.24" style="stroke:#1F4E79;stroke-width:1.0;"/><text fill="#000000" font-family="sans-serif" font-size="13" lengthAdjust="spacing" textLength="29" x="2197" y="498.8684">uses</text></g><!--link UserController to User--><g id="link_UserController_User"><path codeLine="139" d="M3777.05,455.7 C3786.85,465.34 3796.23,475.22 3805,485.3 C3817.15,499.25 3824.621,512.1826 3831.481,526.5926 " fill="none" id="UserController-to-User" style="stroke:#1F4E79;stroke-width:1.0;"/><polygon fill="#1F4E79" points="3834.06,532.01,3833.8031,522.1645,3831.9108,527.4955,3826.5798,525.6032,3834.06,532.01" style="stroke:#1F4E79;stroke-width:1.0;"/><text fill="#000000" font-family="sans-serif" font-size="13" lengthAdjust="spacing" textLength="29" x="3817.83" y="498.8684">uses</text></g><!--link UserController to UserView--><g id="link_UserController_UserView"><path codeLine="140" d="M3810.31,455.56 C3825.81,465.56 3841.13,475.53 3856,485.3 C3879.15,500.52 3899.9437,514.7449 3919.7637,528.5249 " fill="none" id="UserController-to-UserView" style="stroke:#1F4E79;stroke-width:1.0;"/><polygon fill="#1F4E79" points="3924.69,531.95,3919.5839,523.5282,3920.5847,529.0958,3915.0171,530.0966,3924.69,531.95" style="stroke:#1F4E79;stroke-width:1.0;"/><text fill="#000000" font-family="sans-serif" font-size="13" lengthAdjust="spacing" textLength="29" x="3882.41" y="498.8684">uses</text></g><!--link UserController to Map--><g id="link_UserController_Map"><path codeLine="141" d="M3587.13,455.53 C3586.67,471.47 3584.51,487.29 3580,502.3 C3576.83,512.86 3574.2477,518.3565 3568.0777,527.1065 " fill="none" id="UserController-to-Map" style="stroke:#1F4E79;stroke-width:1.0;"/><polygon fill="#1F4E79" points="3564.62,532.01,3573.0755,526.9598,3567.5014,527.9237,3566.5375,522.3496,3564.62,532.01" style="stroke:#1F4E79;stroke-width:1.0;"/><text fill="#000000" font-family="sans-serif" font-size="13" lengthAdjust="spacing" textLength="29" x="3585" y="498.8684">uses</text></g><!--link UserController to List--><g id="link_UserController_List"><path codeLine="142" d="M3092.71,451.79 C3086.78,453.02 3080.88,454.19 3075,455.3 C2997.63,469.93 2432.59,441.74 2367,485.3 C2351.22,495.78 2344.3899,510.1618 2340.0199,526.1718 " fill="none" id="UserController-to-List" style="stroke:#1F4E79;stroke-width:1.0;"/><polygon fill="#1F4E79" points="2338.44,531.96,2344.6687,524.3309,2339.7566,527.1365,2336.9511,522.2243,2338.44,531.96" style="stroke:#1F4E79;stroke-width:1.0;"/><text fill="#000000" font-family="sans-serif" font-size="13" lengthAdjust="spacing" textLength="29" x="2368" y="498.8684">uses</text></g><!--link UserController to BufferedReader--><g id="link_UserController_BufferedReader"><path codeLine="143" d="M3240.54,455.73 C3202.84,472.74 3164.41,488.73 3127,502.3 C3072.88,521.92 3056.83,518.28 3001,532.3 C2995.24,533.75 2995.0887,533.7669 2989.0987,535.3169 " fill="none" id="UserController-to-BufferedReader" style="stroke:#1F4E79;stroke-width:1.0;"/><polygon fill="#1F4E79" points="2983.29,536.82,2993.0051,538.4378,2988.1306,535.5674,2991.001,530.6929,2983.29,536.82" style="stroke:#1F4E79;stroke-width:1.0;"/><text fill="#000000" font-family="sans-serif" font-size="13" lengthAdjust="spacing" textLength="29" x="3163.7" y="498.8684">uses</text></g><!--link UserController to BufferedWriter--><g id="link_UserController_BufferedWriter"><path codeLine="144" d="M3092.62,451.36 C3086.72,452.72 3080.85,454.03 3075,455.3 C2937.55,485.06 2894.69,444.86 2760,485.3 C2744.58,489.93 2742.44,495.17 2728,502.3 C2707.65,512.34 2690.4666,520.3669 2670.6166,529.3469 " fill="none" id="UserController-to-BufferedWriter" style="stroke:#1F4E79;stroke-width:1.0;"/><polygon fill="#1F4E79" points="2665.15,531.82,2674.9986,531.7548,2669.7055,529.7591,2671.7012,524.466,2665.15,531.82" style="stroke:#1F4E79;stroke-width:1.0;"/><text fill="#000000" font-family="sans-serif" font-size="13" lengthAdjust="spacing" textLength="29" x="2761" y="498.8684">uses</text></g><!--link UserController to FileReader--><g id="link_UserController_FileReader"><path codeLine="145" d="M3430.2,455.62 C3410.92,473.75 3389.74,490.06 3367,502.3 C3277.01,550.76 3238.6,509.37 3139,532.3 C3133.59,533.55 3133.746,533.3464 3128.206,534.9764 " fill="none" id="UserController-to-FileReader" style="stroke:#1F4E79;stroke-width:1.0;"/><polygon fill="#1F4E79" points="3122.45,536.67,3132.2131,537.967,3127.2467,535.2587,3129.955,530.2923,3122.45,536.67" style="stroke:#1F4E79;stroke-width:1.0;"/><text fill="#000000" font-family="sans-serif" font-size="13" lengthAdjust="spacing" textLength="29" x="3393.41" y="498.8684">uses</text></g><!--link UserController to FileWriter--><g id="link_UserController_FileWriter"><path codeLine="146" d="M3092.8,449.49 C3086.83,451.45 3080.9,453.38 3075,455.3 C3031.68,469.38 3020.51,471.82 2977,485.3 C2910.26,505.97 2893.33,510.36 2827,532.3 C2821.47,534.13 2821.364,534.1292 2815.634,536.0992 " fill="none" id="UserController-to-FileWriter" style="stroke:#1F4E79;stroke-width:1.0;"/><polygon fill="#1F4E79" points="2809.96,538.05,2819.7715,538.9065,2814.6884,536.4244,2817.1705,531.3412,2809.96,538.05" style="stroke:#1F4E79;stroke-width:1.0;"/><text fill="#000000" font-family="sans-serif" font-size="13" lengthAdjust="spacing" textLength="29" x="2978" y="498.8684">uses</text></g><!--link UserController to IOException--><g id="link_UserController_IOException"><path codeLine="147" d="M3092.69,451.67 C3086.77,452.94 3080.87,454.15 3075,455.3 C2959.68,477.97 2657.36,444.89 2547,485.3 C2532.77,490.51 2507.8943,509.8149 2485.9243,528.0749 " fill="none" id="UserController-to-IOException" style="stroke:#1F4E79;stroke-width:1.0;"/><polygon fill="#1F4E79" points="2481.31,531.91,2490.7882,529.2335,2485.1553,528.7141,2485.6747,523.0811,2481.31,531.91" style="stroke:#1F4E79;stroke-width:1.0;"/><text fill="#000000" font-family="sans-serif" font-size="13" lengthAdjust="spacing" textLength="29" x="2548" y="498.8684">uses</text></g><!--link UserController to Files--><g id="link_UserController_Files"><path codeLine="148" d="M3708.22,455.66 C3713.49,465.31 3718.14,475.21 3722,485.3 C3724.7,492.36 3725.57,495.64 3722,502.3 C3716.56,512.43 3698.9551,524.0731 3679.0751,535.3831 " fill="none" id="UserController-to-Files" style="stroke:#1F4E79;stroke-width:1.0;"/><polygon fill="#1F4E79" points="3673.86,538.35,3683.6606,537.3763,3678.2059,535.8775,3679.7047,530.4229,3673.86,538.35" style="stroke:#1F4E79;stroke-width:1.0;"/><text fill="#000000" font-family="sans-serif" font-size="13" lengthAdjust="spacing" textLength="29" x="3725.36" y="498.8684">uses</text></g><!--link UserController to Paths--><g id="link_UserController_Paths"><path codeLine="149" d="M3747.12,455.73 C3753.12,465.26 3758.48,475.12 3763,485.3 C3769.67,500.31 3767.0435,512.7388 3760.2535,526.6388 " fill="none" id="UserController-to-Paths" style="stroke:#1F4E79;stroke-width:1.0;"/><polygon fill="#1F4E79" points="3757.62,532.03,3765.1644,525.6989,3759.8146,527.5374,3757.9762,522.1876,3757.62,532.03" style="stroke:#1F4E79;stroke-width:1.0;"/><text fill="#000000" font-family="sans-serif" font-size="13" lengthAdjust="spacing" textLength="29" x="3767.08" y="498.8684">uses</text></g><!--SRC=[fPVRRkCs48RlynG2Ub4lQY-mG1T5Yc817r43IHnOtkxbWX774H6AL4NARhlOT-zG1vkII4bkS-78uZS_3_zmIAit9bAIaII8E55gGQAtrqpcWYubbrdmm-h3-dwpkLCjJ6OKiWhvkBXVh3wsaOqKkW8-R7vU_tBV1kPP9izD8iNUoIi4CH2kuuXay3vNaAdt4OfbadDy3hxTtGNuzsCmfmaJJEcCQ8bZgObWQTGBfkZ7otqh6FCtQpAFaW8F4lFfG_vWS0vE-75t8NxoTJJnYKyzckyipPDaD20D0H3vf8CaHE3AXPeSZzr68-ff8fHwMlAK4krJp22HfxxkvcagcT092AryezsA4pRBx6yVi8UK0quyDZ9x-3C7TL7xNgV1IaRz_dS0s_YoqUrusUQqkgqvwUXCs-6TEQfOdjrc6loPQ8QpVWJA8iBt4E6MKqx_NAGd1w8OQCx1tRgGyWrelt65jIV2E7dXC8n-JYE9gVlQJohW4EcBRCYbzgm923geLkQjnM2MwbovSjYib0NkSet3XNQ2LUlRas5TmawnsfyYDrBhIvSfaYMzFjifr-bauXMU-lISENZ97ryg3kLWkUBFM9ob87mhZd8IHaG8N0TL_hyXZuOYLPN3Lj1WJ0R_9GfVHy1lYR3ts8YDj9G9rZSzX1u1w0kUZ5RBh6o9YQ0SZ77BMB889YWIHCNZDF0ETjPmhJH_mx0gX3h3tHK8EAyJj0ObBYzCrf58F-N9IorrtHynoH8IuVdKjqLSK6ENN80gdvlVdMIPteslZHtZw7CoqC-qN_x68jujBhxoNBfHxZJDfAYArfYCkmRr7AWgVqcOTXsexZukxdvMq7UujffjHqrJvqmrBnqdwYnGE64M1KU69QHElDLkUTZjlpxFm_3BRhyAlsws3-k1cEVvORj-EjmM51xccyrj8TNO7hRXuPPXZUNB4Lrfoy_caa-kopnjhcwte66zU0N3FADrPvE7LM-nL2dJMBkflUbhwbsWOxohgs2xM_yLGMfIpTAkXbzqWTTKpGXd_nJTg4R9iZak2QtbrLpGlUGmZhOhrH6ViO35q-2HfB-LB-i9VC9phup0DZU02mX5OoL7uKXohirO-aRoH9A1iHfY_3W5qlZUMw3BMMo5M_7_ENZPvdlWHGbHCKlB_UtxsJIRVNBzNFerm9zgDqOMgJeoiAvI8_57miHOzW7Vrsm1Ttun6Cg-uLl2FMnxUaxKCIydPm_I2rds3hA_4nM7CApv8F7kjy9C74yUM3AI7aNMaXk99x7MryKgGhgNRnFJk1jR7VJIRSFSyAQwZmsJY_nuX0pe7WXjMjpFVycO7iERYZ1Msx1ZTTkvvgQmPWr3ZlHsWtkyoygawQphpbZOrRh3sUB3CHsNVI6kiVlO7gk7GXok-48yXlVXDwghSOk9HyyuibDRMnT6mnGt64lCWxHzSs2jb7GGxTHs87uhU-3kCZjWjtqUS9IYf-1x9DK0qx3r-xy0]--></g></svg>