<?xml version="1.0" encoding="us-ascii" standalone="no"?><svg xmlns="http://www.w3.org/2000/svg" xmlns:xlink="http://www.w3.org/1999/xlink" contentStyleType="text/css" height="1047px" preserveAspectRatio="none" style="width:2746px;height:1047px;background:#FFFFFF;" version="1.1" viewBox="0 0 2746 1047" width="2746px" zoomAndPan="magnify"><defs/><g><!--cluster healthcare--><g id="cluster_healthcare"><path d="M8.5,6 L83.5,6 A3.75,3.75 0 0 1 86,8.5 L93,28.4883 L2736.5,28.4883 A2.5,2.5 0 0 1 2739,30.9883 L2739,1037.52 A2.5,2.5 0 0 1 2736.5,1040.02 L8.5,1040.02 A2.5,2.5 0 0 1 6,1037.52 L6,8.5 A2.5,2.5 0 0 1 8.5,6 " fill="none" style="stroke:#000000;stroke-width:1.5;"/><line style="stroke:#000000;stroke-width:1.5;" x1="6" x2="93" y1="28.4883" y2="28.4883"/><text fill="#000000" font-family="sans-serif" font-size="14" font-weight="bold" lengthAdjust="spacing" textLength="74" x="10" y="21.5352">healthcare</text></g><!--cluster users--><g id="cluster_users"><path d="M32.5,49 L72.5,49 A3.75,3.75 0 0 1 75,51.5 L82,71.4883 L2712.5,71.4883 A2.5,2.5 0 0 1 2715,73.9883 L2715,1013.52 A2.5,2.5 0 0 1 2712.5,1016.02 L32.5,1016.02 A2.5,2.5 0 0 1 30,1013.52 L30,51.5 A2.5,2.5 0 0 1 32.5,49 " fill="none" style="stroke:#000000;stroke-width:1.5;"/><line style="stroke:#000000;stroke-width:1.5;" x1="30" x2="82" y1="71.4883" y2="71.4883"/><text fill="#000000" font-family="sans-serif" font-size="14" font-weight="bold" lengthAdjust="spacing" textLength="39" x="34" y="64.5352">users</text></g><!--cluster view--><g id="cluster_view"><path d="M56.5,92 L90.5,92 A3.75,3.75 0 0 1 93,94.5 L100,114.4883 L2688.5,114.4883 A2.5,2.5 0 0 1 2691,116.9883 L2691,989.52 A2.5,2.5 0 0 1 2688.5,992.02 L56.5,992.02 A2.5,2.5 0 0 1 54,989.52 L54,94.5 A2.5,2.5 0 0 1 56.5,92 " fill="none" style="stroke:#000000;stroke-width:1.5;"/><line style="stroke:#000000;stroke-width:1.5;" x1="54" x2="100" y1="114.4883" y2="114.4883"/><text fill="#000000" font-family="sans-serif" font-size="14" font-weight="bold" lengthAdjust="spacing" textLength="33" x="58" y="107.5352">view</text></g><!--class AdministratorView--><g id="elem_AdministratorView"><rect codeLine="4" fill="#F1F1F1" height="724.0195" id="AdministratorView" rx="2.5" ry="2.5" style="stroke:#181818;stroke-width:0.5;" width="769" x="70.5" y="127"/><ellipse cx="387.25" cy="143" fill="#ADD1B2" rx="11" ry="11" style="stroke:#181818;stroke-width:1.0;"/><path d="M389.7231,149.1431 Q389.1421,149.4419 388.5029,149.5913 Q387.8638,149.7407 387.1582,149.7407 Q384.6514,149.7407 383.3315,148.0889 Q382.0117,146.437 382.0117,143.3159 Q382.0117,140.1865 383.3315,138.5347 Q384.6514,136.8828 387.1582,136.8828 Q387.8638,136.8828 388.5112,137.0322 Q389.1587,137.1816 389.7231,137.4805 L389.7231,140.2031 Q389.0923,139.6221 388.4988,139.3523 Q387.9053,139.0825 387.2744,139.0825 Q385.9297,139.0825 385.2449,140.1492 Q384.5601,141.2158 384.5601,143.3159 Q384.5601,145.4077 385.2449,146.4744 Q385.9297,147.541 387.2744,147.541 Q387.9053,147.541 388.4988,147.2712 Q389.0923,147.0015 389.7231,146.4204 Z " fill="#000000"/><text fill="#000000" font-family="sans-serif" font-size="14" lengthAdjust="spacing" textLength="127" x="407.75" y="148.291">AdministratorView</text><line style="stroke:#181818;stroke-width:0.5;" x1="71.5" x2="838.5" y1="159" y2="159"/><line style="stroke:#181818;stroke-width:0.5;" x1="71.5" x2="838.5" y1="167" y2="167"/><ellipse cx="81.5" cy="180.7441" fill="#84BE84" rx="3" ry="3" style="stroke:#038048;stroke-width:1.0;"/><text fill="#000000" font-family="sans-serif" font-size="14" lengthAdjust="spacing" textLength="162" x="90.5" y="184.5352">void showAdminMenu()</text><ellipse cx="81.5" cy="197.2324" fill="#84BE84" rx="3" ry="3" style="stroke:#038048;stroke-width:1.0;"/><text fill="#000000" font-family="sans-serif" font-size="14" lengthAdjust="spacing" textLength="249" x="90.5" y="201.0234">void displayStaffManagementMenu()</text><ellipse cx="81.5" cy="213.7207" fill="#84BE84" rx="3" ry="3" style="stroke:#038048;stroke-width:1.0;"/><text fill="#000000" font-family="sans-serif" font-size="14" lengthAdjust="spacing" textLength="208" x="90.5" y="217.5117">void displayViewStaffOptions()</text><ellipse cx="81.5" cy="230.209" fill="#84BE84" rx="3" ry="3" style="stroke:#038048;stroke-width:1.0;"/><text fill="#000000" font-family="sans-serif" font-size="14" lengthAdjust="spacing" textLength="180" x="90.5" y="234">void displayFilterOptions()</text><ellipse cx="81.5" cy="246.6973" fill="#84BE84" rx="3" ry="3" style="stroke:#038048;stroke-width:1.0;"/><text fill="#000000" font-family="sans-serif" font-size="14" lengthAdjust="spacing" textLength="221" x="90.5" y="250.4883">void displayRoleSelectionMenu()</text><ellipse cx="81.5" cy="263.1855" fill="#84BE84" rx="3" ry="3" style="stroke:#038048;stroke-width:1.0;"/><text fill="#000000" font-family="sans-serif" font-size="14" lengthAdjust="spacing" textLength="241" x="90.5" y="266.9766">void displayGenderSelectionMenu()</text><ellipse cx="81.5" cy="279.6738" fill="#84BE84" rx="3" ry="3" style="stroke:#038048;stroke-width:1.0;"/><text fill="#000000" font-family="sans-serif" font-size="14" lengthAdjust="spacing" textLength="256" x="90.5" y="283.4648">String getRoleFromChoice(int choice)</text><ellipse cx="81.5" cy="296.1621" fill="#84BE84" rx="3" ry="3" style="stroke:#038048;stroke-width:1.0;"/><text fill="#000000" font-family="sans-serif" font-size="14" lengthAdjust="spacing" textLength="276" x="90.5" y="299.9531">String getGenderFromChoice(int choice)</text><ellipse cx="81.5" cy="312.6504" fill="#84BE84" rx="3" ry="3" style="stroke:#038048;stroke-width:1.0;"/><text fill="#000000" font-family="sans-serif" font-size="14" lengthAdjust="spacing" textLength="157" x="90.5" y="316.4414">void promptAgeInput()</text><ellipse cx="81.5" cy="329.1387" fill="#84BE84" rx="3" ry="3" style="stroke:#038048;stroke-width:1.0;"/><text fill="#000000" font-family="sans-serif" font-size="14" lengthAdjust="spacing" textLength="603" x="90.5" y="332.9297">void displayFilteredDoctors(List&lt;String&gt; doctorData, String filterField, String filterValue)</text><ellipse cx="81.5" cy="345.627" fill="#84BE84" rx="3" ry="3" style="stroke:#038048;stroke-width:1.0;"/><text fill="#000000" font-family="sans-serif" font-size="14" lengthAdjust="spacing" textLength="566" x="90.5" y="349.418">void displayFilteredStaff(List&lt;String&gt; staffData, String filterField, String filterValue)</text><rect fill="#F24D5C" height="6" style="stroke:#C82930;stroke-width:1.0;" width="6" x="78.5" y="359.1152"/><text fill="#000000" font-family="sans-serif" font-size="14" lengthAdjust="spacing" textLength="503" x="90.5" y="365.9063">boolean matchesFilter(String[] details, String filterField, String filterValue)</text><ellipse cx="81.5" cy="378.6035" fill="#84BE84" rx="3" ry="3" style="stroke:#038048;stroke-width:1.0;"/><text fill="#000000" font-family="sans-serif" font-size="14" lengthAdjust="spacing" textLength="188" x="90.5" y="382.3945">void displayAddStaffMenu()</text><ellipse cx="81.5" cy="395.0918" fill="#84BE84" rx="3" ry="3" style="stroke:#038048;stroke-width:1.0;"/><text fill="#000000" font-family="sans-serif" font-size="14" lengthAdjust="spacing" textLength="261" x="90.5" y="398.8828">String collectStaffDetails(int staffType)</text><ellipse cx="81.5" cy="411.5801" fill="#84BE84" rx="3" ry="3" style="stroke:#038048;stroke-width:1.0;"/><text fill="#000000" font-family="sans-serif" font-size="14" lengthAdjust="spacing" textLength="209" x="90.5" y="415.3711">void displayUpdateStaffMenu()</text><ellipse cx="81.5" cy="428.0684" fill="#84BE84" rx="3" ry="3" style="stroke:#038048;stroke-width:1.0;"/><text fill="#000000" font-family="sans-serif" font-size="14" lengthAdjust="spacing" textLength="466" x="90.5" y="431.8594">String collectUpdatedStaffDetails(String[] existingFields, int idIndex)</text><ellipse cx="81.5" cy="444.5566" fill="#84BE84" rx="3" ry="3" style="stroke:#038048;stroke-width:1.0;"/><text fill="#000000" font-family="sans-serif" font-size="14" lengthAdjust="spacing" textLength="156" x="90.5" y="448.3477">String promptIDInput()</text><ellipse cx="81.5" cy="461.0449" fill="#84BE84" rx="3" ry="3" style="stroke:#038048;stroke-width:1.0;"/><text fill="#000000" font-family="sans-serif" font-size="14" lengthAdjust="spacing" textLength="151" x="90.5" y="464.8359">void promptIsDoctor()</text><ellipse cx="81.5" cy="477.5332" fill="#84BE84" rx="3" ry="3" style="stroke:#038048;stroke-width:1.0;"/><text fill="#000000" font-family="sans-serif" font-size="14" lengthAdjust="spacing" textLength="235" x="90.5" y="481.3242">void displayAppointmentOptions()</text><ellipse cx="81.5" cy="494.0215" fill="#84BE84" rx="3" ry="3" style="stroke:#038048;stroke-width:1.0;"/><text fill="#000000" font-family="sans-serif" font-size="14" lengthAdjust="spacing" textLength="270" x="90.5" y="497.8125">void displayAppointmentFilterOptions()</text><ellipse cx="81.5" cy="510.5098" fill="#84BE84" rx="3" ry="3" style="stroke:#038048;stroke-width:1.0;"/><text fill="#000000" font-family="sans-serif" font-size="14" lengthAdjust="spacing" textLength="191" x="90.5" y="514.3008">void promptPatientIDInput()</text><ellipse cx="81.5" cy="526.998" fill="#84BE84" rx="3" ry="3" style="stroke:#038048;stroke-width:1.0;"/><text fill="#000000" font-family="sans-serif" font-size="14" lengthAdjust="spacing" textLength="190" x="90.5" y="530.7891">void promptDoctorIDInput()</text><ellipse cx="81.5" cy="543.4863" fill="#84BE84" rx="3" ry="3" style="stroke:#038048;stroke-width:1.0;"/><text fill="#000000" font-family="sans-serif" font-size="14" lengthAdjust="spacing" textLength="161" x="90.5" y="547.2773">void promptDateInput()</text><ellipse cx="81.5" cy="559.9746" fill="#84BE84" rx="3" ry="3" style="stroke:#038048;stroke-width:1.0;"/><text fill="#000000" font-family="sans-serif" font-size="14" lengthAdjust="spacing" textLength="222" x="90.5" y="563.7656">void displayStatusFilterOptions()</text><ellipse cx="81.5" cy="576.4629" fill="#84BE84" rx="3" ry="3" style="stroke:#038048;stroke-width:1.0;"/><text fill="#000000" font-family="sans-serif" font-size="14" lengthAdjust="spacing" textLength="220" x="90.5" y="580.2539">void displayStatusTypeOptions()</text><ellipse cx="81.5" cy="592.9512" fill="#84BE84" rx="3" ry="3" style="stroke:#038048;stroke-width:1.0;"/><text fill="#000000" font-family="sans-serif" font-size="14" lengthAdjust="spacing" textLength="268" x="90.5" y="596.7422">String getStatusFromChoice(int choice)</text><ellipse cx="81.5" cy="609.4395" fill="#84BE84" rx="3" ry="3" style="stroke:#038048;stroke-width:1.0;"/><text fill="#000000" font-family="sans-serif" font-size="14" lengthAdjust="spacing" textLength="743" x="90.5" y="613.2305">void displayAppointments(List&lt;String&gt; appointments, String filterField, String filterValue, String statusFilter)</text><rect fill="#F24D5C" height="6" style="stroke:#C82930;stroke-width:1.0;" width="6" x="78.5" y="622.9277"/><text fill="#000000" font-family="sans-serif" font-size="14" lengthAdjust="spacing" textLength="722" x="90.5" y="629.7188">boolean matchesAppointmentFilter(String[] details, String filterField, String filterValue, String statusFilter)</text><ellipse cx="81.5" cy="642.416" fill="#84BE84" rx="3" ry="3" style="stroke:#038048;stroke-width:1.0;"/><text fill="#000000" font-family="sans-serif" font-size="14" lengthAdjust="spacing" textLength="145" x="90.5" y="646.207">void inventoryMenu()</text><ellipse cx="81.5" cy="658.9043" fill="#84BE84" rx="3" ry="3" style="stroke:#038048;stroke-width:1.0;"/><text fill="#000000" font-family="sans-serif" font-size="14" lengthAdjust="spacing" textLength="309" x="90.5" y="662.6953">void displayInventory(List&lt;String&gt; inventory)</text><ellipse cx="81.5" cy="675.3926" fill="#84BE84" rx="3" ry="3" style="stroke:#038048;stroke-width:1.0;"/><text fill="#000000" font-family="sans-serif" font-size="14" lengthAdjust="spacing" textLength="319" x="90.5" y="679.1836">String collectMedicineDetails(Scanner scanner)</text><ellipse cx="81.5" cy="691.8809" fill="#84BE84" rx="3" ry="3" style="stroke:#038048;stroke-width:1.0;"/><text fill="#000000" font-family="sans-serif" font-size="14" lengthAdjust="spacing" textLength="194" x="90.5" y="695.6719">void promptMedicineName()</text><ellipse cx="81.5" cy="708.3691" fill="#84BE84" rx="3" ry="3" style="stroke:#038048;stroke-width:1.0;"/><text fill="#000000" font-family="sans-serif" font-size="14" lengthAdjust="spacing" textLength="189" x="90.5" y="712.1602">void promptStockQuantity()</text><ellipse cx="81.5" cy="724.8574" fill="#84BE84" rx="3" ry="3" style="stroke:#038048;stroke-width:1.0;"/><text fill="#000000" font-family="sans-serif" font-size="14" lengthAdjust="spacing" textLength="219" x="90.5" y="728.6484">void promptLowStockIndicator()</text><ellipse cx="81.5" cy="741.3457" fill="#84BE84" rx="3" ry="3" style="stroke:#038048;stroke-width:1.0;"/><text fill="#000000" font-family="sans-serif" font-size="14" lengthAdjust="spacing" textLength="195" x="90.5" y="745.1367">void promptIncomingStock()</text><ellipse cx="81.5" cy="757.834" fill="#84BE84" rx="3" ry="3" style="stroke:#038048;stroke-width:1.0;"/><text fill="#000000" font-family="sans-serif" font-size="14" lengthAdjust="spacing" textLength="231" x="90.5" y="761.625">void displayReplenishmentMenu()</text><ellipse cx="81.5" cy="774.3223" fill="#84BE84" rx="3" ry="3" style="stroke:#038048;stroke-width:1.0;"/><text fill="#000000" font-family="sans-serif" font-size="14" lengthAdjust="spacing" textLength="404" x="90.5" y="778.1133">void displayReplenishmentRequests(List&lt;String&gt; requests)</text><ellipse cx="81.5" cy="790.8105" fill="#84BE84" rx="3" ry="3" style="stroke:#038048;stroke-width:1.0;"/><text fill="#000000" font-family="sans-serif" font-size="14" lengthAdjust="spacing" textLength="308" x="90.5" y="794.6016">void displaySuccessMessage(String message)</text><ellipse cx="81.5" cy="807.2988" fill="#84BE84" rx="3" ry="3" style="stroke:#038048;stroke-width:1.0;"/><text fill="#000000" font-family="sans-serif" font-size="14" lengthAdjust="spacing" textLength="290" x="90.5" y="811.0898">void displayErrorMessage(String message)</text><ellipse cx="81.5" cy="823.7871" fill="#84BE84" rx="3" ry="3" style="stroke:#038048;stroke-width:1.0;"/><text fill="#000000" font-family="sans-serif" font-size="14" lengthAdjust="spacing" textLength="273" x="90.5" y="827.5781">void displayExitMessage(String context)</text><ellipse cx="81.5" cy="840.2754" fill="#84BE84" rx="3" ry="3" style="stroke:#038048;stroke-width:1.0;"/><text fill="#000000" font-family="sans-serif" font-size="14" lengthAdjust="spacing" textLength="183" x="90.5" y="844.0664">void displayInvalidOption()</text></g><!--class DoctorView--><g id="elem_DoctorView"><rect codeLine="48" fill="#F1F1F1" height="130.4414" id="DoctorView" rx="2.5" ry="2.5" style="stroke:#181818;stroke-width:0.5;" width="442" x="875" y="423.79"/><ellipse cx="1052.75" cy="439.79" fill="#ADD1B2" rx="11" ry="11" style="stroke:#181818;stroke-width:1.0;"/><path d="M1055.2231,445.9331 Q1054.6421,446.2319 1054.0029,446.3813 Q1053.3638,446.5307 1052.6582,446.5307 Q1050.1514,446.5307 1048.8315,444.8789 Q1047.5117,443.227 1047.5117,440.1059 Q1047.5117,436.9765 1048.8315,435.3247 Q1050.1514,433.6728 1052.6582,433.6728 Q1053.3638,433.6728 1054.0112,433.8222 Q1054.6587,433.9716 1055.2231,434.2705 L1055.2231,436.9931 Q1054.5923,436.4121 1053.9988,436.1423 Q1053.4053,435.8725 1052.7744,435.8725 Q1051.4297,435.8725 1050.7449,436.9392 Q1050.0601,438.0058 1050.0601,440.1059 Q1050.0601,442.1977 1050.7449,443.2644 Q1051.4297,444.331 1052.7744,444.331 Q1053.4053,444.331 1053.9988,444.0612 Q1054.5923,443.7915 1055.2231,443.2104 Z " fill="#000000"/><text fill="#000000" font-family="sans-serif" font-size="14" lengthAdjust="spacing" textLength="78" x="1073.25" y="445.081">DoctorView</text><line style="stroke:#181818;stroke-width:0.5;" x1="876" x2="1316" y1="455.79" y2="455.79"/><line style="stroke:#181818;stroke-width:0.5;" x1="876" x2="1316" y1="463.79" y2="463.79"/><ellipse cx="886" cy="477.5341" fill="#84BE84" rx="3" ry="3" style="stroke:#038048;stroke-width:1.0;"/><text fill="#000000" font-family="sans-serif" font-size="14" lengthAdjust="spacing" textLength="163" x="895" y="481.3252">void showDoctorMenu()</text><ellipse cx="886" cy="494.0224" fill="#84BE84" rx="3" ry="3" style="stroke:#038048;stroke-width:1.0;"/><text fill="#000000" font-family="sans-serif" font-size="14" lengthAdjust="spacing" textLength="255" x="895" y="497.8134">void displayMessage(String message)</text><ellipse cx="886" cy="510.5107" fill="#84BE84" rx="3" ry="3" style="stroke:#038048;stroke-width:1.0;"/><text fill="#000000" font-family="sans-serif" font-size="14" lengthAdjust="spacing" textLength="224" x="895" y="514.3017">void displayList(List&lt;String&gt; list)</text><ellipse cx="886" cy="526.999" fill="#84BE84" rx="3" ry="3" style="stroke:#038048;stroke-width:1.0;"/><text fill="#000000" font-family="sans-serif" font-size="14" lengthAdjust="spacing" textLength="284" x="895" y="530.79">void displayPatientDetails(String[] details)</text><ellipse cx="886" cy="543.4873" fill="#84BE84" rx="3" ry="3" style="stroke:#038048;stroke-width:1.0;"/><text fill="#000000" font-family="sans-serif" font-size="14" lengthAdjust="spacing" textLength="416" x="895" y="547.2783">void displayAppointmentDetails(String[] appointmentDetails)</text></g><!--class PatientView--><g id="elem_PatientView"><rect codeLine="56" fill="#F1F1F1" height="163.418" id="PatientView" rx="2.5" ry="2.5" style="stroke:#181818;stroke-width:0.5;" width="351" x="1352.5" y="407.3"/><ellipse cx="1484.25" cy="423.3" fill="#ADD1B2" rx="11" ry="11" style="stroke:#181818;stroke-width:1.0;"/><path d="M1486.7231,429.4431 Q1486.1421,429.7419 1485.5029,429.8913 Q1484.8638,430.0407 1484.1582,430.0407 Q1481.6514,430.0407 1480.3315,428.3889 Q1479.0117,426.737 1479.0117,423.6159 Q1479.0117,420.4865 1480.3315,418.8347 Q1481.6514,417.1828 1484.1582,417.1828 Q1484.8638,417.1828 1485.5112,417.3322 Q1486.1587,417.4816 1486.7231,417.7805 L1486.7231,420.5031 Q1486.0923,419.9221 1485.4988,419.6523 Q1484.9053,419.3825 1484.2744,419.3825 Q1482.9297,419.3825 1482.2449,420.4492 Q1481.5601,421.5158 1481.5601,423.6159 Q1481.5601,425.7077 1482.2449,426.7744 Q1482.9297,427.841 1484.2744,427.841 Q1484.9053,427.841 1485.4988,427.5712 Q1486.0923,427.3015 1486.7231,426.7204 Z " fill="#000000"/><text fill="#000000" font-family="sans-serif" font-size="14" lengthAdjust="spacing" textLength="79" x="1504.75" y="428.591">PatientView</text><line style="stroke:#181818;stroke-width:0.5;" x1="1353.5" x2="1702.5" y1="439.3" y2="439.3"/><line style="stroke:#181818;stroke-width:0.5;" x1="1353.5" x2="1702.5" y1="447.3" y2="447.3"/><ellipse cx="1363.5" cy="461.0441" fill="#84BE84" rx="3" ry="3" style="stroke:#038048;stroke-width:1.0;"/><text fill="#000000" font-family="sans-serif" font-size="14" lengthAdjust="spacing" textLength="176" x="1372.5" y="464.8352">void displayPatientMenu()</text><ellipse cx="1363.5" cy="477.5324" fill="#84BE84" rx="3" ry="3" style="stroke:#038048;stroke-width:1.0;"/><text fill="#000000" font-family="sans-serif" font-size="14" lengthAdjust="spacing" textLength="325" x="1372.5" y="481.3234">void displayPatientDetails(PatientModel patient)</text><ellipse cx="1363.5" cy="494.0207" fill="#84BE84" rx="3" ry="3" style="stroke:#038048;stroke-width:1.0;"/><text fill="#000000" font-family="sans-serif" font-size="14" lengthAdjust="spacing" textLength="221" x="1372.5" y="497.8117">void displayUpdateInfoOptions()</text><ellipse cx="1363.5" cy="510.509" fill="#84BE84" rx="3" ry="3" style="stroke:#038048;stroke-width:1.0;"/><text fill="#000000" font-family="sans-serif" font-size="14" lengthAdjust="spacing" textLength="242" x="1372.5" y="514.3">void displayInvalidChoiceMessage()</text><ellipse cx="1363.5" cy="526.9973" fill="#84BE84" rx="3" ry="3" style="stroke:#038048;stroke-width:1.0;"/><text fill="#000000" font-family="sans-serif" font-size="14" lengthAdjust="spacing" textLength="198" x="1372.5" y="530.7883">void displayLogoutMessage()</text><ellipse cx="1363.5" cy="543.4855" fill="#84BE84" rx="3" ry="3" style="stroke:#038048;stroke-width:1.0;"/><text fill="#000000" font-family="sans-serif" font-size="14" lengthAdjust="spacing" textLength="154" x="1372.5" y="547.2766">void promptForEmail()</text><ellipse cx="1363.5" cy="559.9738" fill="#84BE84" rx="3" ry="3" style="stroke:#038048;stroke-width:1.0;"/><text fill="#000000" font-family="sans-serif" font-size="14" lengthAdjust="spacing" textLength="225" x="1372.5" y="563.7648">void promptForContactNumber()</text></g><!--class PharmacistView--><g id="elem_PharmacistView"><rect codeLine="66" fill="#F1F1F1" height="130.4414" id="PharmacistView" rx="2.5" ry="2.5" style="stroke:#181818;stroke-width:0.5;" width="448" x="1738" y="423.79"/><ellipse cx="1904.25" cy="439.79" fill="#ADD1B2" rx="11" ry="11" style="stroke:#181818;stroke-width:1.0;"/><path d="M1906.7231,445.9331 Q1906.1421,446.2319 1905.5029,446.3813 Q1904.8638,446.5307 1904.1582,446.5307 Q1901.6514,446.5307 1900.3315,444.8789 Q1899.0117,443.227 1899.0117,440.1059 Q1899.0117,436.9765 1900.3315,435.3247 Q1901.6514,433.6728 1904.1582,433.6728 Q1904.8638,433.6728 1905.5112,433.8222 Q1906.1587,433.9716 1906.7231,434.2705 L1906.7231,436.9931 Q1906.0923,436.4121 1905.4988,436.1423 Q1904.9053,435.8725 1904.2744,435.8725 Q1902.9297,435.8725 1902.2449,436.9392 Q1901.5601,438.0058 1901.5601,440.1059 Q1901.5601,442.1977 1902.2449,443.2644 Q1902.9297,444.331 1904.2744,444.331 Q1904.9053,444.331 1905.4988,444.0612 Q1906.0923,443.7915 1906.7231,443.2104 Z " fill="#000000"/><text fill="#000000" font-family="sans-serif" font-size="14" lengthAdjust="spacing" textLength="107" x="1924.75" y="445.081">PharmacistView</text><line style="stroke:#181818;stroke-width:0.5;" x1="1739" x2="2185" y1="455.79" y2="455.79"/><line style="stroke:#181818;stroke-width:0.5;" x1="1739" x2="2185" y1="463.79" y2="463.79"/><ellipse cx="1749" cy="477.5341" fill="#84BE84" rx="3" ry="3" style="stroke:#038048;stroke-width:1.0;"/><text fill="#000000" font-family="sans-serif" font-size="14" lengthAdjust="spacing" textLength="204" x="1758" y="481.3252">void displayPharmacistMenu()</text><ellipse cx="1749" cy="494.0224" fill="#84BE84" rx="3" ry="3" style="stroke:#038048;stroke-width:1.0;"/><text fill="#000000" font-family="sans-serif" font-size="14" lengthAdjust="spacing" textLength="255" x="1758" y="497.8134">void displayMessage(String message)</text><ellipse cx="1749" cy="510.5107" fill="#84BE84" rx="3" ry="3" style="stroke:#038048;stroke-width:1.0;"/><text fill="#000000" font-family="sans-serif" font-size="14" lengthAdjust="spacing" textLength="265" x="1758" y="514.3017">void displayError(String errorMessage)</text><ellipse cx="1749" cy="526.999" fill="#84BE84" rx="3" ry="3" style="stroke:#038048;stroke-width:1.0;"/><text fill="#000000" font-family="sans-serif" font-size="14" lengthAdjust="spacing" textLength="422" x="1758" y="530.79">void displayAppointmentOutcome(String appointmentDetails)</text><ellipse cx="1749" cy="543.4873" fill="#84BE84" rx="3" ry="3" style="stroke:#038048;stroke-width:1.0;"/><text fill="#000000" font-family="sans-serif" font-size="14" lengthAdjust="spacing" textLength="385" x="1758" y="547.2783">void displayMedicationInventory(String inventoryDetails)</text></g><!--class UserView--><g id="elem_UserView"><rect codeLine="74" fill="#F1F1F1" height="80.9766" id="UserView" rx="2.5" ry="2.5" style="stroke:#181818;stroke-width:0.5;" width="453" x="2221.5" y="448.52"/><ellipse cx="2412.25" cy="464.52" fill="#ADD1B2" rx="11" ry="11" style="stroke:#181818;stroke-width:1.0;"/><path d="M2414.7231,470.6631 Q2414.1421,470.9619 2413.5029,471.1113 Q2412.8638,471.2607 2412.1582,471.2607 Q2409.6514,471.2607 2408.3315,469.6089 Q2407.0117,467.957 2407.0117,464.8359 Q2407.0117,461.7065 2408.3315,460.0547 Q2409.6514,458.4028 2412.1582,458.4028 Q2412.8638,458.4028 2413.5112,458.5522 Q2414.1587,458.7016 2414.7231,459.0005 L2414.7231,461.7231 Q2414.0923,461.1421 2413.4988,460.8723 Q2412.9053,460.6025 2412.2744,460.6025 Q2410.9297,460.6025 2410.2449,461.6692 Q2409.5601,462.7358 2409.5601,464.8359 Q2409.5601,466.9277 2410.2449,467.9944 Q2410.9297,469.061 2412.2744,469.061 Q2412.9053,469.061 2413.4988,468.7912 Q2414.0923,468.5215 2414.7231,467.9404 Z " fill="#000000"/><text fill="#000000" font-family="sans-serif" font-size="14" lengthAdjust="spacing" textLength="63" x="2432.75" y="469.811">UserView</text><line style="stroke:#181818;stroke-width:0.5;" x1="2222.5" x2="2673.5" y1="480.52" y2="480.52"/><line style="stroke:#181818;stroke-width:0.5;" x1="2222.5" x2="2673.5" y1="488.52" y2="488.52"/><ellipse cx="2232.5" cy="502.2641" fill="#84BE84" rx="3" ry="3" style="stroke:#038048;stroke-width:1.0;"/><text fill="#000000" font-family="sans-serif" font-size="14" lengthAdjust="spacing" textLength="255" x="2241.5" y="506.0552">void displayMessage(String message)</text><ellipse cx="2232.5" cy="518.7524" fill="#84BE84" rx="3" ry="3" style="stroke:#038048;stroke-width:1.0;"/><text fill="#000000" font-family="sans-serif" font-size="14" lengthAdjust="spacing" textLength="427" x="2241.5" y="522.5434">void displayUserDetails(String userId, String name, String role)</text></g><!--class Scanner--><g id="elem_Scanner"><rect fill="#F1F1F1" height="48" id="Scanner" rx="2.5" ry="2.5" style="stroke:#181818;stroke-width:0.5;" width="87" x="411.5" y="928.02"/><ellipse cx="426.5" cy="944.02" fill="#ADD1B2" rx="11" ry="11" style="stroke:#181818;stroke-width:1.0;"/><path d="M428.9731,950.1631 Q428.3921,950.4619 427.7529,950.6113 Q427.1138,950.7607 426.4082,950.7607 Q423.9014,950.7607 422.5815,949.1089 Q421.2617,947.457 421.2617,944.3359 Q421.2617,941.2065 422.5815,939.5547 Q423.9014,937.9028 426.4082,937.9028 Q427.1138,937.9028 427.7612,938.0522 Q428.4087,938.2016 428.9731,938.5005 L428.9731,941.2231 Q428.3423,940.6421 427.7488,940.3723 Q427.1553,940.1025 426.5244,940.1025 Q425.1797,940.1025 424.4949,941.1692 Q423.8101,942.2358 423.8101,944.3359 Q423.8101,946.4277 424.4949,947.4944 Q425.1797,948.561 426.5244,948.561 Q427.1553,948.561 427.7488,948.2912 Q428.3423,948.0215 428.9731,947.4404 Z " fill="#000000"/><text fill="#000000" font-family="sans-serif" font-size="14" lengthAdjust="spacing" textLength="55" x="440.5" y="949.311">Scanner</text><line style="stroke:#181818;stroke-width:0.5;" x1="412.5" x2="497.5" y1="960.02" y2="960.02"/><line style="stroke:#181818;stroke-width:0.5;" x1="412.5" x2="497.5" y1="968.02" y2="968.02"/></g><!--class List--><g id="elem_List"><rect fill="#F1F1F1" height="48" id="List" rx="2.5" ry="2.5" style="stroke:#181818;stroke-width:0.5;" width="55" x="828.5" y="928.02"/><ellipse cx="843.5" cy="944.02" fill="#ADD1B2" rx="11" ry="11" style="stroke:#181818;stroke-width:1.0;"/><path d="M845.9731,950.1631 Q845.3921,950.4619 844.7529,950.6113 Q844.1138,950.7607 843.4082,950.7607 Q840.9014,950.7607 839.5815,949.1089 Q838.2617,947.457 838.2617,944.3359 Q838.2617,941.2065 839.5815,939.5547 Q840.9014,937.9028 843.4082,937.9028 Q844.1138,937.9028 844.7612,938.0522 Q845.4087,938.2016 845.9731,938.5005 L845.9731,941.2231 Q845.3423,940.6421 844.7488,940.3723 Q844.1553,940.1025 843.5244,940.1025 Q842.1797,940.1025 841.4949,941.1692 Q840.8101,942.2358 840.8101,944.3359 Q840.8101,946.4277 841.4949,947.4944 Q842.1797,948.561 843.5244,948.561 Q844.1553,948.561 844.7488,948.2912 Q845.3423,948.0215 845.9731,947.4404 Z " fill="#000000"/><text fill="#000000" font-family="sans-serif" font-size="14" lengthAdjust="spacing" textLength="23" x="857.5" y="949.311">List</text><line style="stroke:#181818;stroke-width:0.5;" x1="829.5" x2="882.5" y1="960.02" y2="960.02"/><line style="stroke:#181818;stroke-width:0.5;" x1="829.5" x2="882.5" y1="968.02" y2="968.02"/></g><!--class PatientModel--><g id="elem_PatientModel"><rect fill="#F1F1F1" height="48" id="PatientModel" rx="2.5" ry="2.5" style="stroke:#181818;stroke-width:0.5;" width="121" x="1467.5" y="928.02"/><ellipse cx="1482.5" cy="944.02" fill="#ADD1B2" rx="11" ry="11" style="stroke:#181818;stroke-width:1.0;"/><path d="M1484.9731,950.1631 Q1484.3921,950.4619 1483.7529,950.6113 Q1483.1138,950.7607 1482.4082,950.7607 Q1479.9014,950.7607 1478.5815,949.1089 Q1477.2617,947.457 1477.2617,944.3359 Q1477.2617,941.2065 1478.5815,939.5547 Q1479.9014,937.9028 1482.4082,937.9028 Q1483.1138,937.9028 1483.7612,938.0522 Q1484.4087,938.2016 1484.9731,938.5005 L1484.9731,941.2231 Q1484.3423,940.6421 1483.7488,940.3723 Q1483.1553,940.1025 1482.5244,940.1025 Q1481.1797,940.1025 1480.4949,941.1692 Q1479.8101,942.2358 1479.8101,944.3359 Q1479.8101,946.4277 1480.4949,947.4944 Q1481.1797,948.561 1482.5244,948.561 Q1483.1553,948.561 1483.7488,948.2912 Q1484.3423,948.0215 1484.9731,947.4404 Z " fill="#000000"/><text fill="#000000" font-family="sans-serif" font-size="14" lengthAdjust="spacing" textLength="89" x="1496.5" y="949.311">PatientModel</text><line style="stroke:#181818;stroke-width:0.5;" x1="1468.5" x2="1587.5" y1="960.02" y2="960.02"/><line style="stroke:#181818;stroke-width:0.5;" x1="1468.5" x2="1587.5" y1="968.02" y2="968.02"/></g><!--link AdministratorView to Scanner--><g id="link_AdministratorView_Scanner"><path codeLine="79" d="M455,851.27 C455,883.09 455,903.94 455,921.74 " fill="none" id="AdministratorView-to-Scanner" style="stroke:#181818;stroke-width:1.0;"/><polygon fill="#181818" points="455,927.74,459,918.74,455,922.74,451,918.74,455,927.74" style="stroke:#181818;stroke-width:1.0;"/><text fill="#000000" font-family="sans-serif" font-size="13" lengthAdjust="spacing" textLength="29" x="456" y="894.5884">uses</text></g><!--link AdministratorView to List--><g id="link_AdministratorView_List"><path codeLine="80" d="M769.24,851.27 C796.91,883.09 816.3212,905.4138 831.8112,923.2138 " fill="none" id="AdministratorView-to-List" style="stroke:#181818;stroke-width:1.0;"/><polygon fill="#181818" points="835.75,927.74,832.8593,918.3249,832.4677,923.9682,826.8244,923.5766,835.75,927.74" style="stroke:#181818;stroke-width:1.0;"/><text fill="#000000" font-family="sans-serif" font-size="13" lengthAdjust="spacing" textLength="29" x="807.31" y="894.5884">uses</text></g><!--link DoctorView to List--><g id="link_DoctorView_List"><path codeLine="81" d="M1062.38,554.6 C1008.06,658.92 906.3005,854.3879 870.8605,922.4679 " fill="none" id="DoctorView-to-List" style="stroke:#181818;stroke-width:1.0;"/><polygon fill="#181818" points="868.09,927.79,875.7938,921.6539,870.3987,923.3549,868.6977,917.9599,868.09,927.79" style="stroke:#181818;stroke-width:1.0;"/><text fill="#000000" font-family="sans-serif" font-size="13" lengthAdjust="spacing" textLength="29" x="891.84" y="894.5884">uses</text></g><!--link PatientView to PatientModel--><g id="link_PatientView_PatientModel"><path codeLine="82" d="M1528,571.1 C1528,678.84 1528,857.1 1528,921.76 " fill="none" id="PatientView-to-PatientModel" style="stroke:#181818;stroke-width:1.0;"/><polygon fill="#181818" points="1528,927.76,1532,918.76,1528,922.76,1524,918.76,1528,927.76" style="stroke:#181818;stroke-width:1.0;"/><text fill="#000000" font-family="sans-serif" font-size="13" lengthAdjust="spacing" textLength="29" x="1529" y="894.5884">uses</text></g><!--SRC=[hLTVJzim47_dK_YnqmOVO9gGAagdIfGnEdYPzc3iQsFXs9djGAk9xxwBxOIaZPF2LWdH-7xtntVtksiAoXxf1aW6LBgCKGDdfGLZpvu4F9C_9oS4FqnIQycKvq89wmnrsjm7COcVZ-H92qviffyzR0cgd7pO5tDX2qbtAqVNwoLLw3S7vGQnbH-F_rOuePLD0kT2EZ1Zg5ijOGKIM0KRTFmL50UJngwS4Mf3Dk0gctEZyujC2mOJeHnX_ci_F1WULV2n58Wgt7G32rMKRkJkm6UQOMdiv0ghz2LuF2VS7yweev_gADOUFnSW-TxPFPKbZBdnzUWwiTNH-toSaWUD6QIAvDIn36nmCmawFtyH3euAQVyr-YaFWQSgoRIiQkqni-3IbyPVxSUkI1g-ApXrS8pjWEGT5yqrOOi9nQ_-OdZRohVW2soMRO_5q1cBMQ8nejY6ZaWsphGeDFgfM3Z6d1PqX6h1zmrr0h4Z4ORuna2Oj642O4PTQOyR0G5R5RGF-ShJQFCedXxcQ8-4j2Kvjf6RCzkwtG1l3YhqRWgDU8wN5ke9NMcp6voZYnhLJKYZd6RB4hXWGa7354QL0aDi-9zebbhhckQGQgYLq-pnUqcL4swN0btfPuz31Wf6UraKMQQOnfMtyUZqve520gxFR7JbTP2tyBi4kzzE9fucUxna3AnTuXyksTW790-FAQLBOxHveyfMk3qDffM3hHje1oe53zIBANXf_ye84o7zyoB81nFujZjKYUrcL-932Xt7si7qZWmxOZ8SgD83MKzQej_-l7HZ6ypDNlorYkOWIH4UXlVSGgtrs8YDHGvpiwv6ClzweqkNH0MEpRMvp37Y0Va5DXvbxhhC7y3qTTPDHarE6HPtE8iDx3yscUTMZOKMqOxPpAN30TDuIhLBNuX-Sc6fNeTmDDACttJ7tU5hm62YtfQ1obotzKdreh5uNK0A9tRpO72rTO8wVFiuFJqdzKxuN1cp0y2Au6rKQypqYTjqg-GTdaJSory0]--></g></svg>