<?xml version="1.0" encoding="us-ascii" standalone="no"?><svg xmlns="http://www.w3.org/2000/svg" xmlns:xlink="http://www.w3.org/1999/xlink" contentStyleType="text/css" height="864px" preserveAspectRatio="none" style="width:2671px;height:864px;background:#FFFFFF;" version="1.1" viewBox="0 0 2671 864" width="2671px" zoomAndPan="magnify"><defs/><g><!--cluster healthcare--><g id="cluster_healthcare"><path d="M8.5,6 L83.5,6 A3.75,3.75 0 0 1 86,8.5 L93,28.4883 L2661.5,28.4883 A2.5,2.5 0 0 1 2664,30.9883 L2664,855.1 A2.5,2.5 0 0 1 2661.5,857.6 L8.5,857.6 A2.5,2.5 0 0 1 6,855.1 L6,8.5 A2.5,2.5 0 0 1 8.5,6 " fill="none" style="stroke:#000000;stroke-width:1.5;"/><line style="stroke:#000000;stroke-width:1.5;" x1="6" x2="93" y1="28.4883" y2="28.4883"/><text fill="#000000" font-family="sans-serif" font-size="14" font-weight="bold" lengthAdjust="spacing" textLength="74" x="10" y="21.5352">healthcare</text></g><!--cluster records--><g id="cluster_records"><path d="M32.5,49 L86.5,49 A3.75,3.75 0 0 1 89,51.5 L96,71.4883 L2637.5,71.4883 A2.5,2.5 0 0 1 2640,73.9883 L2640,831.1 A2.5,2.5 0 0 1 2637.5,833.6 L32.5,833.6 A2.5,2.5 0 0 1 30,831.1 L30,51.5 A2.5,2.5 0 0 1 32.5,49 " fill="none" style="stroke:#000000;stroke-width:1.5;"/><line style="stroke:#000000;stroke-width:1.5;" x1="30" x2="96" y1="71.4883" y2="71.4883"/><text fill="#000000" font-family="sans-serif" font-size="14" font-weight="bold" lengthAdjust="spacing" textLength="53" x="34" y="64.5352">records</text></g><!--class Appointment--><g id="elem_Appointment"><rect codeLine="8" fill="#D1E9FF" height="493.1836" id="Appointment" rx="2.5" ry="2.5" style="stroke:#5B9BD5;stroke-width:0.5;" width="659" x="423.5" y="84"/><ellipse cx="703.75" cy="100" fill="#ADD1B2" rx="11" ry="11" style="stroke:#181818;stroke-width:1.0;"/><path d="M706.2231,106.1431 Q705.6421,106.4419 705.0029,106.5913 Q704.3638,106.7407 703.6582,106.7407 Q701.1514,106.7407 699.8315,105.0889 Q698.5117,103.437 698.5117,100.3159 Q698.5117,97.1865 699.8315,95.5347 Q701.1514,93.8828 703.6582,93.8828 Q704.3638,93.8828 705.0112,94.0322 Q705.6587,94.1816 706.2231,94.4805 L706.2231,97.2031 Q705.5923,96.6221 704.9988,96.3523 Q704.4053,96.0825 703.7744,96.0825 Q702.4297,96.0825 701.7449,97.1492 Q701.0601,98.2158 701.0601,100.3159 Q701.0601,102.4077 701.7449,103.4744 Q702.4297,104.541 703.7744,104.541 Q704.4053,104.541 704.9988,104.2712 Q705.5923,104.0015 706.2231,103.4204 Z " fill="#000000"/><text fill="#1F4E79" font-family="sans-serif" font-size="14" lengthAdjust="spacing" textLength="90" x="724.25" y="105.291">Appointment</text><line style="stroke:#5B9BD5;stroke-width:0.5;" x1="424.5" x2="1081.5" y1="116" y2="116"/><rect fill="none" height="6" style="stroke:#C82930;stroke-width:1.0;" width="6" x="431.5" y="126.7441"/><text fill="#000000" font-family="sans-serif" font-size="14" lengthAdjust="spacing" textLength="189" x="443.5" y="133.5352">LocalDate appointmentDate</text><rect fill="none" height="6" style="stroke:#C82930;stroke-width:1.0;" width="6" x="431.5" y="143.2324"/><text fill="#000000" font-family="sans-serif" font-size="14" lengthAdjust="spacing" textLength="182" x="443.5" y="150.0234">TreatmentTypes treatment</text><rect fill="none" height="6" style="stroke:#C82930;stroke-width:1.0;" width="6" x="431.5" y="159.7207"/><text fill="#000000" font-family="sans-serif" font-size="14" lengthAdjust="spacing" textLength="147" x="443.5" y="166.5117">String appointmentID</text><rect fill="none" height="6" style="stroke:#C82930;stroke-width:1.0;" width="6" x="431.5" y="176.209"/><text fill="#000000" font-family="sans-serif" font-size="14" lengthAdjust="spacing" textLength="104" x="443.5" y="183">String doctorID</text><rect fill="none" height="6" style="stroke:#C82930;stroke-width:1.0;" width="6" x="431.5" y="192.6973"/><text fill="#000000" font-family="sans-serif" font-size="14" lengthAdjust="spacing" textLength="107" x="443.5" y="199.4883">String patientID</text><rect fill="none" height="6" style="stroke:#C82930;stroke-width:1.0;" width="6" x="431.5" y="209.1855"/><text fill="#000000" font-family="sans-serif" font-size="14" lengthAdjust="spacing" textLength="272" x="443.5" y="215.9766">List&lt;Medication&gt; prescribedMedication</text><rect fill="none" height="6" style="stroke:#C82930;stroke-width:1.0;" width="6" x="431.5" y="225.6738"/><text fill="#000000" font-family="sans-serif" font-size="14" lengthAdjust="spacing" textLength="169" x="443.5" y="232.4648">String consultationNotes</text><rect fill="none" height="6" style="stroke:#C82930;stroke-width:1.0;" width="6" x="431.5" y="242.1621"/><text fill="#000000" font-family="sans-serif" font-size="14" lengthAdjust="spacing" textLength="266" x="443.5" y="248.9531">AppointmentStatus appointmentStatus</text><rect fill="none" height="6" style="stroke:#C82930;stroke-width:1.0;" width="6" x="431.5" y="258.6504"/><text fill="#000000" font-family="sans-serif" font-size="14" lengthAdjust="spacing" textLength="172" x="443.5" y="265.4414">ServiceTypes serviceType</text><line style="stroke:#5B9BD5;stroke-width:0.5;" x1="424.5" x2="1081.5" y1="272.3945" y2="272.3945"/><ellipse cx="434.5" cy="286.1387" fill="#84BE84" rx="3" ry="3" style="stroke:#038048;stroke-width:1.0;"/><text fill="#000000" font-family="sans-serif" font-size="14" lengthAdjust="spacing" textLength="633" x="443.5" y="289.9297">Appointment(Date appointmentDate, TreatmentTypes type, String patientID, String doctorID)</text><ellipse cx="434.5" cy="302.627" fill="#84BE84" rx="3" ry="3" style="stroke:#038048;stroke-width:1.0;"/><text fill="#000000" font-family="sans-serif" font-size="14" lengthAdjust="spacing" textLength="96" x="443.5" y="306.418">String toCSV()</text><ellipse cx="434.5" cy="319.1152" fill="#84BE84" rx="3" ry="3" style="stroke:#038048;stroke-width:1.0;"/><text fill="#000000" font-family="sans-serif" font-size="14" lengthAdjust="spacing" textLength="138" x="443.5" y="322.9063">String getPatientID()</text><ellipse cx="434.5" cy="335.6035" fill="#84BE84" rx="3" ry="3" style="stroke:#038048;stroke-width:1.0;"/><text fill="#000000" font-family="sans-serif" font-size="14" lengthAdjust="spacing" textLength="181" x="443.5" y="339.3945">String getAppointmentID()</text><ellipse cx="434.5" cy="352.0918" fill="#84BE84" rx="3" ry="3" style="stroke:#038048;stroke-width:1.0;"/><text fill="#000000" font-family="sans-serif" font-size="14" lengthAdjust="spacing" textLength="137" x="443.5" y="355.8828">String getDoctorID()</text><ellipse cx="434.5" cy="368.5801" fill="#84BE84" rx="3" ry="3" style="stroke:#038048;stroke-width:1.0;"/><text fill="#000000" font-family="sans-serif" font-size="14" lengthAdjust="spacing" textLength="300" x="443.5" y="372.3711">AppointmentStatus getAppointmentStatus()</text><ellipse cx="434.5" cy="385.0684" fill="#84BE84" rx="3" ry="3" style="stroke:#038048;stroke-width:1.0;"/><text fill="#000000" font-family="sans-serif" font-size="14" lengthAdjust="spacing" textLength="223" x="443.5" y="388.8594">LocalDate getAppointmentDate()</text><ellipse cx="434.5" cy="401.5566" fill="#84BE84" rx="3" ry="3" style="stroke:#038048;stroke-width:1.0;"/><text fill="#000000" font-family="sans-serif" font-size="14" lengthAdjust="spacing" textLength="251" x="443.5" y="405.3477">TreatmentTypes getTreatmentType()</text><ellipse cx="434.5" cy="418.0449" fill="#84BE84" rx="3" ry="3" style="stroke:#038048;stroke-width:1.0;"/><text fill="#000000" font-family="sans-serif" font-size="14" lengthAdjust="spacing" textLength="310" x="443.5" y="421.8359">List&lt;Medication&gt; getPrescribedMedications()</text><ellipse cx="434.5" cy="434.5332" fill="#84BE84" rx="3" ry="3" style="stroke:#038048;stroke-width:1.0;"/><text fill="#000000" font-family="sans-serif" font-size="14" lengthAdjust="spacing" textLength="204" x="443.5" y="438.3242">String getConsultationNotes()</text><ellipse cx="434.5" cy="451.0215" fill="#84BE84" rx="3" ry="3" style="stroke:#038048;stroke-width:1.0;"/><text fill="#000000" font-family="sans-serif" font-size="14" lengthAdjust="spacing" textLength="205" x="443.5" y="454.8125">ServiceTypes getServiceType()</text><ellipse cx="434.5" cy="467.5098" fill="#84BE84" rx="3" ry="3" style="stroke:#038048;stroke-width:1.0;"/><text fill="#000000" font-family="sans-serif" font-size="14" lengthAdjust="spacing" textLength="323" x="443.5" y="471.3008">void setServiceTypes(ServiceTypes serviceType)</text><ellipse cx="434.5" cy="483.998" fill="#84BE84" rx="3" ry="3" style="stroke:#038048;stroke-width:1.0;"/><text fill="#000000" font-family="sans-serif" font-size="14" lengthAdjust="spacing" textLength="185" x="443.5" y="487.7891">String printAppointments()</text><ellipse cx="434.5" cy="500.4863" fill="#84BE84" rx="3" ry="3" style="stroke:#038048;stroke-width:1.0;"/><text fill="#000000" font-family="sans-serif" font-size="14" lengthAdjust="spacing" textLength="371" x="443.5" y="504.2773">void setStatus(AppointmentStatus appointmentStatus)</text><ellipse cx="434.5" cy="516.9746" fill="#84BE84" rx="3" ry="3" style="stroke:#038048;stroke-width:1.0;"/><text fill="#000000" font-family="sans-serif" font-size="14" lengthAdjust="spacing" textLength="273" x="443.5" y="520.7656">void setConsultationNotes(String notes)</text><ellipse cx="434.5" cy="533.4629" fill="#84BE84" rx="3" ry="3" style="stroke:#038048;stroke-width:1.0;"/><text fill="#000000" font-family="sans-serif" font-size="14" lengthAdjust="spacing" textLength="258" x="443.5" y="537.2539">void addMedication(String medName)</text><ellipse cx="434.5" cy="549.9512" fill="#84BE84" rx="3" ry="3" style="stroke:#038048;stroke-width:1.0;"/><text fill="#000000" font-family="sans-serif" font-size="14" lengthAdjust="spacing" textLength="372" x="443.5" y="553.7422">void setAppointmentStatus(AppointmentStatus status)</text><ellipse cx="434.5" cy="566.4395" fill="#84BE84" rx="3" ry="3" style="stroke:#038048;stroke-width:1.0;"/><text fill="#000000" font-family="sans-serif" font-size="14" lengthAdjust="spacing" textLength="110" x="443.5" y="570.2305">String toString()</text></g><!--class Medication--><g id="elem_Medication"><rect codeLine="40" fill="#D1E9FF" height="163.418" id="Medication" rx="2.5" ry="2.5" style="stroke:#5B9BD5;stroke-width:0.5;" width="411" x="547.5" y="654.18"/><ellipse cx="711.25" cy="670.18" fill="#ADD1B2" rx="11" ry="11" style="stroke:#181818;stroke-width:1.0;"/><path d="M713.7231,676.3231 Q713.1421,676.6219 712.5029,676.7713 Q711.8638,676.9207 711.1582,676.9207 Q708.6514,676.9207 707.3315,675.2689 Q706.0117,673.617 706.0117,670.4959 Q706.0117,667.3665 707.3315,665.7147 Q708.6514,664.0628 711.1582,664.0628 Q711.8638,664.0628 712.5112,664.2122 Q713.1587,664.3616 713.7231,664.6605 L713.7231,667.3831 Q713.0923,666.8021 712.4988,666.5323 Q711.9053,666.2625 711.2744,666.2625 Q709.9297,666.2625 709.2449,667.3292 Q708.5601,668.3958 708.5601,670.4959 Q708.5601,672.5877 709.2449,673.6544 Q709.9297,674.721 711.2744,674.721 Q711.9053,674.721 712.4988,674.4512 Q713.0923,674.1815 713.7231,673.6004 Z " fill="#000000"/><text fill="#1F4E79" font-family="sans-serif" font-size="14" lengthAdjust="spacing" textLength="75" x="731.75" y="675.471">Medication</text><line style="stroke:#5B9BD5;stroke-width:0.5;" x1="548.5" x2="957.5" y1="686.18" y2="686.18"/><rect fill="none" height="6" style="stroke:#C82930;stroke-width:1.0;" width="6" x="555.5" y="696.9241"/><text fill="#000000" font-family="sans-serif" font-size="14" lengthAdjust="spacing" textLength="160" x="567.5" y="703.7152">String medicationName</text><rect fill="none" height="6" style="stroke:#C82930;stroke-width:1.0;" width="6" x="555.5" y="713.4124"/><text fill="#000000" font-family="sans-serif" font-size="14" lengthAdjust="spacing" textLength="254" x="567.5" y="720.2034">AppointmentStatus medicationStatus</text><line style="stroke:#5B9BD5;stroke-width:0.5;" x1="548.5" x2="957.5" y1="727.1566" y2="727.1566"/><ellipse cx="558.5" cy="740.9007" fill="#84BE84" rx="3" ry="3" style="stroke:#038048;stroke-width:1.0;"/><text fill="#000000" font-family="sans-serif" font-size="14" lengthAdjust="spacing" textLength="168" x="567.5" y="744.6917">Medication(String name)</text><ellipse cx="558.5" cy="757.389" fill="#84BE84" rx="3" ry="3" style="stroke:#038048;stroke-width:1.0;"/><text fill="#000000" font-family="sans-serif" font-size="14" lengthAdjust="spacing" textLength="191" x="567.5" y="761.18">String getMedicationName()</text><ellipse cx="558.5" cy="773.8773" fill="#84BE84" rx="3" ry="3" style="stroke:#038048;stroke-width:1.0;"/><text fill="#000000" font-family="sans-serif" font-size="14" lengthAdjust="spacing" textLength="285" x="567.5" y="777.6683">AppointmentStatus getMedicationStatus()</text><ellipse cx="558.5" cy="790.3655" fill="#84BE84" rx="3" ry="3" style="stroke:#038048;stroke-width:1.0;"/><text fill="#000000" font-family="sans-serif" font-size="14" lengthAdjust="spacing" textLength="385" x="567.5" y="794.1566">void updateMedicationStatus(AppointmentStatus status)</text><ellipse cx="558.5" cy="806.8538" fill="#84BE84" rx="3" ry="3" style="stroke:#038048;stroke-width:1.0;"/><text fill="#000000" font-family="sans-serif" font-size="14" lengthAdjust="spacing" textLength="110" x="567.5" y="810.6448">String toString()</text></g><!--class AppointmentStatus--><g id="elem_AppointmentStatus"><rect codeLine="52" fill="#D1E9FF" height="113.9531" id="AppointmentStatus" rx="2.5" ry="2.5" style="stroke:#5B9BD5;stroke-width:0.5;" width="164" x="46" y="273.61"/><ellipse cx="61" cy="289.61" fill="#EB937F" rx="11" ry="11" style="stroke:#181818;stroke-width:1.0;"/><path d="M64.6143,296.11 L56.8945,296.11 L56.8945,283.7169 L64.6143,283.7169 L64.6143,285.8751 L59.3433,285.8751 L59.3433,288.548 L64.1162,288.548 L64.1162,290.7062 L59.3433,290.7062 L59.3433,293.9518 L64.6143,293.9518 Z " fill="#000000"/><text fill="#1F4E79" font-family="sans-serif" font-size="14" lengthAdjust="spacing" textLength="132" x="75" y="294.901">AppointmentStatus</text><line style="stroke:#5B9BD5;stroke-width:0.5;" x1="47" x2="209" y1="305.61" y2="305.61"/><text fill="#000000" font-family="sans-serif" font-size="14" lengthAdjust="spacing" textLength="60" x="52" y="323.1452">PENDING</text><text fill="#000000" font-family="sans-serif" font-size="14" lengthAdjust="spacing" textLength="73" x="52" y="339.6334">APPROVED</text><text fill="#000000" font-family="sans-serif" font-size="14" lengthAdjust="spacing" textLength="66" x="52" y="356.1217">REJECTED</text><text fill="#000000" font-family="sans-serif" font-size="14" lengthAdjust="spacing" textLength="83" x="52" y="372.61">COMPLETED</text><line style="stroke:#5B9BD5;stroke-width:0.5;" x1="47" x2="209" y1="379.5631" y2="379.5631"/></g><!--class TreatmentTypes--><g id="elem_TreatmentTypes"><rect codeLine="60" fill="#D1E9FF" height="113.9531" id="TreatmentTypes" rx="2.5" ry="2.5" style="stroke:#5B9BD5;stroke-width:0.5;" width="143" x="245.5" y="273.61"/><ellipse cx="260.5" cy="289.61" fill="#EB937F" rx="11" ry="11" style="stroke:#181818;stroke-width:1.0;"/><path d="M264.1143,296.11 L256.3945,296.11 L256.3945,283.7169 L264.1143,283.7169 L264.1143,285.8751 L258.8433,285.8751 L258.8433,288.548 L263.6162,288.548 L263.6162,290.7062 L258.8433,290.7062 L258.8433,293.9518 L264.1143,293.9518 Z " fill="#000000"/><text fill="#1F4E79" font-family="sans-serif" font-size="14" lengthAdjust="spacing" textLength="111" x="274.5" y="294.901">TreatmentTypes</text><line style="stroke:#5B9BD5;stroke-width:0.5;" x1="246.5" x2="387.5" y1="305.61" y2="305.61"/><text fill="#000000" font-family="sans-serif" font-size="14" lengthAdjust="spacing" textLength="54" x="251.5" y="323.1452">DENTAL</text><text fill="#000000" font-family="sans-serif" font-size="14" lengthAdjust="spacing" textLength="61" x="251.5" y="339.6334">MEDICAL</text><text fill="#000000" font-family="sans-serif" font-size="14" lengthAdjust="spacing" textLength="68" x="251.5" y="356.1217">SURGICAL</text><text fill="#000000" font-family="sans-serif" font-size="14" lengthAdjust="spacing" textLength="109" x="251.5" y="372.61">CONSULTATION</text><line style="stroke:#5B9BD5;stroke-width:0.5;" x1="246.5" x2="387.5" y1="379.5631" y2="379.5631"/></g><!--class ServiceTypes--><g id="elem_ServiceTypes"><rect codeLine="68" fill="#D1E9FF" height="130.4414" id="ServiceTypes" rx="2.5" ry="2.5" style="stroke:#5B9BD5;stroke-width:0.5;" width="121" x="67.5" y="670.67"/><ellipse cx="82.95" cy="686.67" fill="#EB937F" rx="11" ry="11" style="stroke:#181818;stroke-width:1.0;"/><path d="M86.5643,693.17 L78.8445,693.17 L78.8445,680.7769 L86.5643,680.7769 L86.5643,682.9351 L81.2933,682.9351 L81.2933,685.608 L86.0662,685.608 L86.0662,687.7662 L81.2933,687.7662 L81.2933,691.0118 L86.5643,691.0118 Z " fill="#000000"/><text fill="#1F4E79" font-family="sans-serif" font-size="14" lengthAdjust="spacing" textLength="88" x="97.05" y="691.961">ServiceTypes</text><line style="stroke:#5B9BD5;stroke-width:0.5;" x1="68.5" x2="187.5" y1="702.67" y2="702.67"/><text fill="#000000" font-family="sans-serif" font-size="14" lengthAdjust="spacing" textLength="109" x="73.5" y="720.2052">CONSULTATION</text><text fill="#000000" font-family="sans-serif" font-size="14" lengthAdjust="spacing" textLength="37" x="73.5" y="736.6934">XRAY</text><text fill="#000000" font-family="sans-serif" font-size="14" lengthAdjust="spacing" textLength="88" x="73.5" y="753.1817">BLOOD_TEST</text><text fill="#000000" font-family="sans-serif" font-size="14" lengthAdjust="spacing" textLength="63" x="73.5" y="769.67">SURGERY</text><text fill="#000000" font-family="sans-serif" font-size="14" lengthAdjust="spacing" textLength="55" x="73.5" y="786.1583">OTHERS</text><line style="stroke:#5B9BD5;stroke-width:0.5;" x1="68.5" x2="187.5" y1="793.1114" y2="793.1114"/></g><!--class Obfuscation--><g id="elem_Obfuscation"><rect codeLine="79" fill="#D1E9FF" height="97.4648" id="Obfuscation" rx="2.5" ry="2.5" style="stroke:#5B9BD5;stroke-width:0.5;" width="388" x="1118" y="281.86"/><ellipse cx="1266.25" cy="297.86" fill="#ADD1B2" rx="11" ry="11" style="stroke:#181818;stroke-width:1.0;"/><path d="M1268.7231,304.0031 Q1268.1421,304.3019 1267.5029,304.4513 Q1266.8638,304.6007 1266.1582,304.6007 Q1263.6514,304.6007 1262.3315,302.9489 Q1261.0117,301.297 1261.0117,298.1759 Q1261.0117,295.0465 1262.3315,293.3947 Q1263.6514,291.7428 1266.1582,291.7428 Q1266.8638,291.7428 1267.5112,291.8922 Q1268.1587,292.0416 1268.7231,292.3405 L1268.7231,295.0631 Q1268.0923,294.4821 1267.4988,294.2123 Q1266.9053,293.9425 1266.2744,293.9425 Q1264.9297,293.9425 1264.2449,295.0092 Q1263.5601,296.0758 1263.5601,298.1759 Q1263.5601,300.2677 1264.2449,301.3344 Q1264.9297,302.401 1266.2744,302.401 Q1266.9053,302.401 1267.4988,302.1312 Q1268.0923,301.8615 1268.7231,301.2804 Z " fill="#000000"/><text fill="#1F4E79" font-family="sans-serif" font-size="14" lengthAdjust="spacing" textLength="83" x="1286.75" y="303.151">Obfuscation</text><line style="stroke:#5B9BD5;stroke-width:0.5;" x1="1119" x2="1505" y1="313.86" y2="313.86"/><line style="stroke:#5B9BD5;stroke-width:0.5;" x1="1119" x2="1505" y1="321.86" y2="321.86"/><ellipse cx="1129" cy="335.6041" fill="#84BE84" rx="3" ry="3" style="stroke:#038048;stroke-width:1.0;"/><text fill="#000000" font-family="sans-serif" font-size="14" lengthAdjust="spacing" textLength="304" x="1138" y="339.3952">static String hashPassword(String password)</text><ellipse cx="1129" cy="352.0924" fill="#84BE84" rx="3" ry="3" style="stroke:#038048;stroke-width:1.0;"/><text fill="#000000" font-family="sans-serif" font-size="14" lengthAdjust="spacing" textLength="362" x="1138" y="355.8834">static int compareHash(String hash, String plainText)</text><ellipse cx="1129" cy="368.5807" fill="#84BE84" rx="3" ry="3" style="stroke:#038048;stroke-width:1.0;"/><text fill="#000000" font-family="sans-serif" font-size="14" lengthAdjust="spacing" textLength="314" x="1138" y="372.3717">static String getPasswordInput(String prompt)</text></g><!--class MessageDigest--><g id="elem_MessageDigest"><rect fill="#D1E9FF" height="48" id="MessageDigest" rx="2.5" ry="2.5" style="stroke:#5B9BD5;stroke-width:0.5;" width="134" x="1153" y="711.89"/><ellipse cx="1168" cy="727.89" fill="#ADD1B2" rx="11" ry="11" style="stroke:#181818;stroke-width:1.0;"/><path d="M1170.4731,734.0331 Q1169.8921,734.3319 1169.2529,734.4813 Q1168.6138,734.6307 1167.9082,734.6307 Q1165.4014,734.6307 1164.0815,732.9789 Q1162.7617,731.327 1162.7617,728.2059 Q1162.7617,725.0765 1164.0815,723.4247 Q1165.4014,721.7728 1167.9082,721.7728 Q1168.6138,721.7728 1169.2612,721.9222 Q1169.9087,722.0716 1170.4731,722.3705 L1170.4731,725.0931 Q1169.8423,724.5121 1169.2488,724.2423 Q1168.6553,723.9725 1168.0244,723.9725 Q1166.6797,723.9725 1165.9949,725.0392 Q1165.3101,726.1058 1165.3101,728.2059 Q1165.3101,730.2977 1165.9949,731.3644 Q1166.6797,732.431 1168.0244,732.431 Q1168.6553,732.431 1169.2488,732.1612 Q1169.8423,731.8915 1170.4731,731.3104 Z " fill="#000000"/><text fill="#1F4E79" font-family="sans-serif" font-size="14" lengthAdjust="spacing" textLength="102" x="1182" y="733.181">MessageDigest</text><line style="stroke:#5B9BD5;stroke-width:0.5;" x1="1154" x2="1286" y1="743.89" y2="743.89"/><line style="stroke:#5B9BD5;stroke-width:0.5;" x1="1154" x2="1286" y1="751.89" y2="751.89"/></g><!--class Console--><g id="elem_Console"><rect fill="#D1E9FF" height="48" id="Console" rx="2.5" ry="2.5" style="stroke:#5B9BD5;stroke-width:0.5;" width="88" x="1322" y="711.89"/><ellipse cx="1337" cy="727.89" fill="#ADD1B2" rx="11" ry="11" style="stroke:#181818;stroke-width:1.0;"/><path d="M1339.4731,734.0331 Q1338.8921,734.3319 1338.2529,734.4813 Q1337.6138,734.6307 1336.9082,734.6307 Q1334.4014,734.6307 1333.0815,732.9789 Q1331.7617,731.327 1331.7617,728.2059 Q1331.7617,725.0765 1333.0815,723.4247 Q1334.4014,721.7728 1336.9082,721.7728 Q1337.6138,721.7728 1338.2612,721.9222 Q1338.9087,722.0716 1339.4731,722.3705 L1339.4731,725.0931 Q1338.8423,724.5121 1338.2488,724.2423 Q1337.6553,723.9725 1337.0244,723.9725 Q1335.6797,723.9725 1334.9949,725.0392 Q1334.3101,726.1058 1334.3101,728.2059 Q1334.3101,730.2977 1334.9949,731.3644 Q1335.6797,732.431 1337.0244,732.431 Q1337.6553,732.431 1338.2488,732.1612 Q1338.8423,731.8915 1339.4731,731.3104 Z " fill="#000000"/><text fill="#1F4E79" font-family="sans-serif" font-size="14" lengthAdjust="spacing" textLength="56" x="1351" y="733.181">Console</text><line style="stroke:#5B9BD5;stroke-width:0.5;" x1="1323" x2="1409" y1="743.89" y2="743.89"/><line style="stroke:#5B9BD5;stroke-width:0.5;" x1="1323" x2="1409" y1="751.89" y2="751.89"/></g><!--class MedicalRecord--><g id="elem_MedicalRecord"><rect codeLine="89" fill="#D1E9FF" height="229.3711" id="MedicalRecord" rx="2.5" ry="2.5" style="stroke:#5B9BD5;stroke-width:0.5;" width="570" x="1541" y="215.9"/><ellipse cx="1771.75" cy="231.9" fill="#ADD1B2" rx="11" ry="11" style="stroke:#181818;stroke-width:1.0;"/><path d="M1774.2231,238.0431 Q1773.6421,238.3419 1773.0029,238.4913 Q1772.3638,238.6407 1771.6582,238.6407 Q1769.1514,238.6407 1767.8315,236.9889 Q1766.5117,235.337 1766.5117,232.2159 Q1766.5117,229.0865 1767.8315,227.4347 Q1769.1514,225.7828 1771.6582,225.7828 Q1772.3638,225.7828 1773.0112,225.9322 Q1773.6587,226.0816 1774.2231,226.3805 L1774.2231,229.1031 Q1773.5923,228.5221 1772.9988,228.2523 Q1772.4053,227.9825 1771.7744,227.9825 Q1770.4297,227.9825 1769.7449,229.0492 Q1769.0601,230.1158 1769.0601,232.2159 Q1769.0601,234.3077 1769.7449,235.3744 Q1770.4297,236.441 1771.7744,236.441 Q1772.4053,236.441 1772.9988,236.1712 Q1773.5923,235.9015 1774.2231,235.3204 Z " fill="#000000"/><text fill="#1F4E79" font-family="sans-serif" font-size="14" lengthAdjust="spacing" textLength="100" x="1792.25" y="237.191">MedicalRecord</text><line style="stroke:#5B9BD5;stroke-width:0.5;" x1="1542" x2="2110" y1="247.9" y2="247.9"/><rect fill="none" height="6" style="stroke:#C82930;stroke-width:1.0;" width="6" x="1549" y="258.6441"/><text fill="#000000" font-family="sans-serif" font-size="14" lengthAdjust="spacing" textLength="111" x="1561" y="265.4352">String diagnosis</text><rect fill="none" height="6" style="stroke:#C82930;stroke-width:1.0;" width="6" x="1549" y="275.1324"/><text fill="#000000" font-family="sans-serif" font-size="14" lengthAdjust="spacing" textLength="112" x="1561" y="281.9234">String treatment</text><rect fill="none" height="6" style="stroke:#C82930;stroke-width:1.0;" width="6" x="1549" y="291.6207"/><text fill="#000000" font-family="sans-serif" font-size="14" lengthAdjust="spacing" textLength="195" x="1561" y="298.4117">String appointmentOutcome</text><rect fill="none" height="6" style="stroke:#C82930;stroke-width:1.0;" width="6" x="1549" y="308.109"/><text fill="#000000" font-family="sans-serif" font-size="14" lengthAdjust="spacing" textLength="210" x="1561" y="314.9">static final String RECORD_FILE</text><line style="stroke:#5B9BD5;stroke-width:0.5;" x1="1542" x2="2110" y1="321.8531" y2="321.8531"/><ellipse cx="1552" cy="335.5973" fill="#84BE84" rx="3" ry="3" style="stroke:#038048;stroke-width:1.0;"/><text fill="#000000" font-family="sans-serif" font-size="14" lengthAdjust="spacing" textLength="544" x="1561" y="339.3883">MedicalRecord(String diagnosis, String treatment, String appointmentOutcome)</text><ellipse cx="1552" cy="352.0855" fill="#84BE84" rx="3" ry="3" style="stroke:#038048;stroke-width:1.0;"/><text fill="#000000" font-family="sans-serif" font-size="14" lengthAdjust="spacing" textLength="144" x="1561" y="355.8766">String getDiagnosis()</text><ellipse cx="1552" cy="368.5738" fill="#84BE84" rx="3" ry="3" style="stroke:#038048;stroke-width:1.0;"/><text fill="#000000" font-family="sans-serif" font-size="14" lengthAdjust="spacing" textLength="148" x="1561" y="372.3648">String getTreatment()</text><ellipse cx="1552" cy="385.0621" fill="#84BE84" rx="3" ry="3" style="stroke:#038048;stroke-width:1.0;"/><text fill="#000000" font-family="sans-serif" font-size="14" lengthAdjust="spacing" textLength="229" x="1561" y="388.8531">String getAppointmentOutcome()</text><ellipse cx="1552" cy="401.5504" fill="#84BE84" rx="3" ry="3" style="stroke:#038048;stroke-width:1.0;"/><text fill="#000000" font-family="sans-serif" font-size="14" lengthAdjust="spacing" textLength="250" x="1561" y="405.3414">void saveRecordToCSV(int patientID)</text><ellipse cx="1552" cy="418.0387" fill="#84BE84" rx="3" ry="3" style="stroke:#038048;stroke-width:1.0;"/><text fill="#000000" font-family="sans-serif" font-size="14" lengthAdjust="spacing" textLength="444" x="1561" y="421.8297">static List&lt;MedicalRecord&gt; loadRecordsByPatientID(int patientID)</text><ellipse cx="1552" cy="434.527" fill="#84BE84" rx="3" ry="3" style="stroke:#038048;stroke-width:1.0;"/><text fill="#000000" font-family="sans-serif" font-size="14" lengthAdjust="spacing" textLength="110" x="1561" y="438.318">String toString()</text></g><!--class BufferedWriter--><g id="elem_BufferedWriter"><rect fill="#D1E9FF" height="48" id="BufferedWriter" rx="2.5" ry="2.5" style="stroke:#5B9BD5;stroke-width:0.5;" width="131" x="1870.5" y="711.89"/><ellipse cx="1885.5" cy="727.89" fill="#ADD1B2" rx="11" ry="11" style="stroke:#181818;stroke-width:1.0;"/><path d="M1887.9731,734.0331 Q1887.3921,734.3319 1886.7529,734.4813 Q1886.1138,734.6307 1885.4082,734.6307 Q1882.9014,734.6307 1881.5815,732.9789 Q1880.2617,731.327 1880.2617,728.2059 Q1880.2617,725.0765 1881.5815,723.4247 Q1882.9014,721.7728 1885.4082,721.7728 Q1886.1138,721.7728 1886.7612,721.9222 Q1887.4087,722.0716 1887.9731,722.3705 L1887.9731,725.0931 Q1887.3423,724.5121 1886.7488,724.2423 Q1886.1553,723.9725 1885.5244,723.9725 Q1884.1797,723.9725 1883.4949,725.0392 Q1882.8101,726.1058 1882.8101,728.2059 Q1882.8101,730.2977 1883.4949,731.3644 Q1884.1797,732.431 1885.5244,732.431 Q1886.1553,732.431 1886.7488,732.1612 Q1887.3423,731.8915 1887.9731,731.3104 Z " fill="#000000"/><text fill="#1F4E79" font-family="sans-serif" font-size="14" lengthAdjust="spacing" textLength="99" x="1899.5" y="733.181">BufferedWriter</text><line style="stroke:#5B9BD5;stroke-width:0.5;" x1="1871.5" x2="2000.5" y1="743.89" y2="743.89"/><line style="stroke:#5B9BD5;stroke-width:0.5;" x1="1871.5" x2="2000.5" y1="751.89" y2="751.89"/></g><!--class FileWriter--><g id="elem_FileWriter"><rect fill="#D1E9FF" height="48" id="FileWriter" rx="2.5" ry="2.5" style="stroke:#5B9BD5;stroke-width:0.5;" width="97" x="2209.5" y="711.89"/><ellipse cx="2224.5" cy="727.89" fill="#ADD1B2" rx="11" ry="11" style="stroke:#181818;stroke-width:1.0;"/><path d="M2226.9731,734.0331 Q2226.3921,734.3319 2225.7529,734.4813 Q2225.1138,734.6307 2224.4082,734.6307 Q2221.9014,734.6307 2220.5815,732.9789 Q2219.2617,731.327 2219.2617,728.2059 Q2219.2617,725.0765 2220.5815,723.4247 Q2221.9014,721.7728 2224.4082,721.7728 Q2225.1138,721.7728 2225.7612,721.9222 Q2226.4087,722.0716 2226.9731,722.3705 L2226.9731,725.0931 Q2226.3423,724.5121 2225.7488,724.2423 Q2225.1553,723.9725 2224.5244,723.9725 Q2223.1797,723.9725 2222.4949,725.0392 Q2221.8101,726.1058 2221.8101,728.2059 Q2221.8101,730.2977 2222.4949,731.3644 Q2223.1797,732.431 2224.5244,732.431 Q2225.1553,732.431 2225.7488,732.1612 Q2226.3423,731.8915 2226.9731,731.3104 Z " fill="#000000"/><text fill="#1F4E79" font-family="sans-serif" font-size="14" lengthAdjust="spacing" textLength="65" x="2238.5" y="733.181">FileWriter</text><line style="stroke:#5B9BD5;stroke-width:0.5;" x1="2210.5" x2="2305.5" y1="743.89" y2="743.89"/><line style="stroke:#5B9BD5;stroke-width:0.5;" x1="2210.5" x2="2305.5" y1="751.89" y2="751.89"/></g><!--class BufferedReader--><g id="elem_BufferedReader"><rect fill="#D1E9FF" height="48" id="BufferedReader" rx="2.5" ry="2.5" style="stroke:#5B9BD5;stroke-width:0.5;" width="138" x="2036" y="711.89"/><ellipse cx="2051" cy="727.89" fill="#ADD1B2" rx="11" ry="11" style="stroke:#181818;stroke-width:1.0;"/><path d="M2053.4731,734.0331 Q2052.8921,734.3319 2052.2529,734.4813 Q2051.6138,734.6307 2050.9082,734.6307 Q2048.4014,734.6307 2047.0815,732.9789 Q2045.7617,731.327 2045.7617,728.2059 Q2045.7617,725.0765 2047.0815,723.4247 Q2048.4014,721.7728 2050.9082,721.7728 Q2051.6138,721.7728 2052.2612,721.9222 Q2052.9087,722.0716 2053.4731,722.3705 L2053.4731,725.0931 Q2052.8423,724.5121 2052.2488,724.2423 Q2051.6553,723.9725 2051.0244,723.9725 Q2049.6797,723.9725 2048.9949,725.0392 Q2048.3101,726.1058 2048.3101,728.2059 Q2048.3101,730.2977 2048.9949,731.3644 Q2049.6797,732.431 2051.0244,732.431 Q2051.6553,732.431 2052.2488,732.1612 Q2052.8423,731.8915 2053.4731,731.3104 Z " fill="#000000"/><text fill="#1F4E79" font-family="sans-serif" font-size="14" lengthAdjust="spacing" textLength="106" x="2065" y="733.181">BufferedReader</text><line style="stroke:#5B9BD5;stroke-width:0.5;" x1="2037" x2="2173" y1="743.89" y2="743.89"/><line style="stroke:#5B9BD5;stroke-width:0.5;" x1="2037" x2="2173" y1="751.89" y2="751.89"/></g><!--class FileReader--><g id="elem_FileReader"><rect fill="#D1E9FF" height="48" id="FileReader" rx="2.5" ry="2.5" style="stroke:#5B9BD5;stroke-width:0.5;" width="104" x="1515" y="711.89"/><ellipse cx="1530" cy="727.89" fill="#ADD1B2" rx="11" ry="11" style="stroke:#181818;stroke-width:1.0;"/><path d="M1532.4731,734.0331 Q1531.8921,734.3319 1531.2529,734.4813 Q1530.6138,734.6307 1529.9082,734.6307 Q1527.4014,734.6307 1526.0815,732.9789 Q1524.7617,731.327 1524.7617,728.2059 Q1524.7617,725.0765 1526.0815,723.4247 Q1527.4014,721.7728 1529.9082,721.7728 Q1530.6138,721.7728 1531.2612,721.9222 Q1531.9087,722.0716 1532.4731,722.3705 L1532.4731,725.0931 Q1531.8423,724.5121 1531.2488,724.2423 Q1530.6553,723.9725 1530.0244,723.9725 Q1528.6797,723.9725 1527.9949,725.0392 Q1527.3101,726.1058 1527.3101,728.2059 Q1527.3101,730.2977 1527.9949,731.3644 Q1528.6797,732.431 1530.0244,732.431 Q1530.6553,732.431 1531.2488,732.1612 Q1531.8423,731.8915 1532.4731,731.3104 Z " fill="#000000"/><text fill="#1F4E79" font-family="sans-serif" font-size="14" lengthAdjust="spacing" textLength="72" x="1544" y="733.181">FileReader</text><line style="stroke:#5B9BD5;stroke-width:0.5;" x1="1516" x2="1618" y1="743.89" y2="743.89"/><line style="stroke:#5B9BD5;stroke-width:0.5;" x1="1516" x2="1618" y1="751.89" y2="751.89"/></g><!--class List--><g id="elem_List"><rect fill="#D1E9FF" height="48" id="List" rx="2.5" ry="2.5" style="stroke:#5B9BD5;stroke-width:0.5;" width="55" x="1653.5" y="711.89"/><ellipse cx="1668.5" cy="727.89" fill="#ADD1B2" rx="11" ry="11" style="stroke:#181818;stroke-width:1.0;"/><path d="M1670.9731,734.0331 Q1670.3921,734.3319 1669.7529,734.4813 Q1669.1138,734.6307 1668.4082,734.6307 Q1665.9014,734.6307 1664.5815,732.9789 Q1663.2617,731.327 1663.2617,728.2059 Q1663.2617,725.0765 1664.5815,723.4247 Q1665.9014,721.7728 1668.4082,721.7728 Q1669.1138,721.7728 1669.7612,721.9222 Q1670.4087,722.0716 1670.9731,722.3705 L1670.9731,725.0931 Q1670.3423,724.5121 1669.7488,724.2423 Q1669.1553,723.9725 1668.5244,723.9725 Q1667.1797,723.9725 1666.4949,725.0392 Q1665.8101,726.1058 1665.8101,728.2059 Q1665.8101,730.2977 1666.4949,731.3644 Q1667.1797,732.431 1668.5244,732.431 Q1669.1553,732.431 1669.7488,732.1612 Q1670.3423,731.8915 1670.9731,731.3104 Z " fill="#000000"/><text fill="#1F4E79" font-family="sans-serif" font-size="14" lengthAdjust="spacing" textLength="23" x="1682.5" y="733.181">List</text><line style="stroke:#5B9BD5;stroke-width:0.5;" x1="1654.5" x2="1707.5" y1="743.89" y2="743.89"/><line style="stroke:#5B9BD5;stroke-width:0.5;" x1="1654.5" x2="1707.5" y1="751.89" y2="751.89"/></g><!--class ArrayList--><g id="elem_ArrayList"><rect fill="#D1E9FF" height="48" id="ArrayList" rx="2.5" ry="2.5" style="stroke:#5B9BD5;stroke-width:0.5;" width="92" x="1744" y="711.89"/><ellipse cx="1759" cy="727.89" fill="#ADD1B2" rx="11" ry="11" style="stroke:#181818;stroke-width:1.0;"/><path d="M1761.4731,734.0331 Q1760.8921,734.3319 1760.2529,734.4813 Q1759.6138,734.6307 1758.9082,734.6307 Q1756.4014,734.6307 1755.0815,732.9789 Q1753.7617,731.327 1753.7617,728.2059 Q1753.7617,725.0765 1755.0815,723.4247 Q1756.4014,721.7728 1758.9082,721.7728 Q1759.6138,721.7728 1760.2612,721.9222 Q1760.9087,722.0716 1761.4731,722.3705 L1761.4731,725.0931 Q1760.8423,724.5121 1760.2488,724.2423 Q1759.6553,723.9725 1759.0244,723.9725 Q1757.6797,723.9725 1756.9949,725.0392 Q1756.3101,726.1058 1756.3101,728.2059 Q1756.3101,730.2977 1756.9949,731.3644 Q1757.6797,732.431 1759.0244,732.431 Q1759.6553,732.431 1760.2488,732.1612 Q1760.8423,731.8915 1761.4731,731.3104 Z " fill="#000000"/><text fill="#1F4E79" font-family="sans-serif" font-size="14" lengthAdjust="spacing" textLength="60" x="1773" y="733.181">ArrayList</text><line style="stroke:#5B9BD5;stroke-width:0.5;" x1="1745" x2="1835" y1="743.89" y2="743.89"/><line style="stroke:#5B9BD5;stroke-width:0.5;" x1="1745" x2="1835" y1="751.89" y2="751.89"/></g><!--class Feedback--><g id="elem_Feedback"><rect codeLine="112" fill="#D1E9FF" height="146.9297" id="Feedback" rx="2.5" ry="2.5" style="stroke:#5B9BD5;stroke-width:0.5;" width="478" x="2146" y="257.13"/><ellipse cx="2348.25" cy="273.13" fill="#ADD1B2" rx="11" ry="11" style="stroke:#181818;stroke-width:1.0;"/><path d="M2350.7231,279.2731 Q2350.1421,279.5719 2349.5029,279.7213 Q2348.8638,279.8707 2348.1582,279.8707 Q2345.6514,279.8707 2344.3315,278.2189 Q2343.0117,276.567 2343.0117,273.4459 Q2343.0117,270.3165 2344.3315,268.6647 Q2345.6514,267.0128 2348.1582,267.0128 Q2348.8638,267.0128 2349.5112,267.1622 Q2350.1587,267.3116 2350.7231,267.6105 L2350.7231,270.3331 Q2350.0923,269.7521 2349.4988,269.4823 Q2348.9053,269.2125 2348.2744,269.2125 Q2346.9297,269.2125 2346.2449,270.2792 Q2345.5601,271.3458 2345.5601,273.4459 Q2345.5601,275.5377 2346.2449,276.6044 Q2346.9297,277.671 2348.2744,277.671 Q2348.9053,277.671 2349.4988,277.4012 Q2350.0923,277.1315 2350.7231,276.5504 Z " fill="#000000"/><text fill="#1F4E79" font-family="sans-serif" font-size="14" lengthAdjust="spacing" textLength="65" x="2368.75" y="278.421">Feedback</text><line style="stroke:#5B9BD5;stroke-width:0.5;" x1="2147" x2="2623" y1="289.13" y2="289.13"/><rect fill="none" height="6" style="stroke:#C82930;stroke-width:1.0;" width="6" x="2154" y="299.8741"/><text fill="#000000" font-family="sans-serif" font-size="14" lengthAdjust="spacing" textLength="132" x="2166" y="306.6652">String patientName</text><rect fill="none" height="6" style="stroke:#C82930;stroke-width:1.0;" width="6" x="2154" y="316.3624"/><text fill="#000000" font-family="sans-serif" font-size="14" lengthAdjust="spacing" textLength="166" x="2166" y="323.1534">String feedbackMessage</text><rect fill="none" height="6" style="stroke:#C82930;stroke-width:1.0;" width="6" x="2154" y="332.8507"/><text fill="#000000" font-family="sans-serif" font-size="14" lengthAdjust="spacing" textLength="63" x="2166" y="339.6417">int rating</text><line style="stroke:#5B9BD5;stroke-width:0.5;" x1="2147" x2="2623" y1="346.5948" y2="346.5948"/><ellipse cx="2157" cy="360.339" fill="#84BE84" rx="3" ry="3" style="stroke:#038048;stroke-width:1.0;"/><text fill="#000000" font-family="sans-serif" font-size="14" lengthAdjust="spacing" textLength="452" x="2166" y="364.13">Feedback(String patientName, String feedbackMessage, int rating)</text><ellipse cx="2157" cy="376.8273" fill="#84BE84" rx="3" ry="3" style="stroke:#038048;stroke-width:1.0;"/><text fill="#000000" font-family="sans-serif" font-size="14" lengthAdjust="spacing" textLength="187" x="2166" y="380.6183">void writeFeedbackToCSV()</text><ellipse cx="2157" cy="393.3155" fill="#84BE84" rx="3" ry="3" style="stroke:#038048;stroke-width:1.0;"/><text fill="#000000" font-family="sans-serif" font-size="14" lengthAdjust="spacing" textLength="305" x="2166" y="397.1066">static void collectFeedback(Scanner scanner)</text></g><!--class Scanner--><g id="elem_Scanner"><rect fill="#D1E9FF" height="48" id="Scanner" rx="2.5" ry="2.5" style="stroke:#5B9BD5;stroke-width:0.5;" width="87" x="2341.5" y="711.89"/><ellipse cx="2356.5" cy="727.89" fill="#ADD1B2" rx="11" ry="11" style="stroke:#181818;stroke-width:1.0;"/><path d="M2358.9731,734.0331 Q2358.3921,734.3319 2357.7529,734.4813 Q2357.1138,734.6307 2356.4082,734.6307 Q2353.9014,734.6307 2352.5815,732.9789 Q2351.2617,731.327 2351.2617,728.2059 Q2351.2617,725.0765 2352.5815,723.4247 Q2353.9014,721.7728 2356.4082,721.7728 Q2357.1138,721.7728 2357.7612,721.9222 Q2358.4087,722.0716 2358.9731,722.3705 L2358.9731,725.0931 Q2358.3423,724.5121 2357.7488,724.2423 Q2357.1553,723.9725 2356.5244,723.9725 Q2355.1797,723.9725 2354.4949,725.0392 Q2353.8101,726.1058 2353.8101,728.2059 Q2353.8101,730.2977 2354.4949,731.3644 Q2355.1797,732.431 2356.5244,732.431 Q2357.1553,732.431 2357.7488,732.1612 Q2358.3423,731.8915 2358.9731,731.3104 Z " fill="#000000"/><text fill="#1F4E79" font-family="sans-serif" font-size="14" lengthAdjust="spacing" textLength="55" x="2370.5" y="733.181">Scanner</text><line style="stroke:#5B9BD5;stroke-width:0.5;" x1="2342.5" x2="2427.5" y1="743.89" y2="743.89"/><line style="stroke:#5B9BD5;stroke-width:0.5;" x1="2342.5" x2="2427.5" y1="751.89" y2="751.89"/></g><!--class PrintWriter--><g id="elem_PrintWriter"><rect fill="#D1E9FF" height="48" id="PrintWriter" rx="2.5" ry="2.5" style="stroke:#5B9BD5;stroke-width:0.5;" width="105" x="2463.5" y="711.89"/><ellipse cx="2478.5" cy="727.89" fill="#ADD1B2" rx="11" ry="11" style="stroke:#181818;stroke-width:1.0;"/><path d="M2480.9731,734.0331 Q2480.3921,734.3319 2479.7529,734.4813 Q2479.1138,734.6307 2478.4082,734.6307 Q2475.9014,734.6307 2474.5815,732.9789 Q2473.2617,731.327 2473.2617,728.2059 Q2473.2617,725.0765 2474.5815,723.4247 Q2475.9014,721.7728 2478.4082,721.7728 Q2479.1138,721.7728 2479.7612,721.9222 Q2480.4087,722.0716 2480.9731,722.3705 L2480.9731,725.0931 Q2480.3423,724.5121 2479.7488,724.2423 Q2479.1553,723.9725 2478.5244,723.9725 Q2477.1797,723.9725 2476.4949,725.0392 Q2475.8101,726.1058 2475.8101,728.2059 Q2475.8101,730.2977 2476.4949,731.3644 Q2477.1797,732.431 2478.5244,732.431 Q2479.1553,732.431 2479.7488,732.1612 Q2480.3423,731.8915 2480.9731,731.3104 Z " fill="#000000"/><text fill="#1F4E79" font-family="sans-serif" font-size="14" lengthAdjust="spacing" textLength="73" x="2492.5" y="733.181">PrintWriter</text><line style="stroke:#5B9BD5;stroke-width:0.5;" x1="2464.5" x2="2567.5" y1="743.89" y2="743.89"/><line style="stroke:#5B9BD5;stroke-width:0.5;" x1="2464.5" x2="2567.5" y1="751.89" y2="751.89"/></g><!--link Appointment to Medication--><g id="link_Appointment_Medication"><path codeLine="76" d="M753,577.52 C753,604.78 753,624.91 753,647.77 " fill="none" id="Appointment-to-Medication" style="stroke:#1F4E79;stroke-width:1.0;"/><polygon fill="#1F4E79" points="753,653.77,757,644.77,753,648.77,749,644.77,753,653.77" style="stroke:#1F4E79;stroke-width:1.0;"/><text fill="#000000" font-family="sans-serif" font-size="13" lengthAdjust="spacing" textLength="8" x="744.8813" y="597.6463">1</text><text fill="#000000" font-family="sans-serif" font-size="13" lengthAdjust="spacing" textLength="6" x="746.7328" y="643.3705">*</text></g><!--link Obfuscation to MessageDigest--><g id="link_Obfuscation_MessageDigest"><path codeLine="85" d="M1301.09,379.44 C1281.24,466.45 1241.264,641.6602 1226.624,705.8602 " fill="none" id="Obfuscation-to-MessageDigest" style="stroke:#1F4E79;stroke-width:1.0;"/><polygon fill="#1F4E79" points="1225.29,711.71,1231.1909,703.8246,1226.4016,706.8351,1223.3911,702.0459,1225.29,711.71" style="stroke:#1F4E79;stroke-width:1.0;"/><text fill="#000000" font-family="sans-serif" font-size="13" lengthAdjust="spacing" textLength="29" x="1248.18" y="620.7484">uses</text></g><!--link Obfuscation to Console--><g id="link_Obfuscation_Console"><path codeLine="86" d="M1318.41,379.44 C1330.06,466.45 1353.5034,641.5631 1362.1034,705.7631 " fill="none" id="Obfuscation-to-Console" style="stroke:#1F4E79;stroke-width:1.0;"/><polygon fill="#1F4E79" points="1362.9,711.71,1365.6697,702.2586,1362.2361,706.7543,1357.7405,703.3208,1362.9,711.71" style="stroke:#1F4E79;stroke-width:1.0;"/><text fill="#000000" font-family="sans-serif" font-size="13" lengthAdjust="spacing" textLength="29" x="1351.04" y="620.7484">uses</text></g><!--link MedicalRecord to BufferedWriter--><g id="link_MedicalRecord_BufferedWriter"><path codeLine="104" d="M1857.08,445.54 C1882.3,538.02 1914.2813,655.2614 1928.0813,705.8614 " fill="none" id="MedicalRecord-to-BufferedWriter" style="stroke:#1F4E79;stroke-width:1.0;"/><polygon fill="#1F4E79" points="1929.66,711.65,1931.151,701.9147,1928.3444,706.8262,1923.4329,704.0196,1929.66,711.65" style="stroke:#1F4E79;stroke-width:1.0;"/><text fill="#000000" font-family="sans-serif" font-size="13" lengthAdjust="spacing" textLength="29" x="1904.5" y="620.7484">uses</text></g><!--link MedicalRecord to FileWriter--><g id="link_MedicalRecord_FileWriter"><path codeLine="105" d="M1965.98,445.65 C2036.29,505.22 2121.32,580.84 2192,654.18 C2209.58,672.43 2224.0038,690.1103 2236.7938,706.6803 " fill="none" id="MedicalRecord-to-FileWriter" style="stroke:#1F4E79;stroke-width:1.0;"/><polygon fill="#1F4E79" points="2240.46,711.43,2238.1272,701.8614,2237.4049,707.4719,2231.7943,706.7496,2240.46,711.43" style="stroke:#1F4E79;stroke-width:1.0;"/><text fill="#000000" font-family="sans-serif" font-size="13" lengthAdjust="spacing" textLength="29" x="2155.78" y="620.7484">uses</text></g><!--link MedicalRecord to BufferedReader--><g id="link_MedicalRecord_BufferedReader"><path codeLine="106" d="M1904.83,445.54 C1968.8,538.02 2050.5068,656.1154 2085.5068,706.7154 " fill="none" id="MedicalRecord-to-BufferedReader" style="stroke:#1F4E79;stroke-width:1.0;"/><polygon fill="#1F4E79" points="2088.92,711.65,2087.0899,701.9727,2086.0756,707.5379,2080.5104,706.5237,2088.92,711.65" style="stroke:#1F4E79;stroke-width:1.0;"/><text fill="#000000" font-family="sans-serif" font-size="13" lengthAdjust="spacing" textLength="29" x="2023.56" y="620.7484">uses</text></g><!--link MedicalRecord to FileReader--><g id="link_MedicalRecord_FileReader"><path codeLine="107" d="M1752.82,445.54 C1693.43,538.02 1617.6625,656.0016 1585.1625,706.6016 " fill="none" id="MedicalRecord-to-FileReader" style="stroke:#1F4E79;stroke-width:1.0;"/><polygon fill="#1F4E79" points="1581.92,711.65,1590.1494,706.2391,1584.6221,707.443,1583.4182,701.9158,1581.92,711.65" style="stroke:#1F4E79;stroke-width:1.0;"/><text fill="#000000" font-family="sans-serif" font-size="13" lengthAdjust="spacing" textLength="29" x="1644.53" y="620.7484">uses</text></g><!--link MedicalRecord to List--><g id="link_MedicalRecord_List"><path codeLine="108" d="M1785.03,445.54 C1751.78,538.02 1709.5797,655.4038 1691.3897,706.0038 " fill="none" id="MedicalRecord-to-List" style="stroke:#1F4E79;stroke-width:1.0;"/><polygon fill="#1F4E79" points="1689.36,711.65,1696.1688,704.5338,1691.0515,706.9448,1688.6405,701.8275,1689.36,711.65" style="stroke:#1F4E79;stroke-width:1.0;"/><text fill="#000000" font-family="sans-serif" font-size="13" lengthAdjust="spacing" textLength="29" x="1724.85" y="620.7484">uses</text></g><!--link MedicalRecord to ArrayList--><g id="link_MedicalRecord_ArrayList"><path codeLine="109" d="M1815.83,445.54 C1807.57,538.02 1797.1238,655.0738 1792.6038,705.6738 " fill="none" id="MedicalRecord-to-ArrayList" style="stroke:#1F4E79;stroke-width:1.0;"/><polygon fill="#1F4E79" points="1792.07,711.65,1796.8549,703.0416,1792.5149,706.6698,1788.8866,702.3298,1792.07,711.65" style="stroke:#1F4E79;stroke-width:1.0;"/><text fill="#000000" font-family="sans-serif" font-size="13" lengthAdjust="spacing" textLength="29" x="1801.64" y="620.7484">uses</text></g><!--link Feedback to Scanner--><g id="link_Feedback_Scanner"><path codeLine="122" d="M2385,404.16 C2385,497.14 2385,647.29 2385,705.81 " fill="none" id="Feedback-to-Scanner" style="stroke:#1F4E79;stroke-width:1.0;"/><polygon fill="#1F4E79" points="2385,711.81,2389,702.81,2385,706.81,2381,702.81,2385,711.81" style="stroke:#1F4E79;stroke-width:1.0;"/><text fill="#000000" font-family="sans-serif" font-size="13" lengthAdjust="spacing" textLength="29" x="2386" y="620.7484">uses</text></g><!--link Feedback to PrintWriter--><g id="link_Feedback_PrintWriter"><path codeLine="123" d="M2408.57,404.16 C2438.77,497.14 2487.6363,647.5835 2506.6463,706.1035 " fill="none" id="Feedback-to-PrintWriter" style="stroke:#1F4E79;stroke-width:1.0;"/><polygon fill="#1F4E79" points="2508.5,711.81,2509.5237,702.0145,2506.9552,707.0546,2501.9151,704.4861,2508.5,711.81" style="stroke:#1F4E79;stroke-width:1.0;"/><text fill="#000000" font-family="sans-serif" font-size="13" lengthAdjust="spacing" textLength="29" x="2478.29" y="620.7484">uses</text></g><!--link Feedback to FileWriter--><g id="link_Feedback_FileWriter"><path codeLine="124" d="M2362.15,404.16 C2332.87,497.14 2285.5023,647.5671 2267.0723,706.0871 " fill="none" id="Feedback-to-FileWriter" style="stroke:#1F4E79;stroke-width:1.0;"/><polygon fill="#1F4E79" points="2265.27,711.81,2271.7888,704.4272,2266.772,707.0409,2264.1582,702.0241,2265.27,711.81" style="stroke:#1F4E79;stroke-width:1.0;"/><text fill="#000000" font-family="sans-serif" font-size="13" lengthAdjust="spacing" textLength="29" x="2296.53" y="620.7484">uses</text></g><!--SRC=[hLTDRziu4BtdLmZfOPsjiq20BOeKHG1RabilRCkGrOyz5On4EqHbKY2ff86H_xwaH4b3KKfzM1yIa_FuPZXyGux5Jq8BnD7HItCan1obFm-SbJJpMSwuzoQu2MyNYmlHWp6UOMuWx-Qty-1T7x9WL1h0pUBlyFrj7p3Zd3tPY49vHmViFM2KouSKSVmNnwdo9RpJnOMdFdzuiw9WXCeZfjBpDKyrNp5QjbCrhp_NtegbA0-Gn1xg47eCC0d7g9fFdWiiFDaC0MGdEQ47oB4CN7F6KiduaAL0alGNhOYG7zSu8waoCdhd5HoBb9Dxd7MpBbNAg2XpMLatJ681820BEuKe1Ooude64c3-I5DUx5jtWeiMyXOoJeJHEdUoflrDdszD-Ygw03sEIpDzzdGmO3bXk6w8H-mmUp0WcCAujivincwsUj9PqahAXUie2zZAZqDQCJTeNWzxqW1x4oERylYfi73nfXGPZ2_V8IAQK0ErYCYQJWK0AzHUcH0oprpazGwn3gzsT6kTK3vmLA0FPQw17d6tG4G_HksVlnYcSu5e9rr_Cjb-QcwkBmBcuWEda5lknjUfuNwtq3ceA7OJdPe3sjjyfQMsv_7snh7j-tIClYqoLXeFx7_BgKeIqF5P6hBuCsBiSRyDDiDnyQiUpxJQEleRT3Hs7_uH-0YRyQBrTXSrC6qIlpEq8UiREVH1kajcg7Qx3OEc3yUvB_CcQyAFDxiigcINBQ6Fxj-hJzcwPJkDS-lCzdltR3kQhA0f-9E4kiI8AumuI9P_3U0T3WM_mvSsbTtrzvrt-UGdKruGStUzBCL8Gq7O2Kj3Y86cZY0Sa7hOA_gHQX4dxsjJZAtUL2aizd4VLW-3FQkK4i7IFLOu8JV0lUJNgjNg9QYTBMfIozSmLjxJ42RUX4x76GgW69o07BAJtmIk5URdxG7s_iHmt4Ei6oUEg9ngvH1hhm3sI4NIWJ13XcivhTw9Iglp16yXaPayeofi5SUX7SV1ZiLo5xlLZmflqGvewaKp70nXvsXkkaTUnhSBVjm_6py33XHvnlOEaQbIqfDh-Pa0ou4KtEx_pSeQo-hkOFtSzpIZLgzUVVUXQElDolySSPzyuaPX3aRdO1SdnERY6CyOeEuVp79nEpUi8zGi1FKEOAOC5njcz-gdWL41hE8qstxqNr1ZtPg6fJm3GfyBLKdg0McuSJLpowGZd550vidhIPz2G9auBRCHKGLEMvpYLNGGfebJbMjJ_BN6q-T3PR80WvPPzgzisLmmMnjNBoty0]--></g></svg>