<?xml version="1.0" encoding="us-ascii" standalone="no"?><svg xmlns="http://www.w3.org/2000/svg" xmlns:xlink="http://www.w3.org/1999/xlink" contentStyleType="text/css" height="781px" preserveAspectRatio="none" style="width:3178px;height:781px;background:#FFFFFF;" version="1.1" viewBox="0 0 3178 781" width="3178px" zoomAndPan="magnify"><defs/><g><!--cluster healthcare--><g id="cluster_healthcare"><path d="M8.5,6 L83.5,6 A3.75,3.75 0 0 1 86,8.5 L93,28.4883 L3168.5,28.4883 A2.5,2.5 0 0 1 3171,30.9883 L3171,771.71 A2.5,2.5 0 0 1 3168.5,774.21 L8.5,774.21 A2.5,2.5 0 0 1 6,771.71 L6,8.5 A2.5,2.5 0 0 1 8.5,6 " fill="none" style="stroke:#000000;stroke-width:1.5;"/><line style="stroke:#000000;stroke-width:1.5;" x1="6" x2="93" y1="28.4883" y2="28.4883"/><text fill="#000000" font-family="sans-serif" font-size="14" font-weight="bold" lengthAdjust="spacing" textLength="74" x="10" y="21.5352">healthcare</text></g><!--cluster main--><g id="cluster_main"><path d="M1581.5,49 L1618.5,49 A3.75,3.75 0 0 1 1621,51.5 L1628,71.4883 L2286.5,71.4883 A2.5,2.5 0 0 1 2289,73.9883 L2289,524.73 A2.5,2.5 0 0 1 2286.5,527.23 L1581.5,527.23 A2.5,2.5 0 0 1 1579,524.73 L1579,51.5 A2.5,2.5 0 0 1 1581.5,49 " fill="none" style="stroke:#000000;stroke-width:1.5;"/><line style="stroke:#000000;stroke-width:1.5;" x1="1579" x2="1628" y1="71.4883" y2="71.4883"/><text fill="#000000" font-family="sans-serif" font-size="14" font-weight="bold" lengthAdjust="spacing" textLength="36" x="1583" y="64.5352">main</text></g><!--cluster records--><g id="cluster_records"><path d="M2697.5,238.62 L2751.5,238.62 A3.75,3.75 0 0 1 2754,241.12 L2761,261.1083 L2846.5,261.1083 A2.5,2.5 0 0 1 2849,263.6083 L2849,335.12 A2.5,2.5 0 0 1 2846.5,337.62 L2697.5,337.62 A2.5,2.5 0 0 1 2695,335.12 L2695,241.12 A2.5,2.5 0 0 1 2697.5,238.62 " fill="none" style="stroke:#000000;stroke-width:1.5;"/><line style="stroke:#000000;stroke-width:1.5;" x1="2695" x2="2761" y1="261.1083" y2="261.1083"/><text fill="#000000" font-family="sans-serif" font-size="14" font-weight="bold" lengthAdjust="spacing" textLength="53" x="2699" y="254.1552">records</text></g><!--cluster users--><g id="cluster_users"><path d="M32.5,551.23 L72.5,551.23 A3.75,3.75 0 0 1 75,553.73 L82,573.7183 L3144.5,573.7183 A2.5,2.5 0 0 1 3147,576.2183 L3147,747.71 A2.5,2.5 0 0 1 3144.5,750.21 L32.5,750.21 A2.5,2.5 0 0 1 30,747.71 L30,553.73 A2.5,2.5 0 0 1 32.5,551.23 " fill="none" style="stroke:#000000;stroke-width:1.5;"/><line style="stroke:#000000;stroke-width:1.5;" x1="30" x2="82" y1="573.7183" y2="573.7183"/><text fill="#000000" font-family="sans-serif" font-size="14" font-weight="bold" lengthAdjust="spacing" textLength="39" x="34" y="566.7652">users</text></g><!--cluster controllers--><g id="cluster_controllers"><path d="M56.5,594.23 L135.5,594.23 A3.75,3.75 0 0 1 138,596.73 L145,616.7183 L1590.5,616.7183 A2.5,2.5 0 0 1 1593,619.2183 L1593,723.71 A2.5,2.5 0 0 1 1590.5,726.21 L56.5,726.21 A2.5,2.5 0 0 1 54,723.71 L54,596.73 A2.5,2.5 0 0 1 56.5,594.23 " fill="none" style="stroke:#000000;stroke-width:1.5;"/><line style="stroke:#000000;stroke-width:1.5;" x1="54" x2="145" y1="616.7183" y2="616.7183"/><text fill="#000000" font-family="sans-serif" font-size="14" font-weight="bold" lengthAdjust="spacing" textLength="78" x="58" y="609.7652">controllers</text></g><!--cluster models--><g id="cluster_models"><path d="M1619.5,610.72 L1673.5,610.72 A3.75,3.75 0 0 1 1676,613.22 L1683,633.2083 L2310.5,633.2083 A2.5,2.5 0 0 1 2313,635.7083 L2313,707.22 A2.5,2.5 0 0 1 2310.5,709.72 L1619.5,709.72 A2.5,2.5 0 0 1 1617,707.22 L1617,613.22 A2.5,2.5 0 0 1 1619.5,610.72 " fill="none" style="stroke:#000000;stroke-width:1.5;"/><line style="stroke:#000000;stroke-width:1.5;" x1="1617" x2="1683" y1="633.2083" y2="633.2083"/><text fill="#000000" font-family="sans-serif" font-size="14" font-weight="bold" lengthAdjust="spacing" textLength="53" x="1621" y="626.2552">models</text></g><!--cluster view--><g id="cluster_view"><path d="M2339.5,610.72 L2373.5,610.72 A3.75,3.75 0 0 1 2376,613.22 L2383,633.2083 L3120.5,633.2083 A2.5,2.5 0 0 1 3123,635.7083 L3123,707.22 A2.5,2.5 0 0 1 3120.5,709.72 L2339.5,709.72 A2.5,2.5 0 0 1 2337,707.22 L2337,613.22 A2.5,2.5 0 0 1 2339.5,610.72 " fill="none" style="stroke:#000000;stroke-width:1.5;"/><line style="stroke:#000000;stroke-width:1.5;" x1="2337" x2="2383" y1="633.2083" y2="633.2083"/><text fill="#000000" font-family="sans-serif" font-size="14" font-weight="bold" lengthAdjust="spacing" textLength="33" x="2341" y="626.2552">view</text></g><!--class Main--><g id="elem_Main"><rect codeLine="2" fill="#F1F1F1" height="427.2305" id="Main" rx="2.5" ry="2.5" style="stroke:#181818;stroke-width:0.5;" width="678" x="1595" y="84"/><ellipse cx="1913.25" cy="100" fill="#ADD1B2" rx="11" ry="11" style="stroke:#181818;stroke-width:1.0;"/><path d="M1915.7231,106.1431 Q1915.1421,106.4419 1914.5029,106.5913 Q1913.8638,106.7407 1913.1582,106.7407 Q1910.6514,106.7407 1909.3315,105.0889 Q1908.0117,103.437 1908.0117,100.3159 Q1908.0117,97.1865 1909.3315,95.5347 Q1910.6514,93.8828 1913.1582,93.8828 Q1913.8638,93.8828 1914.5112,94.0322 Q1915.1587,94.1816 1915.7231,94.4805 L1915.7231,97.2031 Q1915.0923,96.6221 1914.4988,96.3523 Q1913.9053,96.0825 1913.2744,96.0825 Q1911.9297,96.0825 1911.2449,97.1492 Q1910.5601,98.2158 1910.5601,100.3159 Q1910.5601,102.4077 1911.2449,103.4744 Q1911.9297,104.541 1913.2744,104.541 Q1913.9053,104.541 1914.4988,104.2712 Q1915.0923,104.0015 1915.7231,103.4204 Z " fill="#000000"/><text fill="#000000" font-family="sans-serif" font-size="14" lengthAdjust="spacing" textLength="33" x="1933.75" y="105.291">Main</text><line style="stroke:#181818;stroke-width:0.5;" x1="1596" x2="2272" y1="116" y2="116"/><rect fill="none" height="6" style="stroke:#C82930;stroke-width:1.0;" width="6" x="1603" y="126.7441"/><text fill="#000000" font-family="sans-serif" font-size="14" lengthAdjust="spacing" textLength="73" x="1615" y="133.5352">Scanner sc</text><rect fill="none" height="6" style="stroke:#C82930;stroke-width:1.0;" width="6" x="1603" y="143.2324"/><text fill="#000000" font-family="sans-serif" font-size="14" lengthAdjust="spacing" textLength="140" x="1615" y="150.0234">String patientListFile</text><rect fill="none" height="6" style="stroke:#C82930;stroke-width:1.0;" width="6" x="1603" y="159.7207"/><text fill="#000000" font-family="sans-serif" font-size="14" lengthAdjust="spacing" textLength="137" x="1615" y="166.5117">String doctorListFile</text><rect fill="none" height="6" style="stroke:#C82930;stroke-width:1.0;" width="6" x="1603" y="176.209"/><text fill="#000000" font-family="sans-serif" font-size="14" lengthAdjust="spacing" textLength="122" x="1615" y="183">String staffListFile</text><rect fill="none" height="6" style="stroke:#C82930;stroke-width:1.0;" width="6" x="1603" y="192.6973"/><text fill="#000000" font-family="sans-serif" font-size="14" lengthAdjust="spacing" textLength="171" x="1615" y="199.4883">String staffPasswordsFile</text><rect fill="none" height="6" style="stroke:#C82930;stroke-width:1.0;" width="6" x="1603" y="209.1855"/><text fill="#000000" font-family="sans-serif" font-size="14" lengthAdjust="spacing" textLength="338" x="1615" y="215.9766">static Map&lt;String, PatientController&gt; patientMap</text><rect fill="none" height="6" style="stroke:#C82930;stroke-width:1.0;" width="6" x="1603" y="225.6738"/><text fill="#000000" font-family="sans-serif" font-size="14" lengthAdjust="spacing" textLength="334" x="1615" y="232.4648">static Map&lt;String, DoctorController&gt; doctorMap</text><rect fill="none" height="6" style="stroke:#C82930;stroke-width:1.0;" width="6" x="1603" y="242.1621"/><text fill="#000000" font-family="sans-serif" font-size="14" lengthAdjust="spacing" textLength="394" x="1615" y="248.9531">static Map&lt;String, PharmacistController&gt; pharmacistMap</text><rect fill="none" height="6" style="stroke:#C82930;stroke-width:1.0;" width="6" x="1603" y="258.6504"/><text fill="#000000" font-family="sans-serif" font-size="14" lengthAdjust="spacing" textLength="431" x="1615" y="265.4414">static Map&lt;String, AdministratorController&gt; administratorMap</text><line style="stroke:#181818;stroke-width:0.5;" x1="1596" x2="2272" y1="272.3945" y2="272.3945"/><ellipse cx="1606" cy="286.1387" fill="#84BE84" rx="3" ry="3" style="stroke:#038048;stroke-width:1.0;"/><text fill="#000000" font-family="sans-serif" font-size="14" lengthAdjust="spacing" textLength="162" x="1615" y="289.9297">void main(String[] args)</text><ellipse cx="1606" cy="302.627" fill="#84BE84" rx="3" ry="3" style="stroke:#038048;stroke-width:1.0;"/><text fill="#000000" font-family="sans-serif" font-size="14" lengthAdjust="spacing" textLength="304" x="1615" y="306.418">static String hashPassword(String password)</text><ellipse cx="1606" cy="319.1152" fill="#84BE84" rx="3" ry="3" style="stroke:#038048;stroke-width:1.0;"/><text fill="#000000" font-family="sans-serif" font-size="14" lengthAdjust="spacing" textLength="300" x="1615" y="322.9063">static void loadAllData() throws IOException</text><ellipse cx="1606" cy="335.6035" fill="#84BE84" rx="3" ry="3" style="stroke:#038048;stroke-width:1.0;"/><text fill="#000000" font-family="sans-serif" font-size="14" lengthAdjust="spacing" textLength="556" x="1615" y="339.3945">static Map&lt;String, PatientController&gt; loadPatientsFromCSV() throws IOException</text><ellipse cx="1606" cy="352.0918" fill="#84BE84" rx="3" ry="3" style="stroke:#038048;stroke-width:1.0;"/><text fill="#000000" font-family="sans-serif" font-size="14" lengthAdjust="spacing" textLength="554" x="1615" y="355.8828">static Map&lt;String, DoctorController&gt; loadDoctorsFromCSV() throws IOException</text><ellipse cx="1606" cy="368.5801" fill="#84BE84" rx="3" ry="3" style="stroke:#038048;stroke-width:1.0;"/><text fill="#000000" font-family="sans-serif" font-size="14" lengthAdjust="spacing" textLength="612" x="1615" y="372.3711">static Map&lt;String, PharmacistController&gt; loadPharmacistsFromCSV() throws IOException</text><ellipse cx="1606" cy="385.0684" fill="#84BE84" rx="3" ry="3" style="stroke:#038048;stroke-width:1.0;"/><text fill="#000000" font-family="sans-serif" font-size="14" lengthAdjust="spacing" textLength="652" x="1615" y="388.8594">static Map&lt;String, AdministratorController&gt; loadAdministratorsFromCSV() throws IOException</text><ellipse cx="1606" cy="401.5566" fill="#84BE84" rx="3" ry="3" style="stroke:#038048;stroke-width:1.0;"/><text fill="#000000" font-family="sans-serif" font-size="14" lengthAdjust="spacing" textLength="328" x="1615" y="405.3477">static void showMainMenu() throws IOException</text><ellipse cx="1606" cy="418.0449" fill="#84BE84" rx="3" ry="3" style="stroke:#038048;stroke-width:1.0;"/><text fill="#000000" font-family="sans-serif" font-size="14" lengthAdjust="spacing" textLength="137" x="1615" y="421.8359">static void exitApp()</text><ellipse cx="1606" cy="434.5332" fill="#84BE84" rx="3" ry="3" style="stroke:#038048;stroke-width:1.0;"/><text fill="#000000" font-family="sans-serif" font-size="14" lengthAdjust="spacing" textLength="167" x="1615" y="438.3242">static void registerUser()</text><ellipse cx="1606" cy="451.0215" fill="#84BE84" rx="3" ry="3" style="stroke:#038048;stroke-width:1.0;"/><text fill="#000000" font-family="sans-serif" font-size="14" lengthAdjust="spacing" textLength="261" x="1615" y="454.8125">static boolean isValidDate(String date)</text><ellipse cx="1606" cy="467.5098" fill="#84BE84" rx="3" ry="3" style="stroke:#038048;stroke-width:1.0;"/><text fill="#000000" font-family="sans-serif" font-size="14" lengthAdjust="spacing" textLength="169" x="1615" y="471.3008">static void displayMenu()</text><ellipse cx="1606" cy="483.998" fill="#84BE84" rx="3" ry="3" style="stroke:#038048;stroke-width:1.0;"/><text fill="#000000" font-family="sans-serif" font-size="14" lengthAdjust="spacing" textLength="181" x="1615" y="487.7891">static void registerAdmin()</text><ellipse cx="1606" cy="500.4863" fill="#84BE84" rx="3" ry="3" style="stroke:#038048;stroke-width:1.0;"/><text fill="#000000" font-family="sans-serif" font-size="14" lengthAdjust="spacing" textLength="341" x="1615" y="504.2773">static void showLoginScreen() throws IOException</text></g><!--class Appointment--><g id="elem_Appointment"><rect codeLine="30" fill="#F1F1F1" height="48" id="Appointment" rx="2.5" ry="2.5" style="stroke:#181818;stroke-width:0.5;" width="122" x="2711" y="273.62"/><ellipse cx="2726" cy="289.62" fill="#ADD1B2" rx="11" ry="11" style="stroke:#181818;stroke-width:1.0;"/><path d="M2728.4731,295.7631 Q2727.8921,296.0619 2727.2529,296.2113 Q2726.6138,296.3607 2725.9082,296.3607 Q2723.4014,296.3607 2722.0815,294.7089 Q2720.7617,293.057 2720.7617,289.9359 Q2720.7617,286.8065 2722.0815,285.1547 Q2723.4014,283.5028 2725.9082,283.5028 Q2726.6138,283.5028 2727.2612,283.6522 Q2727.9087,283.8016 2728.4731,284.1005 L2728.4731,286.8231 Q2727.8423,286.2421 2727.2488,285.9723 Q2726.6553,285.7025 2726.0244,285.7025 Q2724.6797,285.7025 2723.9949,286.7692 Q2723.3101,287.8358 2723.3101,289.9359 Q2723.3101,292.0277 2723.9949,293.0944 Q2724.6797,294.161 2726.0244,294.161 Q2726.6553,294.161 2727.2488,293.8912 Q2727.8423,293.6215 2728.4731,293.0404 Z " fill="#000000"/><text fill="#000000" font-family="sans-serif" font-size="14" lengthAdjust="spacing" textLength="90" x="2740" y="294.911">Appointment</text><line style="stroke:#181818;stroke-width:0.5;" x1="2712" x2="2832" y1="305.62" y2="305.62"/><line style="stroke:#181818;stroke-width:0.5;" x1="2712" x2="2832" y1="313.62" y2="313.62"/></g><!--class UserController--><g id="elem_UserController"><rect codeLine="34" fill="#F1F1F1" height="80.9766" id="UserController" rx="2.5" ry="2.5" style="stroke:#181818;stroke-width:0.5;" width="652" x="70" y="629.23"/><ellipse cx="341.25" cy="645.23" fill="#ADD1B2" rx="11" ry="11" style="stroke:#181818;stroke-width:1.0;"/><path d="M343.7231,651.3731 Q343.1421,651.6719 342.5029,651.8213 Q341.8638,651.9707 341.1582,651.9707 Q338.6514,651.9707 337.3315,650.3189 Q336.0117,648.667 336.0117,645.5459 Q336.0117,642.4165 337.3315,640.7647 Q338.6514,639.1128 341.1582,639.1128 Q341.8638,639.1128 342.5112,639.2622 Q343.1587,639.4116 343.7231,639.7105 L343.7231,642.4331 Q343.0923,641.8521 342.4988,641.5823 Q341.9053,641.3125 341.2744,641.3125 Q339.9297,641.3125 339.2449,642.3792 Q338.5601,643.4458 338.5601,645.5459 Q338.5601,647.6377 339.2449,648.7044 Q339.9297,649.771 341.2744,649.771 Q341.9053,649.771 342.4988,649.5012 Q343.0923,649.2315 343.7231,648.6504 Z " fill="#000000"/><text fill="#000000" font-family="sans-serif" font-size="14" lengthAdjust="spacing" textLength="101" x="361.75" y="650.521">UserController</text><line style="stroke:#181818;stroke-width:0.5;" x1="71" x2="721" y1="661.23" y2="661.23"/><line style="stroke:#181818;stroke-width:0.5;" x1="71" x2="721" y1="669.23" y2="669.23"/><ellipse cx="81" cy="682.9741" fill="#84BE84" rx="3" ry="3" style="stroke:#038048;stroke-width:1.0;"/><text fill="#000000" font-family="sans-serif" font-size="14" lengthAdjust="spacing" textLength="179" x="90" y="686.7652">static void initializeUsers()</text><ellipse cx="81" cy="699.4624" fill="#84BE84" rx="3" ry="3" style="stroke:#038048;stroke-width:1.0;"/><text fill="#000000" font-family="sans-serif" font-size="14" lengthAdjust="spacing" textLength="626" x="90" y="703.2534">static void changeUserPassword(String hospitalId, String newPassword) throws IOException</text></g><!--class PatientController--><g id="elem_PatientController"><rect codeLine="38" fill="#F1F1F1" height="64.4883" id="PatientController" rx="2.5" ry="2.5" style="stroke:#181818;stroke-width:0.5;" width="190" x="757" y="637.48"/><ellipse cx="790.45" cy="653.48" fill="#ADD1B2" rx="11" ry="11" style="stroke:#181818;stroke-width:1.0;"/><path d="M792.9231,659.6231 Q792.3421,659.9219 791.7029,660.0713 Q791.0638,660.2207 790.3582,660.2207 Q787.8514,660.2207 786.5315,658.5689 Q785.2117,656.917 785.2117,653.7959 Q785.2117,650.6665 786.5315,649.0147 Q787.8514,647.3628 790.3582,647.3628 Q791.0638,647.3628 791.7112,647.5122 Q792.3587,647.6616 792.9231,647.9605 L792.9231,650.6831 Q792.2923,650.1021 791.6988,649.8323 Q791.1053,649.5625 790.4744,649.5625 Q789.1297,649.5625 788.4449,650.6292 Q787.7601,651.6958 787.7601,653.7959 Q787.7601,655.8877 788.4449,656.9544 Q789.1297,658.021 790.4744,658.021 Q791.1053,658.021 791.6988,657.7512 Q792.2923,657.4815 792.9231,656.9004 Z " fill="#000000"/><text fill="#000000" font-family="sans-serif" font-size="14" lengthAdjust="spacing" textLength="117" x="808.55" y="658.771">PatientController</text><line style="stroke:#181818;stroke-width:0.5;" x1="758" x2="946" y1="669.48" y2="669.48"/><line style="stroke:#181818;stroke-width:0.5;" x1="758" x2="946" y1="677.48" y2="677.48"/><ellipse cx="768" cy="691.2241" fill="#84BE84" rx="3" ry="3" style="stroke:#038048;stroke-width:1.0;"/><text fill="#000000" font-family="sans-serif" font-size="14" lengthAdjust="spacing" textLength="164" x="777" y="695.0152">void showPatientMenu()</text></g><!--class DoctorController--><g id="elem_DoctorController"><rect codeLine="41" fill="#F1F1F1" height="64.4883" id="DoctorController" rx="2.5" ry="2.5" style="stroke:#181818;stroke-width:0.5;" width="148" x="982" y="637.48"/><ellipse cx="997" cy="653.48" fill="#ADD1B2" rx="11" ry="11" style="stroke:#181818;stroke-width:1.0;"/><path d="M999.4731,659.6231 Q998.8921,659.9219 998.2529,660.0713 Q997.6138,660.2207 996.9082,660.2207 Q994.4014,660.2207 993.0815,658.5689 Q991.7617,656.917 991.7617,653.7959 Q991.7617,650.6665 993.0815,649.0147 Q994.4014,647.3628 996.9082,647.3628 Q997.6138,647.3628 998.2612,647.5122 Q998.9087,647.6616 999.4731,647.9605 L999.4731,650.6831 Q998.8423,650.1021 998.2488,649.8323 Q997.6553,649.5625 997.0244,649.5625 Q995.6797,649.5625 994.9949,650.6292 Q994.3101,651.6958 994.3101,653.7959 Q994.3101,655.8877 994.9949,656.9544 Q995.6797,658.021 997.0244,658.021 Q997.6553,658.021 998.2488,657.7512 Q998.8423,657.4815 999.4731,656.9004 Z " fill="#000000"/><text fill="#000000" font-family="sans-serif" font-size="14" lengthAdjust="spacing" textLength="116" x="1011" y="658.771">DoctorController</text><line style="stroke:#181818;stroke-width:0.5;" x1="983" x2="1129" y1="669.48" y2="669.48"/><line style="stroke:#181818;stroke-width:0.5;" x1="983" x2="1129" y1="677.48" y2="677.48"/><ellipse cx="993" cy="691.2241" fill="#84BE84" rx="3" ry="3" style="stroke:#038048;stroke-width:1.0;"/><text fill="#000000" font-family="sans-serif" font-size="14" lengthAdjust="spacing" textLength="117" x="1002" y="695.0152">void showMenu()</text></g><!--class PharmacistController--><g id="elem_PharmacistController"><rect codeLine="44" fill="#F1F1F1" height="64.4883" id="PharmacistController" rx="2.5" ry="2.5" style="stroke:#181818;stroke-width:0.5;" width="177" x="1165.5" y="637.48"/><ellipse cx="1180.5" cy="653.48" fill="#ADD1B2" rx="11" ry="11" style="stroke:#181818;stroke-width:1.0;"/><path d="M1182.9731,659.6231 Q1182.3921,659.9219 1181.7529,660.0713 Q1181.1138,660.2207 1180.4082,660.2207 Q1177.9014,660.2207 1176.5815,658.5689 Q1175.2617,656.917 1175.2617,653.7959 Q1175.2617,650.6665 1176.5815,649.0147 Q1177.9014,647.3628 1180.4082,647.3628 Q1181.1138,647.3628 1181.7612,647.5122 Q1182.4087,647.6616 1182.9731,647.9605 L1182.9731,650.6831 Q1182.3423,650.1021 1181.7488,649.8323 Q1181.1553,649.5625 1180.5244,649.5625 Q1179.1797,649.5625 1178.4949,650.6292 Q1177.8101,651.6958 1177.8101,653.7959 Q1177.8101,655.8877 1178.4949,656.9544 Q1179.1797,658.021 1180.5244,658.021 Q1181.1553,658.021 1181.7488,657.7512 Q1182.3423,657.4815 1182.9731,656.9004 Z " fill="#000000"/><text fill="#000000" font-family="sans-serif" font-size="14" lengthAdjust="spacing" textLength="145" x="1194.5" y="658.771">PharmacistController</text><line style="stroke:#181818;stroke-width:0.5;" x1="1166.5" x2="1341.5" y1="669.48" y2="669.48"/><line style="stroke:#181818;stroke-width:0.5;" x1="1166.5" x2="1341.5" y1="677.48" y2="677.48"/><ellipse cx="1176.5" cy="691.2241" fill="#84BE84" rx="3" ry="3" style="stroke:#038048;stroke-width:1.0;"/><text fill="#000000" font-family="sans-serif" font-size="14" lengthAdjust="spacing" textLength="117" x="1185.5" y="695.0152">void showMenu()</text></g><!--class AdministratorController--><g id="elem_AdministratorController"><rect codeLine="47" fill="#F1F1F1" height="64.4883" id="AdministratorController" rx="2.5" ry="2.5" style="stroke:#181818;stroke-width:0.5;" width="200" x="1377" y="637.48"/><ellipse cx="1393.35" cy="653.48" fill="#ADD1B2" rx="11" ry="11" style="stroke:#181818;stroke-width:1.0;"/><path d="M1395.8231,659.6231 Q1395.2421,659.9219 1394.6029,660.0713 Q1393.9638,660.2207 1393.2582,660.2207 Q1390.7514,660.2207 1389.4315,658.5689 Q1388.1117,656.917 1388.1117,653.7959 Q1388.1117,650.6665 1389.4315,649.0147 Q1390.7514,647.3628 1393.2582,647.3628 Q1393.9638,647.3628 1394.6112,647.5122 Q1395.2587,647.6616 1395.8231,647.9605 L1395.8231,650.6831 Q1395.1923,650.1021 1394.5988,649.8323 Q1394.0053,649.5625 1393.3744,649.5625 Q1392.0297,649.5625 1391.3449,650.6292 Q1390.6601,651.6958 1390.6601,653.7959 Q1390.6601,655.8877 1391.3449,656.9544 Q1392.0297,658.021 1393.3744,658.021 Q1394.0053,658.021 1394.5988,657.7512 Q1395.1923,657.4815 1395.8231,656.9004 Z " fill="#000000"/><text fill="#000000" font-family="sans-serif" font-size="14" lengthAdjust="spacing" textLength="165" x="1407.65" y="658.771">AdministratorController</text><line style="stroke:#181818;stroke-width:0.5;" x1="1378" x2="1576" y1="669.48" y2="669.48"/><line style="stroke:#181818;stroke-width:0.5;" x1="1378" x2="1576" y1="677.48" y2="677.48"/><ellipse cx="1388" cy="691.2241" fill="#84BE84" rx="3" ry="3" style="stroke:#038048;stroke-width:1.0;"/><text fill="#000000" font-family="sans-serif" font-size="14" lengthAdjust="spacing" textLength="174" x="1397" y="695.0152">void administratorMenu()</text></g><!--class PatientModel--><g id="elem_PatientModel"><rect codeLine="53" fill="#F1F1F1" height="48" id="PatientModel" rx="2.5" ry="2.5" style="stroke:#181818;stroke-width:0.5;" width="121" x="1633.5" y="645.72"/><ellipse cx="1648.5" cy="661.72" fill="#ADD1B2" rx="11" ry="11" style="stroke:#181818;stroke-width:1.0;"/><path d="M1650.9731,667.8631 Q1650.3921,668.1619 1649.7529,668.3113 Q1649.1138,668.4607 1648.4082,668.4607 Q1645.9014,668.4607 1644.5815,666.8089 Q1643.2617,665.157 1643.2617,662.0359 Q1643.2617,658.9065 1644.5815,657.2547 Q1645.9014,655.6028 1648.4082,655.6028 Q1649.1138,655.6028 1649.7612,655.7522 Q1650.4087,655.9016 1650.9731,656.2005 L1650.9731,658.9231 Q1650.3423,658.3421 1649.7488,658.0723 Q1649.1553,657.8025 1648.5244,657.8025 Q1647.1797,657.8025 1646.4949,658.8692 Q1645.8101,659.9358 1645.8101,662.0359 Q1645.8101,664.1277 1646.4949,665.1944 Q1647.1797,666.261 1648.5244,666.261 Q1649.1553,666.261 1649.7488,665.9912 Q1650.3423,665.7215 1650.9731,665.1404 Z " fill="#000000"/><text fill="#000000" font-family="sans-serif" font-size="14" lengthAdjust="spacing" textLength="89" x="1662.5" y="667.011">PatientModel</text><line style="stroke:#181818;stroke-width:0.5;" x1="1634.5" x2="1753.5" y1="677.72" y2="677.72"/><line style="stroke:#181818;stroke-width:0.5;" x1="1634.5" x2="1753.5" y1="685.72" y2="685.72"/></g><!--class DoctorModel--><g id="elem_DoctorModel"><rect codeLine="54" fill="#F1F1F1" height="48" id="DoctorModel" rx="2.5" ry="2.5" style="stroke:#181818;stroke-width:0.5;" width="120" x="1790" y="645.72"/><ellipse cx="1805" cy="661.72" fill="#ADD1B2" rx="11" ry="11" style="stroke:#181818;stroke-width:1.0;"/><path d="M1807.4731,667.8631 Q1806.8921,668.1619 1806.2529,668.3113 Q1805.6138,668.4607 1804.9082,668.4607 Q1802.4014,668.4607 1801.0815,666.8089 Q1799.7617,665.157 1799.7617,662.0359 Q1799.7617,658.9065 1801.0815,657.2547 Q1802.4014,655.6028 1804.9082,655.6028 Q1805.6138,655.6028 1806.2612,655.7522 Q1806.9087,655.9016 1807.4731,656.2005 L1807.4731,658.9231 Q1806.8423,658.3421 1806.2488,658.0723 Q1805.6553,657.8025 1805.0244,657.8025 Q1803.6797,657.8025 1802.9949,658.8692 Q1802.3101,659.9358 1802.3101,662.0359 Q1802.3101,664.1277 1802.9949,665.1944 Q1803.6797,666.261 1805.0244,666.261 Q1805.6553,666.261 1806.2488,665.9912 Q1806.8423,665.7215 1807.4731,665.1404 Z " fill="#000000"/><text fill="#000000" font-family="sans-serif" font-size="14" lengthAdjust="spacing" textLength="88" x="1819" y="667.011">DoctorModel</text><line style="stroke:#181818;stroke-width:0.5;" x1="1791" x2="1909" y1="677.72" y2="677.72"/><line style="stroke:#181818;stroke-width:0.5;" x1="1791" x2="1909" y1="685.72" y2="685.72"/></g><!--class PharmacistModel--><g id="elem_PharmacistModel"><rect codeLine="55" fill="#F1F1F1" height="48" id="PharmacistModel" rx="2.5" ry="2.5" style="stroke:#181818;stroke-width:0.5;" width="149" x="1944.5" y="645.72"/><ellipse cx="1959.5" cy="661.72" fill="#ADD1B2" rx="11" ry="11" style="stroke:#181818;stroke-width:1.0;"/><path d="M1961.9731,667.8631 Q1961.3921,668.1619 1960.7529,668.3113 Q1960.1138,668.4607 1959.4082,668.4607 Q1956.9014,668.4607 1955.5815,666.8089 Q1954.2617,665.157 1954.2617,662.0359 Q1954.2617,658.9065 1955.5815,657.2547 Q1956.9014,655.6028 1959.4082,655.6028 Q1960.1138,655.6028 1960.7612,655.7522 Q1961.4087,655.9016 1961.9731,656.2005 L1961.9731,658.9231 Q1961.3423,658.3421 1960.7488,658.0723 Q1960.1553,657.8025 1959.5244,657.8025 Q1958.1797,657.8025 1957.4949,658.8692 Q1956.8101,659.9358 1956.8101,662.0359 Q1956.8101,664.1277 1957.4949,665.1944 Q1958.1797,666.261 1959.5244,666.261 Q1960.1553,666.261 1960.7488,665.9912 Q1961.3423,665.7215 1961.9731,665.1404 Z " fill="#000000"/><text fill="#000000" font-family="sans-serif" font-size="14" lengthAdjust="spacing" textLength="117" x="1973.5" y="667.011">PharmacistModel</text><line style="stroke:#181818;stroke-width:0.5;" x1="1945.5" x2="2092.5" y1="677.72" y2="677.72"/><line style="stroke:#181818;stroke-width:0.5;" x1="1945.5" x2="2092.5" y1="685.72" y2="685.72"/></g><!--class AdministratorModel--><g id="elem_AdministratorModel"><rect codeLine="56" fill="#F1F1F1" height="48" id="AdministratorModel" rx="2.5" ry="2.5" style="stroke:#181818;stroke-width:0.5;" width="169" x="2128.5" y="645.72"/><ellipse cx="2143.5" cy="661.72" fill="#ADD1B2" rx="11" ry="11" style="stroke:#181818;stroke-width:1.0;"/><path d="M2145.9731,667.8631 Q2145.3921,668.1619 2144.7529,668.3113 Q2144.1138,668.4607 2143.4082,668.4607 Q2140.9014,668.4607 2139.5815,666.8089 Q2138.2617,665.157 2138.2617,662.0359 Q2138.2617,658.9065 2139.5815,657.2547 Q2140.9014,655.6028 2143.4082,655.6028 Q2144.1138,655.6028 2144.7612,655.7522 Q2145.4087,655.9016 2145.9731,656.2005 L2145.9731,658.9231 Q2145.3423,658.3421 2144.7488,658.0723 Q2144.1553,657.8025 2143.5244,657.8025 Q2142.1797,657.8025 2141.4949,658.8692 Q2140.8101,659.9358 2140.8101,662.0359 Q2140.8101,664.1277 2141.4949,665.1944 Q2142.1797,666.261 2143.5244,666.261 Q2144.1553,666.261 2144.7488,665.9912 Q2145.3423,665.7215 2145.9731,665.1404 Z " fill="#000000"/><text fill="#000000" font-family="sans-serif" font-size="14" lengthAdjust="spacing" textLength="137" x="2157.5" y="667.011">AdministratorModel</text><line style="stroke:#181818;stroke-width:0.5;" x1="2129.5" x2="2296.5" y1="677.72" y2="677.72"/><line style="stroke:#181818;stroke-width:0.5;" x1="2129.5" x2="2296.5" y1="685.72" y2="685.72"/></g><!--class UserView--><g id="elem_UserView"><rect codeLine="60" fill="#F1F1F1" height="48" id="UserView" rx="2.5" ry="2.5" style="stroke:#181818;stroke-width:0.5;" width="95" x="2352.5" y="645.72"/><ellipse cx="2367.5" cy="661.72" fill="#ADD1B2" rx="11" ry="11" style="stroke:#181818;stroke-width:1.0;"/><path d="M2369.9731,667.8631 Q2369.3921,668.1619 2368.7529,668.3113 Q2368.1138,668.4607 2367.4082,668.4607 Q2364.9014,668.4607 2363.5815,666.8089 Q2362.2617,665.157 2362.2617,662.0359 Q2362.2617,658.9065 2363.5815,657.2547 Q2364.9014,655.6028 2367.4082,655.6028 Q2368.1138,655.6028 2368.7612,655.7522 Q2369.4087,655.9016 2369.9731,656.2005 L2369.9731,658.9231 Q2369.3423,658.3421 2368.7488,658.0723 Q2368.1553,657.8025 2367.5244,657.8025 Q2366.1797,657.8025 2365.4949,658.8692 Q2364.8101,659.9358 2364.8101,662.0359 Q2364.8101,664.1277 2365.4949,665.1944 Q2366.1797,666.261 2367.5244,666.261 Q2368.1553,666.261 2368.7488,665.9912 Q2369.3423,665.7215 2369.9731,665.1404 Z " fill="#000000"/><text fill="#000000" font-family="sans-serif" font-size="14" lengthAdjust="spacing" textLength="63" x="2381.5" y="667.011">UserView</text><line style="stroke:#181818;stroke-width:0.5;" x1="2353.5" x2="2446.5" y1="677.72" y2="677.72"/><line style="stroke:#181818;stroke-width:0.5;" x1="2353.5" x2="2446.5" y1="685.72" y2="685.72"/></g><!--class PatientView--><g id="elem_PatientView"><rect codeLine="61" fill="#F1F1F1" height="48" id="PatientView" rx="2.5" ry="2.5" style="stroke:#181818;stroke-width:0.5;" width="111" x="2482.5" y="645.72"/><ellipse cx="2497.5" cy="661.72" fill="#ADD1B2" rx="11" ry="11" style="stroke:#181818;stroke-width:1.0;"/><path d="M2499.9731,667.8631 Q2499.3921,668.1619 2498.7529,668.3113 Q2498.1138,668.4607 2497.4082,668.4607 Q2494.9014,668.4607 2493.5815,666.8089 Q2492.2617,665.157 2492.2617,662.0359 Q2492.2617,658.9065 2493.5815,657.2547 Q2494.9014,655.6028 2497.4082,655.6028 Q2498.1138,655.6028 2498.7612,655.7522 Q2499.4087,655.9016 2499.9731,656.2005 L2499.9731,658.9231 Q2499.3423,658.3421 2498.7488,658.0723 Q2498.1553,657.8025 2497.5244,657.8025 Q2496.1797,657.8025 2495.4949,658.8692 Q2494.8101,659.9358 2494.8101,662.0359 Q2494.8101,664.1277 2495.4949,665.1944 Q2496.1797,666.261 2497.5244,666.261 Q2498.1553,666.261 2498.7488,665.9912 Q2499.3423,665.7215 2499.9731,665.1404 Z " fill="#000000"/><text fill="#000000" font-family="sans-serif" font-size="14" lengthAdjust="spacing" textLength="79" x="2511.5" y="667.011">PatientView</text><line style="stroke:#181818;stroke-width:0.5;" x1="2483.5" x2="2592.5" y1="677.72" y2="677.72"/><line style="stroke:#181818;stroke-width:0.5;" x1="2483.5" x2="2592.5" y1="685.72" y2="685.72"/></g><!--class DoctorView--><g id="elem_DoctorView"><rect codeLine="62" fill="#F1F1F1" height="48" id="DoctorView" rx="2.5" ry="2.5" style="stroke:#181818;stroke-width:0.5;" width="110" x="2629" y="645.72"/><ellipse cx="2644" cy="661.72" fill="#ADD1B2" rx="11" ry="11" style="stroke:#181818;stroke-width:1.0;"/><path d="M2646.4731,667.8631 Q2645.8921,668.1619 2645.2529,668.3113 Q2644.6138,668.4607 2643.9082,668.4607 Q2641.4014,668.4607 2640.0815,666.8089 Q2638.7617,665.157 2638.7617,662.0359 Q2638.7617,658.9065 2640.0815,657.2547 Q2641.4014,655.6028 2643.9082,655.6028 Q2644.6138,655.6028 2645.2612,655.7522 Q2645.9087,655.9016 2646.4731,656.2005 L2646.4731,658.9231 Q2645.8423,658.3421 2645.2488,658.0723 Q2644.6553,657.8025 2644.0244,657.8025 Q2642.6797,657.8025 2641.9949,658.8692 Q2641.3101,659.9358 2641.3101,662.0359 Q2641.3101,664.1277 2641.9949,665.1944 Q2642.6797,666.261 2644.0244,666.261 Q2644.6553,666.261 2645.2488,665.9912 Q2645.8423,665.7215 2646.4731,665.1404 Z " fill="#000000"/><text fill="#000000" font-family="sans-serif" font-size="14" lengthAdjust="spacing" textLength="78" x="2658" y="667.011">DoctorView</text><line style="stroke:#181818;stroke-width:0.5;" x1="2630" x2="2738" y1="677.72" y2="677.72"/><line style="stroke:#181818;stroke-width:0.5;" x1="2630" x2="2738" y1="685.72" y2="685.72"/></g><!--class PharmacistView--><g id="elem_PharmacistView"><rect codeLine="63" fill="#F1F1F1" height="48" id="PharmacistView" rx="2.5" ry="2.5" style="stroke:#181818;stroke-width:0.5;" width="139" x="2774.5" y="645.72"/><ellipse cx="2789.5" cy="661.72" fill="#ADD1B2" rx="11" ry="11" style="stroke:#181818;stroke-width:1.0;"/><path d="M2791.9731,667.8631 Q2791.3921,668.1619 2790.7529,668.3113 Q2790.1138,668.4607 2789.4082,668.4607 Q2786.9014,668.4607 2785.5815,666.8089 Q2784.2617,665.157 2784.2617,662.0359 Q2784.2617,658.9065 2785.5815,657.2547 Q2786.9014,655.6028 2789.4082,655.6028 Q2790.1138,655.6028 2790.7612,655.7522 Q2791.4087,655.9016 2791.9731,656.2005 L2791.9731,658.9231 Q2791.3423,658.3421 2790.7488,658.0723 Q2790.1553,657.8025 2789.5244,657.8025 Q2788.1797,657.8025 2787.4949,658.8692 Q2786.8101,659.9358 2786.8101,662.0359 Q2786.8101,664.1277 2787.4949,665.1944 Q2788.1797,666.261 2789.5244,666.261 Q2790.1553,666.261 2790.7488,665.9912 Q2791.3423,665.7215 2791.9731,665.1404 Z " fill="#000000"/><text fill="#000000" font-family="sans-serif" font-size="14" lengthAdjust="spacing" textLength="107" x="2803.5" y="667.011">PharmacistView</text><line style="stroke:#181818;stroke-width:0.5;" x1="2775.5" x2="2912.5" y1="677.72" y2="677.72"/><line style="stroke:#181818;stroke-width:0.5;" x1="2775.5" x2="2912.5" y1="685.72" y2="685.72"/></g><!--class AdministratorView--><g id="elem_AdministratorView"><rect codeLine="64" fill="#F1F1F1" height="48" id="AdministratorView" rx="2.5" ry="2.5" style="stroke:#181818;stroke-width:0.5;" width="159" x="2948.5" y="645.72"/><ellipse cx="2963.5" cy="661.72" fill="#ADD1B2" rx="11" ry="11" style="stroke:#181818;stroke-width:1.0;"/><path d="M2965.9731,667.8631 Q2965.3921,668.1619 2964.7529,668.3113 Q2964.1138,668.4607 2963.4082,668.4607 Q2960.9014,668.4607 2959.5815,666.8089 Q2958.2617,665.157 2958.2617,662.0359 Q2958.2617,658.9065 2959.5815,657.2547 Q2960.9014,655.6028 2963.4082,655.6028 Q2964.1138,655.6028 2964.7612,655.7522 Q2965.4087,655.9016 2965.9731,656.2005 L2965.9731,658.9231 Q2965.3423,658.3421 2964.7488,658.0723 Q2964.1553,657.8025 2963.5244,657.8025 Q2962.1797,657.8025 2961.4949,658.8692 Q2960.8101,659.9358 2960.8101,662.0359 Q2960.8101,664.1277 2961.4949,665.1944 Q2962.1797,666.261 2963.5244,666.261 Q2964.1553,666.261 2964.7488,665.9912 Q2965.3423,665.7215 2965.9731,665.1404 Z " fill="#000000"/><text fill="#000000" font-family="sans-serif" font-size="14" lengthAdjust="spacing" textLength="127" x="2977.5" y="667.011">AdministratorView</text><line style="stroke:#181818;stroke-width:0.5;" x1="2949.5" x2="3106.5" y1="677.72" y2="677.72"/><line style="stroke:#181818;stroke-width:0.5;" x1="2949.5" x2="3106.5" y1="685.72" y2="685.72"/></g><!--link Main to UserController--><g id="link_Main_UserController"><path codeLine="68" d="M1594.68,354.19 C1353.7,397.01 1023.72,462.49 739,543.23 C654.51,567.19 566.6304,599.7557 498.6304,626.6157 " fill="none" id="Main-to-UserController" style="stroke:#181818;stroke-width:1.0;"/><polygon fill="#181818" points="493.05,628.82,502.8902,629.2339,497.7004,626.9831,499.9511,621.7933,493.05,628.82" style="stroke:#181818;stroke-width:1.0;"/></g><!--link Main to PatientController--><g id="link_Main_PatientController"><path codeLine="69" d="M1594.75,334.03 C1399.25,366.26 1155.17,427.45 964,543.23 C925.04,566.83 895.382,603.3346 875.492,632.1046 " fill="none" id="Main-to-PatientController" style="stroke:#181818;stroke-width:1.0;"/><polygon fill="#181818" points="872.08,637.04,880.4883,631.9116,874.9234,632.9272,873.9078,627.3622,872.08,637.04" style="stroke:#181818;stroke-width:1.0;"/></g><!--link Main to DoctorController--><g id="link_Main_DoctorController"><path codeLine="70" d="M1594.78,354.62 C1447.61,390.88 1279.3,449.51 1148,543.23 C1113.81,567.64 1090.0946,603.4389 1074.4846,631.9089 " fill="none" id="Main-to-DoctorController" style="stroke:#181818;stroke-width:1.0;"/><polygon fill="#181818" points="1071.6,637.17,1079.4343,631.2015,1074.0039,632.7858,1072.4196,627.3553,1071.6,637.17" style="stroke:#181818;stroke-width:1.0;"/></g><!--link Main to PharmacistController--><g id="link_Main_PharmacistController"><path codeLine="71" d="M1594.59,411.72 C1513.32,447.04 1429.69,490.81 1359,543.23 C1323.86,569.29 1296.3843,604.4555 1277.3743,632.2855 " fill="none" id="Main-to-PharmacistController" style="stroke:#181818;stroke-width:1.0;"/><polygon fill="#181818" points="1273.99,637.24,1282.3694,632.0645,1276.8102,633.1113,1275.7634,627.5521,1273.99,637.24" style="stroke:#181818;stroke-width:1.0;"/></g><!--link Main to AdministratorController--><g id="link_Main_AdministratorController"><path codeLine="72" d="M1655.6,511.57 C1642.48,522.19 1629.56,532.78 1617,543.23 C1579.87,574.13 1543.2902,607.1818 1515.3102,632.9918 " fill="none" id="Main-to-AdministratorController" style="stroke:#181818;stroke-width:1.0;"/><polygon fill="#181818" points="1510.9,637.06,1520.2274,633.8979,1514.5752,633.6699,1514.8032,628.0176,1510.9,637.06" style="stroke:#181818;stroke-width:1.0;"/></g><!--link Main to PatientModel--><g id="link_Main_PatientModel"><path codeLine="74" d="M1792.49,511.51 C1785.53,522.22 1778.67,532.84 1772,543.23 C1749.28,578.64 1726.7924,615.0626 1711.3124,640.3526 " fill="none" id="Main-to-PatientModel" style="stroke:#181818;stroke-width:1.0;"/><polygon fill="#181818" points="1708.18,645.47,1716.2902,639.8821,1710.7903,641.2055,1709.4669,635.7056,1708.18,645.47" style="stroke:#181818;stroke-width:1.0;"/></g><!--link Main to DoctorModel--><g id="link_Main_DoctorModel"><path codeLine="75" d="M1885.68,511.5 C1873.34,565.88 1863.0666,611.1285 1856.6166,639.5785 " fill="none" id="Main-to-DoctorModel" style="stroke:#181818;stroke-width:1.0;"/><polygon fill="#181818" points="1855.29,645.43,1861.1809,637.5372,1856.3955,640.5537,1853.3789,635.7683,1855.29,645.43" style="stroke:#181818;stroke-width:1.0;"/></g><!--link Main to PharmacistModel--><g id="link_Main_PharmacistModel"><path codeLine="76" d="M1982.89,511.5 C1995.38,565.88 2005.7777,611.1321 2012.3077,639.5821 " fill="none" id="Main-to-PharmacistModel" style="stroke:#181818;stroke-width:1.0;"/><polygon fill="#181818" points="2013.65,645.43,2015.5352,635.7633,2012.5315,640.5567,2007.738,637.5529,2013.65,645.43" style="stroke:#181818;stroke-width:1.0;"/></g><!--link Main to AdministratorModel--><g id="link_Main_AdministratorModel"><path codeLine="77" d="M2094.48,511.5 C2135.47,565.88 2170.3779,612.1891 2191.8279,640.6391 " fill="none" id="Main-to-AdministratorModel" style="stroke:#181818;stroke-width:1.0;"/><polygon fill="#181818" points="2195.44,645.43,2193.2158,635.8356,2192.4299,641.4376,2186.8279,640.6517,2195.44,645.43" style="stroke:#181818;stroke-width:1.0;"/></g><!--link Main to UserView--><g id="link_Main_UserView"><path codeLine="79" d="M2273.12,507.32 C2286.97,518.99 2300.34,530.98 2313,543.23 C2345.01,574.2 2369.5281,613.3408 2384.6281,640.1808 " fill="none" id="Main-to-UserView" style="stroke:#181818;stroke-width:1.0;"/><polygon fill="#181818" points="2387.57,645.41,2386.6433,635.6048,2385.1184,641.0523,2379.6709,639.5274,2387.57,645.41" style="stroke:#181818;stroke-width:1.0;"/></g><!--link Main to PatientView--><g id="link_Main_PatientView"><path codeLine="80" d="M2273.27,417.12 C2341.61,450.96 2409.42,492.71 2465,543.23 C2496.7,572.06 2516.2561,612.3714 2527.3161,639.9414 " fill="none" id="Main-to-PatientView" style="stroke:#181818;stroke-width:1.0;"/><polygon fill="#181818" points="2529.55,645.51,2529.9115,635.6678,2527.6884,640.8695,2522.4867,638.6463,2529.55,645.51" style="stroke:#181818;stroke-width:1.0;"/></g><!--link Main to DoctorView--><g id="link_Main_DoctorView"><path codeLine="81" d="M2273.16,370.67 C2389.5,407.79 2514.56,462.77 2611,543.23 C2644.09,570.84 2663.4244,611.9491 2674.0244,639.9291 " fill="none" id="Main-to-DoctorView" style="stroke:#181818;stroke-width:1.0;"/><polygon fill="#181818" points="2676.15,645.54,2676.7021,635.7066,2674.3786,640.8643,2669.221,638.5408,2676.15,645.54" style="stroke:#181818;stroke-width:1.0;"/></g><!--link Main to PharmacistView--><g id="link_Main_PharmacistView"><path codeLine="82" d="M2273.47,417.97 C2403.93,460.18 2555.09,504.7 2695,535.23 C2722.14,541.16 2733.26,528.8 2757,543.23 C2796.3,567.14 2819.901,610.7761 2832.571,639.9661 " fill="none" id="Main-to-PharmacistView" style="stroke:#181818;stroke-width:1.0;"/><polygon fill="#181818" points="2834.96,645.47,2835.0458,635.6215,2832.9692,640.8834,2827.7073,638.8068,2834.96,645.47" style="stroke:#181818;stroke-width:1.0;"/></g><!--link Main to AdministratorView--><g id="link_Main_AdministratorView"><path codeLine="83" d="M2273.05,425.35 C2403.13,468.29 2554.15,511.39 2695,535.23 C2720.87,539.61 2907.65,531.27 2931,543.23 C2973.77,565.14 3000.6813,610.0916 3015.1513,639.9216 " fill="none" id="Main-to-AdministratorView" style="stroke:#181818;stroke-width:1.0;"/><polygon fill="#181818" points="3017.77,645.32,3017.4409,635.4766,3015.5878,640.8213,3010.2431,638.9682,3017.77,645.32" style="stroke:#181818;stroke-width:1.0;"/></g><!--SRC=[fLRBRjim4BphAtYhZSJvWYA0aJH0W0GrQjINeeSjjP68KgH0Cd7Q8lzUKh8aFaGRJdoozpaxiqku1VeRAYGr0ZSr1OLN3J11_XN4VYW7hSdZP72V2_8YMKbSs69h51FLZvy4LAMNOyYAR2a8WOfewXkxQDA2OIZC0zFcZd5C0qf9ZLHvlpRmz7J2lR78zrALEegnJiEedQdzt8TVaasFvqOAeoJdgAu7Y3RgUEfjXzJFxB6VJDpKe1gWTeQWxMWzMM1TDapOG0KH0F0TVfcBeSo1fXfqFR2q6ANfVo_Jh4vqBg5SStuB1XPBOcebzvhSV_toIh4rJ8eqxGJHhk31hE-KR6wsktSKJcLmTNlh1yhEYzH17ZqVA9-Li6FPTvxPf9DArtBlBlSHnVCvUVZApBfj5xaLK5XPMAY-QrHpGR-av0Y2CBq3pagxAZXiLsc_vygMJBSS_lHeJxJkkCb6kS4VPCN4bYf4aP_zhNWhYZPz01LIzt04Rw1bH39X6hkdcQndouU-egECORvZQv8uU4rzx5PomonjVz4bwEoCj0PHTJ7n1TTIjym0loylXqCNk1-YZd0nOKtED7ty7SU7C4ynlqXyalCrCibpXtTMWSnffJN2rz8lTapbHfR8Gu47DfmdeI6sJlF5dW1uxpm6v8NXFjcpdJMco29h3omE7N55ZW1MvxEeFf5loC6jaAvPgulkVy9gTHqj-sHF5cjonUlY9StimkJD25qaJNiketwHCPPblall2wVjA8bRXaQFy9c6eJsb-py0]--></g></svg>